SplineFontDB: 3.2
FontName: tmil54
FullName: tmil54
FamilyName: tmil54
Weight: Book
Copyright: Copyright 2019 The Baloo 2 Project Authors (https://github.com/EkType/Baloo2)
Version: 1.000
ItalicAngle: 0
UnderlinePosition: -125
UnderlineWidth: 50
Ascent: 800
Descent: 200
InvalidEm: 0
sfntRevision: 0x0001b333
LayerCount: 2
Layer: 0 1 "Back" 1
Layer: 1 1 "Fore" 0
XUID: [1021 467 -1121320856 1153355]
StyleMap: 0x0040
FSType: 0
OS2Version: 4
OS2_WeightWidthSlopeOnly: 0
OS2_UseTypoMetrics: 1
CreationTime: 1618733152
ModificationTime: 1646255167
PfmFamily: 81
TTFWeight: 400
TTFWidth: 5
LineGap: 0
VLineGap: 0
Panose: 0 0 0 0 0 0 0 0 0 0
OS2TypoAscent: 1078
OS2TypoAOffset: 0
OS2TypoDescent: -524
OS2TypoDOffset: 0
OS2TypoLinegap: 0
OS2WinAscent: 1050
OS2WinAOffset: 0
OS2WinDescent: 524
OS2WinDOffset: 0
HheadAscent: 1078
HheadAOffset: 0
HheadDescent: -524
HheadDOffset: 0
OS2SubXSize: 650
OS2SubYSize: 600
OS2SubXOff: 0
OS2SubYOff: 75
OS2SupXSize: 650
OS2SupYSize: 600
OS2SupXOff: 0
OS2SupYOff: 350
OS2StrikeYSize: 50
OS2StrikeYPos: 276
OS2CapHeight: 602
OS2XHeight: 460
OS2Vendor: 'EKTF'
OS2CodePages: 20000193.00000000
OS2UnicodeRanges: a000807f.4000207b.00000000.00000000
Lookup: 1 0 0 "'rtla' Right to Left Alternates lookup 0" { "'rtla' Right to Left Alternates lookup 0 subtable"  } ['rtla' ('DFLT' <'dflt' > ) ]
Lookup: 1 0 0 "<6,0> Monospaced Numbers lookup 1" { "<6,0> Monospaced Numbers lookup 1 subtable"  } [<6,0> () 'tnum' () ]
Lookup: 1 0 0 "<10,1> Superiors lookup 2" { "<10,1> Superiors lookup 2 subtable" ("superior") } [<10,1> ('DFLT' <'dflt' > ) 'sups' ('DFLT' <'dflt' > ) ]
Lookup: 1 0 0 "<10,2> Inferiors lookup 3" { "<10,2> Inferiors lookup 3 subtable" ("inferior") } [<10,2> () 'subs' () ]
Lookup: 258 0 0 "'kern' Horizontal Kerning in Latin lookup 0" { "'kern' Horizontal Kerning in Latin lookup 0 subtable"  } ['kern' ('DFLT' <'dflt' > 'latn' <'dflt' > ) ]

StartChar: exclam
Encoding: 33 33 4
Width: 250
Flags: W
LayerCount: 2
Fore
SplineSet
164 582 m 0,0,1
 164 552 164 552 163.5 503.5 c 128,-1,2
 163 455 163 455 161.5 398.5 c 128,-1,3
 160 342 160 342 158 286.5 c 128,-1,4
 156 231 156 231 154 187 c 1,5,6
 148 183 148 183 139.5 180 c 128,-1,7
 131 177 131 177 121 177 c 0,8,9
 107 177 107 177 98 183 c 128,-1,10
 89 189 89 189 88 202 c 0,11,12
 86 231 86 231 84 282 c 128,-1,13
 82 333 82 333 81 393.5 c 128,-1,14
 80 454 80 454 79.5 512 c 128,-1,15
 79 570 79 570 79 612 c 1,16,17
 100 625 100 625 124 625 c 0,18,19
 143 625 143 625 153.5 614.5 c 128,-1,20
 164 604 164 604 164 582 c 0,0,1
66 45 m 256,21,22
 66 69 66 69 81 85 c 128,-1,23
 96 101 96 101 122 101 c 256,24,25
 148 101 148 101 163 85 c 128,-1,26
 178 69 178 69 178 45 c 256,27,28
 178 21 178 21 163 5 c 128,-1,29
 148 -11 148 -11 122 -11 c 256,30,31
 96 -11 96 -11 81 5 c 128,-1,32
 66 21 66 21 66 45 c 256,21,22
EndSplineSet
EndChar

StartChar: quotedbl
Encoding: 34 34 5
Width: 270
Flags: W
LayerCount: 2
Fore
SplineSet
101 418 m 1,0,1
 94 415 94 415 86.5 413.5 c 128,-1,2
 79 412 79 412 70 412 c 0,3,4
 55 412 55 412 46.5 419 c 128,-1,5
 38 426 38 426 37 441 c 2,6,-1
 31 615 l 1,7,8
 49 625 49 625 70 625 c 0,9,10
 88 625 88 625 97.5 615.5 c 128,-1,11
 107 606 107 606 107 586 c 0,12,13
 107 569 107 569 106 538 c 128,-1,14
 105 507 105 507 103.5 474.5 c 128,-1,15
 102 442 102 442 101 418 c 1,0,1
234 418 m 1,16,17
 227 415 227 415 218.5 413.5 c 128,-1,18
 210 412 210 412 202 412 c 0,19,20
 186 412 186 412 178.5 419 c 128,-1,21
 171 426 171 426 170 441 c 2,22,-1
 163 615 l 1,23,24
 172 620 172 620 181.5 622.5 c 128,-1,25
 191 625 191 625 203 625 c 0,26,27
 221 625 221 625 230 615.5 c 128,-1,28
 239 606 239 606 239 585 c 0,29,30
 239 569 239 569 238 538 c 128,-1,31
 237 507 237 507 236 474.5 c 128,-1,32
 235 442 235 442 234 418 c 1,16,17
EndSplineSet
EndChar

StartChar: numbersign
Encoding: 35 35 6
Width: 667
Flags: W
LayerCount: 2
Fore
SplineSet
566 162 m 2,0,-1
 49 162 l 1,1,2
 47 168 47 168 45 175.5 c 128,-1,3
 43 183 43 183 43 191 c 0,4,5
 43 208 43 208 51.5 216 c 128,-1,6
 60 224 60 224 76 224 c 2,7,-1
 594 224 l 1,8,9
 596 218 596 218 598 210.5 c 128,-1,10
 600 203 600 203 600 194 c 0,11,12
 600 178 600 178 591.5 170 c 128,-1,13
 583 162 583 162 566 162 c 2,0,-1
596 396 m 2,14,-1
 79 396 l 1,15,16
 77 402 77 402 74.5 409 c 128,-1,17
 72 416 72 416 72 425 c 0,18,19
 72 442 72 442 81 450 c 128,-1,20
 90 458 90 458 106 458 c 2,21,-1
 624 458 l 1,22,23
 626 452 626 452 628 444.5 c 128,-1,24
 630 437 630 437 630 428 c 0,25,26
 630 412 630 412 621.5 404 c 128,-1,27
 613 396 613 396 596 396 c 2,14,-1
307 532 m 2,28,-1
 195 -3 l 1,29,30
 190 -4 190 -4 183.5 -4.5 c 128,-1,31
 177 -5 177 -5 170 -5 c 0,32,33
 154 -5 154 -5 144.5 3 c 128,-1,34
 135 11 135 11 135 27 c 0,35,36
 135 37 135 37 138 51.5 c 128,-1,37
 141 66 141 66 144 76 c 2,38,-1
 256 611 l 1,39,40
 261 612 261 612 268 612.5 c 128,-1,41
 275 613 275 613 281 613 c 0,42,43
 297 613 297 613 306.5 605.5 c 128,-1,44
 316 598 316 598 316 581 c 0,45,46
 316 571 316 571 312.5 557 c 128,-1,47
 309 543 309 543 307 532 c 2,28,-1
523 532 m 2,48,-1
 411 -3 l 1,49,50
 406 -4 406 -4 399.5 -4.5 c 128,-1,51
 393 -5 393 -5 386 -5 c 0,52,53
 370 -5 370 -5 360.5 3 c 128,-1,54
 351 11 351 11 351 27 c 0,55,56
 351 37 351 37 354 51.5 c 128,-1,57
 357 66 357 66 359 76 c 2,58,-1
 472 611 l 1,59,60
 477 612 477 612 484 612.5 c 128,-1,61
 491 613 491 613 497 613 c 0,62,63
 513 613 513 613 522.5 605.5 c 128,-1,64
 532 598 532 598 532 581 c 0,65,66
 532 571 532 571 528.5 557 c 128,-1,67
 525 543 525 543 523 532 c 2,48,-1
EndSplineSet
EndChar

StartChar: dollar
Encoding: 36 36 7
Width: 522
Flags: W
LayerCount: 2
Fore
SplineSet
221 25 m 1,0,-1
 294 25 l 1,1,-1
 294 -89 l 1,2,3
 290 -90 290 -90 281.5 -92 c 128,-1,4
 273 -94 273 -94 262 -94 c 0,5,6
 243 -94 243 -94 232 -85.5 c 128,-1,7
 221 -77 221 -77 221 -61 c 2,8,-1
 221 25 l 1,0,-1
294 568 m 1,9,-1
 221 568 l 1,10,-1
 221 697 l 1,11,12
 226 699 226 699 235 700.5 c 128,-1,13
 244 702 244 702 254 702 c 0,14,15
 274 702 274 702 284 693.5 c 128,-1,16
 294 685 294 685 294 669 c 2,17,-1
 294 568 l 1,9,-1
257 55 m 0,18,19
 324 55 324 55 358.5 85.5 c 128,-1,20
 393 116 393 116 393 164 c 0,21,22
 393 205 393 205 366.5 232 c 128,-1,23
 340 259 340 259 283 275 c 2,24,-1
 196 301 l 2,25,26
 154 314 154 314 123 334.5 c 128,-1,27
 92 355 92 355 75.5 385.5 c 128,-1,28
 59 416 59 416 59 457 c 0,29,30
 59 534 59 534 115 577.5 c 128,-1,31
 171 621 171 621 264 621 c 0,32,33
 318 621 318 621 360.5 609.5 c 128,-1,34
 403 598 403 598 427.5 580 c 128,-1,35
 452 562 452 562 452 542 c 0,36,37
 452 529 452 529 445 518.5 c 128,-1,38
 438 508 438 508 427 502 c 1,39,40
 402 522 402 522 359.5 537 c 128,-1,41
 317 552 317 552 267 552 c 0,42,43
 209 552 209 552 175 526.5 c 128,-1,44
 141 501 141 501 141 457 c 0,45,46
 141 422 141 422 165.5 400 c 128,-1,47
 190 378 190 378 245 362 c 2,48,-1
 306 344 l 2,49,50
 385 322 385 322 430.5 280 c 128,-1,51
 476 238 476 238 476 164 c 0,52,53
 476 85 476 85 418.5 36 c 128,-1,54
 361 -13 361 -13 257 -13 c 0,55,56
 196 -13 196 -13 150.5 0.5 c 128,-1,57
 105 14 105 14 79.5 34.5 c 128,-1,58
 54 55 54 55 54 75 c 0,59,60
 54 92 54 92 64.5 103.5 c 128,-1,61
 75 115 75 115 89 120 c 1,62,63
 112 98 112 98 154 76.5 c 128,-1,64
 196 55 196 55 257 55 c 0,18,19
EndSplineSet
EndChar

StartChar: percent
Encoding: 37 37 8
Width: 772
Flags: W
LayerCount: 2
Fore
SplineSet
335 474 m 256,0,1
 335 409 335 409 294 370.5 c 128,-1,2
 253 332 253 332 194 332 c 256,3,4
 135 332 135 332 94 370.5 c 128,-1,5
 53 409 53 409 53 474 c 256,6,7
 53 539 53 539 94 577.5 c 128,-1,8
 135 616 135 616 194 616 c 256,9,10
 253 616 253 616 294 577.5 c 128,-1,11
 335 539 335 539 335 474 c 256,0,1
124 474 m 256,12,13
 124 435 124 435 143.5 413.5 c 128,-1,14
 163 392 163 392 194 392 c 256,15,16
 225 392 225 392 244.5 413.5 c 128,-1,17
 264 435 264 435 264 474 c 256,18,19
 264 513 264 513 244.5 534.5 c 128,-1,20
 225 556 225 556 194 556 c 256,21,22
 163 556 163 556 143.5 534.5 c 128,-1,23
 124 513 124 513 124 474 c 256,12,13
186 65 m 2,24,-1
 554 616 l 1,25,26
 577 613 577 613 590.5 604.5 c 128,-1,27
 604 596 604 596 604 582 c 0,28,29
 604 572 604 572 600 562.5 c 128,-1,30
 596 553 596 553 588 542 c 2,31,-1
 221 -7 l 1,32,33
 199 -5 199 -5 185 5 c 128,-1,34
 171 15 171 15 171 28 c 0,35,36
 171 36 171 36 175 45 c 128,-1,37
 179 54 179 54 186 65 c 2,24,-1
719 135 m 0,38,39
 719 69 719 69 678 30.5 c 128,-1,40
 637 -8 637 -8 578 -8 c 0,41,42
 520 -8 520 -8 478.5 30.5 c 128,-1,43
 437 69 437 69 437 135 c 0,44,45
 437 200 437 200 478.5 238 c 128,-1,46
 520 276 520 276 578 276 c 0,47,48
 637 276 637 276 678 238 c 128,-1,49
 719 200 719 200 719 135 c 0,38,39
508 135 m 0,50,51
 508 95 508 95 527.5 73.5 c 128,-1,52
 547 52 547 52 578 52 c 256,53,54
 609 52 609 52 628.5 73.5 c 128,-1,55
 648 95 648 95 648 135 c 0,56,57
 648 173 648 173 628.5 194.5 c 128,-1,58
 609 216 609 216 578 216 c 256,59,60
 547 216 547 216 527.5 194.5 c 128,-1,61
 508 173 508 173 508 135 c 0,50,51
EndSplineSet
EndChar

StartChar: ampersand
Encoding: 38 38 9
Width: 637
Flags: W
LayerCount: 2
Fore
SplineSet
509 102 m 1,0,-1
 480 68 l 2,1,2
 446 31 446 31 397 8 c 128,-1,3
 348 -15 348 -15 279 -15 c 256,4,5
 210 -15 210 -15 158.5 10 c 128,-1,6
 107 35 107 35 78.5 80.5 c 128,-1,7
 50 126 50 126 50 187 c 0,8,9
 50 238 50 238 70.5 276.5 c 128,-1,10
 91 315 91 315 126 341 c 128,-1,11
 161 367 161 367 204 378 c 1,12,-1
 239 319 l 1,13,14
 212 313 212 313 187.5 296.5 c 128,-1,15
 163 280 163 280 147 252.5 c 128,-1,16
 131 225 131 225 131 186 c 0,17,18
 131 126 131 126 170.5 89.5 c 128,-1,19
 210 53 210 53 280 53 c 0,20,21
 318 53 318 53 358.5 69 c 128,-1,22
 399 85 399 85 433 124 c 1,23,-1
 455 156 l 2,24,25
 473 189 473 189 483.5 239 c 128,-1,26
 494 289 494 289 494 353 c 1,27,28
 503 357 503 357 512.5 359.5 c 128,-1,29
 522 362 522 362 531 362 c 0,30,31
 551 362 551 362 561 350.5 c 128,-1,32
 571 339 571 339 571 317 c 0,33,34
 571 261 571 261 554.5 202 c 128,-1,35
 538 143 538 143 509 102 c 1,0,-1
565 -14 m 0,36,37
 545 -14 545 -14 525 9 c 2,38,-1
 219 329 l 1,39,-1
 194 357 l 2,40,41
 163 389 163 389 148 419.5 c 128,-1,42
 133 450 133 450 133 485 c 0,43,44
 133 526 133 526 151.5 556.5 c 128,-1,45
 170 587 170 587 205.5 604 c 128,-1,46
 241 621 241 621 292 621 c 0,47,48
 345 621 345 621 372.5 606 c 128,-1,49
 400 591 400 591 400 568 c 0,50,51
 400 556 400 556 393.5 546.5 c 128,-1,52
 387 537 387 537 379 532 c 1,53,54
 363 541 363 541 341.5 547 c 128,-1,55
 320 553 320 553 297 553 c 0,56,57
 259 553 259 553 237 534.5 c 128,-1,58
 215 516 215 516 215 484 c 0,59,60
 215 453 215 453 231 429 c 128,-1,61
 247 405 247 405 277 374 c 2,62,-1
 609 29 l 1,63,64
 606 9 606 9 595 -2.5 c 128,-1,65
 584 -14 584 -14 565 -14 c 0,36,37
EndSplineSet
EndChar

StartChar: quotesingle
Encoding: 39 39 10
Width: 139
Flags: W
LayerCount: 2
Fore
SplineSet
103 418 m 1,0,1
 96 416 96 416 87.5 414 c 128,-1,2
 79 412 79 412 70 412 c 0,3,4
 55 412 55 412 46.5 419.5 c 128,-1,5
 38 427 38 427 37 441 c 2,6,-1
 31 615 l 1,7,8
 39 620 39 620 48.5 622.5 c 128,-1,9
 58 625 58 625 71 625 c 0,10,11
 90 625 90 625 99.5 615.5 c 128,-1,12
 109 606 109 606 109 585 c 0,13,14
 109 568 109 568 108 537.5 c 128,-1,15
 107 507 107 507 106 474.5 c 128,-1,16
 105 442 105 442 103 418 c 1,0,1
EndSplineSet
EndChar

StartChar: parenleft
Encoding: 40 40 11
Width: 254
Flags: W
LayerCount: 2
Fore
SplineSet
204 -116 m 0,0,1
 188 -116 188 -116 175 -104.5 c 128,-1,2
 162 -93 162 -93 148 -73 c 0,3,4
 103 -9 103 -9 79 76.5 c 128,-1,5
 55 162 55 162 55 274 c 0,6,7
 55 385 55 385 83 472.5 c 128,-1,8
 111 560 111 560 148 615 c 0,9,10
 161 635 161 635 174.5 646 c 128,-1,11
 188 657 188 657 204 657 c 0,12,13
 218 657 218 657 228.5 649 c 128,-1,14
 239 641 239 641 244 629 c 1,15,16
 190 560 190 560 160.5 470.5 c 128,-1,17
 131 381 131 381 131 274 c 256,18,19
 131 167 131 167 157.5 81 c 128,-1,20
 184 -5 184 -5 244 -87 c 1,21,22
 239 -99 239 -99 228.5 -107.5 c 128,-1,23
 218 -116 218 -116 204 -116 c 0,0,1
EndSplineSet
Substitution2: "'rtla' Right to Left Alternates lookup 0 subtable" parenright
EndChar

StartChar: parenright
Encoding: 41 41 12
Width: 254
Flags: W
LayerCount: 2
Fore
SplineSet
50 -116 m 0,0,1
 36 -116 36 -116 25.5 -107.5 c 128,-1,2
 15 -99 15 -99 10 -87 c 1,3,4
 70 -5 70 -5 96.5 81 c 128,-1,5
 123 167 123 167 123 274 c 256,6,7
 123 381 123 381 93.5 470.5 c 128,-1,8
 64 560 64 560 10 629 c 1,9,10
 15 641 15 641 25.5 649 c 128,-1,11
 36 657 36 657 50 657 c 0,12,13
 66 657 66 657 79.5 646 c 128,-1,14
 93 635 93 635 106 615 c 0,15,16
 143 560 143 560 171 472.5 c 128,-1,17
 199 385 199 385 199 274 c 0,18,19
 199 162 199 162 175 76.5 c 128,-1,20
 151 -9 151 -9 106 -73 c 0,21,22
 93 -93 93 -93 79.5 -104.5 c 128,-1,23
 66 -116 66 -116 50 -116 c 0,0,1
EndSplineSet
Substitution2: "'rtla' Right to Left Alternates lookup 0 subtable" parenleft
EndChar

StartChar: asterisk
Encoding: 42 42 13
Width: 299
Flags: W
LayerCount: 2
Fore
SplineSet
146 535 m 1,0,-1
 168 478 l 1,1,-1
 23 526 l 1,2,3
 20 537 20 537 20 547 c 0,4,5
 20 561 20 561 28.5 570 c 128,-1,6
 37 579 37 579 50 579 c 0,7,8
 55 579 55 579 60 577 c 128,-1,9
 65 575 65 575 71 573 c 2,10,-1
 146 535 l 1,0,-1
181 510 m 1,11,-1
 100 391 l 2,12,13
 96 390 96 390 93 390 c 128,-1,14
 90 390 90 390 87 390 c 0,15,16
 68 390 68 390 58.5 398.5 c 128,-1,17
 49 407 49 407 49 419 c 0,18,19
 49 427 49 427 52.5 434 c 128,-1,20
 56 441 56 441 61 446 c 2,21,-1
 113 504 l 1,22,-1
 181 510 l 1,11,-1
135 490 m 1,23,-1
 162 536 l 1,24,-1
 258 421 l 1,25,26
 256 408 256 408 245.5 399 c 128,-1,27
 235 390 235 390 223 390 c 0,28,29
 212 390 212 390 203 398.5 c 128,-1,30
 194 407 194 407 187 416 c 2,31,-1
 135 490 l 1,23,-1
124 515 m 1,32,-1
 254 588 l 1,33,34
 263 584 263 584 271 574.5 c 128,-1,35
 279 565 279 565 279 553 c 256,36,37
 279 541 279 541 272 535 c 128,-1,38
 265 529 265 529 254 524 c 2,39,-1
 170 484 l 1,40,-1
 124 515 l 1,32,-1
176 520 m 1,41,-1
 126 492 l 1,42,-1
 121 640 l 1,43,44
 126 643 126 643 134 646 c 128,-1,45
 142 649 142 649 152 649 c 0,46,47
 165 649 165 649 173.5 643 c 128,-1,48
 182 637 182 637 182 623 c 0,49,50
 182 617 182 617 180.5 596 c 128,-1,51
 179 575 179 575 177.5 552.5 c 128,-1,52
 176 530 176 530 176 520 c 1,41,-1
EndSplineSet
EndChar

StartChar: plus
Encoding: 43 43 14
Width: 548
Flags: W
LayerCount: 2
Fore
SplineSet
462 266 m 2,0,-1
 58 266 l 1,1,2
 55 273 55 273 53 280.5 c 128,-1,3
 51 288 51 288 51 298 c 0,4,5
 51 315 51 315 60.5 323.5 c 128,-1,6
 70 332 70 332 86 332 c 2,7,-1
 490 332 l 1,8,9
 492 326 492 326 494.5 318 c 128,-1,10
 497 310 497 310 497 301 c 0,11,12
 497 285 497 285 488 275.5 c 128,-1,13
 479 266 479 266 462 266 c 2,0,-1
312 488 m 2,14,-1
 312 73 l 1,15,16
 305 70 305 70 297 68 c 128,-1,17
 289 66 289 66 278 66 c 0,18,19
 258 66 258 66 248.5 75 c 128,-1,20
 239 84 239 84 239 106 c 2,21,-1
 239 521 l 1,22,23
 247 524 247 524 255.5 526 c 128,-1,24
 264 528 264 528 276 528 c 0,25,26
 295 528 295 528 303.5 519 c 128,-1,27
 312 510 312 510 312 488 c 2,14,-1
EndSplineSet
EndChar

StartChar: comma
Encoding: 44 44 15
Width: 145
Flags: W
LayerCount: 2
Fore
SplineSet
68 -94 m 0,0,1
 52 -121 52 -121 29 -121 c 0,2,3
 7 -121 7 -121 -7 -104 c 1,4,5
 2 -78 2 -78 13.5 -42.5 c 128,-1,6
 25 -7 25 -7 35 30 c 128,-1,7
 45 67 45 67 50 94 c 1,8,9
 58 98 58 98 67.5 100.5 c 128,-1,10
 77 103 77 103 88 103 c 0,11,12
 106 103 106 103 116 94.5 c 128,-1,13
 126 86 126 86 126 66 c 0,14,15
 126 44 126 44 115.5 11.5 c 128,-1,16
 105 -21 105 -21 91 -50.5 c 128,-1,17
 77 -80 77 -80 68 -94 c 0,0,1
EndSplineSet
EndChar

StartChar: hyphen
Encoding: 45 45 16
Width: 389
Flags: W
LayerCount: 2
Fore
SplineSet
300 228 m 2,0,-1
 61 228 l 1,1,2
 58 235 58 235 56 242.5 c 128,-1,3
 54 250 54 250 54 260 c 0,4,5
 54 277 54 277 63.5 285.5 c 128,-1,6
 73 294 73 294 89 294 c 2,7,-1
 328 294 l 1,8,9
 330 288 330 288 332.5 280 c 128,-1,10
 335 272 335 272 335 263 c 0,11,12
 335 247 335 247 326 237.5 c 128,-1,13
 317 228 317 228 300 228 c 2,0,-1
EndSplineSet
EndChar

StartChar: period
Encoding: 46 46 17
Width: 141
Flags: W
LayerCount: 2
Fore
SplineSet
16 42 m 0,0,1
 16 66 16 66 30.5 82 c 128,-1,2
 45 98 45 98 71 98 c 256,3,4
 97 98 97 98 111 82 c 128,-1,5
 125 66 125 66 125 42 c 0,6,7
 125 19 125 19 111 3 c 128,-1,8
 97 -13 97 -13 71 -13 c 256,9,10
 45 -13 45 -13 30.5 3 c 128,-1,11
 16 19 16 19 16 42 c 0,0,1
EndSplineSet
EndChar

StartChar: slash
Encoding: 47 47 18
Width: 305
Flags: W
LayerCount: 2
Fore
SplineSet
274 621 m 2,0,-1
 89 -105 l 1,1,2
 83 -106 83 -106 77 -106.5 c 128,-1,3
 71 -107 71 -107 63 -107 c 0,4,5
 44 -107 44 -107 34 -97.5 c 128,-1,6
 24 -88 24 -88 24 -71 c 0,7,8
 24 -60 24 -60 28 -45 c 128,-1,9
 32 -30 32 -30 34 -21 c 2,10,-1
 218 705 l 1,11,12
 225 706 225 706 231 706.5 c 128,-1,13
 237 707 237 707 244 707 c 0,14,15
 261 707 261 707 272 698.5 c 128,-1,16
 283 690 283 690 283 671 c 0,17,18
 283 660 283 660 280 646.5 c 128,-1,19
 277 633 277 633 274 621 c 2,0,-1
EndSplineSet
EndChar

StartChar: zero
Encoding: 48 48 19
Width: 583
Flags: W
LayerCount: 2
Fore
SplineSet
447 304 m 0,0,1
 447 393 447 393 425.5 447.5 c 128,-1,2
 404 502 404 502 369 527 c 128,-1,3
 334 552 334 552 291 552 c 0,4,5
 249 552 249 552 213.5 526.5 c 128,-1,6
 178 501 178 501 157 446 c 128,-1,7
 136 391 136 391 136 304 c 0,8,9
 136 184 136 184 177 119.5 c 128,-1,10
 218 55 218 55 291 55 c 0,11,12
 365 55 365 55 406 119.5 c 128,-1,13
 447 184 447 184 447 304 c 0,0,1
291 -13 m 0,14,15
 221 -13 221 -13 167.5 21.5 c 128,-1,16
 114 56 114 56 84 126.5 c 128,-1,17
 54 197 54 197 54 304 c 0,18,19
 54 419 54 419 88 488 c 128,-1,20
 122 557 122 557 176 588.5 c 128,-1,21
 230 620 230 620 291 620 c 0,22,23
 353 620 353 620 407.5 588 c 128,-1,24
 462 556 462 556 495.5 486.5 c 128,-1,25
 529 417 529 417 529 304 c 0,26,27
 529 198 529 198 499 127.5 c 128,-1,28
 469 57 469 57 415.5 22 c 128,-1,29
 362 -13 362 -13 291 -13 c 0,14,15
EndSplineSet
EndChar

StartChar: one
Encoding: 49 49 20
Width: 357
Flags: W
LayerCount: 2
Fore
SplineSet
254 224 m 1,0,-1
 173 224 l 1,1,-1
 173 530 l 1,2,-1
 45 470 l 1,3,4
 32 475 32 475 23.5 485 c 128,-1,5
 15 495 15 495 15 510 c 0,6,7
 15 539 15 539 51 554 c 2,8,-1
 191 615 l 1,9,-1
 210 615 l 2,10,11
 230 615 230 615 242 603 c 128,-1,12
 254 591 254 591 254 571 c 2,13,-1
 254 224 l 1,0,-1
173 264 m 1,14,-1
 254 264 l 1,15,-1
 254 -1 l 1,16,17
 248 -3 248 -3 238 -5.5 c 128,-1,18
 228 -8 228 -8 216 -8 c 0,19,20
 195 -8 195 -8 184 1 c 128,-1,21
 173 10 173 10 173 29 c 2,22,-1
 173 264 l 1,14,-1
EndSplineSet
Substitution2: "<10,1> Superiors lookup 2 subtable" uni00B9
EndChar

StartChar: two
Encoding: 50 50 21
Width: 508
Flags: W
LayerCount: 2
Fore
SplineSet
57 545 m 0,0,1
 57 563 57 563 80 580.5 c 128,-1,2
 103 598 103 598 142 609 c 128,-1,3
 181 620 181 620 227 620 c 0,4,5
 291 620 291 620 337 598.5 c 128,-1,6
 383 577 383 577 408 538 c 128,-1,7
 433 499 433 499 433 446 c 0,8,9
 433 391 433 391 402.5 338 c 128,-1,10
 372 285 372 285 298 217 c 2,11,-1
 135 66 l 1,12,-1
 432 66 l 1,13,14
 436 62 436 62 439 53.5 c 128,-1,15
 442 45 442 45 442 34 c 0,16,17
 442 18 442 18 433.5 9 c 128,-1,18
 425 0 425 0 411 0 c 2,19,-1
 58 0 l 1,20,21
 48 7 48 7 43 17.5 c 128,-1,22
 38 28 38 28 38 40 c 0,23,24
 38 56 38 56 44 68.5 c 128,-1,25
 50 81 50 81 62 92 c 2,26,-1
 242 265 l 2,27,28
 304 323 304 323 327 362.5 c 128,-1,29
 350 402 350 402 350 445 c 0,30,31
 350 492 350 492 318 522 c 128,-1,32
 286 552 286 552 221 552 c 0,33,34
 177 552 177 552 142.5 537 c 128,-1,35
 108 522 108 522 85 505 c 1,36,37
 74 510 74 510 65.5 520 c 128,-1,38
 57 530 57 530 57 545 c 0,0,1
EndSplineSet
Substitution2: "<10,1> Superiors lookup 2 subtable" uni00B2
EndChar

StartChar: three
Encoding: 51 51 22
Width: 506
Flags: W
LayerCount: 2
Fore
SplineSet
217 621 m 0,0,1
 312 621 312 621 370.5 579.5 c 128,-1,2
 429 538 429 538 429 455 c 0,3,4
 429 415 429 415 412.5 386.5 c 128,-1,5
 396 358 396 358 373.5 342 c 128,-1,6
 351 326 351 326 333 321 c 1,7,8
 360 313 360 313 386 293.5 c 128,-1,9
 412 274 412 274 429.5 243.5 c 128,-1,10
 447 213 447 213 447 170 c 0,11,12
 447 110 447 110 418 70 c 128,-1,13
 389 30 389 30 338 9.5 c 128,-1,14
 287 -11 287 -11 220 -11 c 0,15,16
 165 -11 165 -11 122.5 0.5 c 128,-1,17
 80 12 80 12 56 30 c 128,-1,18
 32 48 32 48 32 68 c 0,19,20
 32 82 32 82 39.5 92 c 128,-1,21
 47 102 47 102 59 109 c 1,22,23
 85 89 85 89 122.5 73 c 128,-1,24
 160 57 160 57 220 57 c 0,25,26
 286 57 286 57 327 85.5 c 128,-1,27
 368 114 368 114 368 172 c 0,28,29
 368 223 368 223 330 254 c 128,-1,30
 292 285 292 285 220 285 c 2,31,-1
 137 285 l 1,32,33
 133 290 133 290 130 299.5 c 128,-1,34
 127 309 127 309 127 319 c 0,35,36
 127 330 127 330 130 339 c 128,-1,37
 133 348 133 348 137 353 c 1,38,-1
 213 353 l 2,39,40
 287 353 287 353 318.5 380.5 c 128,-1,41
 350 408 350 408 350 453 c 0,42,43
 350 502 350 502 314 527.5 c 128,-1,44
 278 553 278 553 216 553 c 0,45,46
 168 553 168 553 131.5 538.5 c 128,-1,47
 95 524 95 524 71 507 c 1,48,49
 61 512 61 512 53 523 c 128,-1,50
 45 534 45 534 45 547 c 0,51,52
 45 565 45 565 68 582 c 128,-1,53
 91 599 91 599 130 610 c 128,-1,54
 169 621 169 621 217 621 c 0,0,1
EndSplineSet
Substitution2: "<10,1> Superiors lookup 2 subtable" uni00B3
EndChar

StartChar: four
Encoding: 52 52 23
Width: 548
Flags: W
LayerCount: 2
Fore
SplineSet
32 223 m 2,0,-1
 323 609 l 1,1,2
 332 611 332 611 343.5 612.5 c 128,-1,3
 355 614 355 614 364 614 c 0,4,5
 378 614 378 614 390.5 610 c 128,-1,6
 403 606 403 606 411 595.5 c 128,-1,7
 419 585 419 585 419 565 c 2,8,-1
 419 215 l 1,9,-1
 519 215 l 1,10,11
 522 210 522 210 525 201.5 c 128,-1,12
 528 193 528 193 528 182 c 0,13,14
 528 166 528 166 520 157 c 128,-1,15
 512 148 512 148 497 148 c 2,16,-1
 419 148 l 1,17,-1
 419 -2 l 1,18,19
 414 -3 414 -3 404.5 -5.5 c 128,-1,20
 395 -8 395 -8 384 -8 c 0,21,22
 363 -8 363 -8 352 1 c 128,-1,23
 341 10 341 10 341 27 c 2,24,-1
 341 148 l 1,25,-1
 52 148 l 1,26,27
 42 153 42 153 34.5 166 c 128,-1,28
 27 179 27 179 27 195 c 0,29,30
 27 204 27 204 28.5 210.5 c 128,-1,31
 30 217 30 217 32 223 c 2,0,-1
342 215 m 1,32,-1
 344 530 l 1,33,-1
 342 530 l 1,34,-1
 120 215 l 1,35,-1
 342 215 l 1,32,-1
EndSplineSet
EndChar

StartChar: five
Encoding: 53 53 24
Width: 538
Flags: W
LayerCount: 2
Fore
SplineSet
204 608 m 1,0,-1
 177 549 l 1,1,-1
 160 360 l 1,2,3
 177 369 177 369 207.5 377.5 c 128,-1,4
 238 386 238 386 272 386 c 0,5,6
 332 386 332 386 380 363.5 c 128,-1,7
 428 341 428 341 456.5 297.5 c 128,-1,8
 485 254 485 254 485 190 c 0,9,10
 485 132 485 132 458.5 86 c 128,-1,11
 432 40 432 40 381.5 13.5 c 128,-1,12
 331 -13 331 -13 258 -13 c 0,13,14
 201 -13 201 -13 158 0 c 128,-1,15
 115 13 115 13 91 32 c 128,-1,16
 67 51 67 51 67 69 c 0,17,18
 67 85 67 85 77.5 97 c 128,-1,19
 88 109 88 109 99 113 c 1,20,21
 121 94 121 94 161 74 c 128,-1,22
 201 54 201 54 258 54 c 0,23,24
 327 54 327 54 365 92.5 c 128,-1,25
 403 131 403 131 403 190 c 0,26,27
 403 251 403 251 364 285 c 128,-1,28
 325 319 325 319 262 319 c 0,29,30
 227 319 227 319 198 308 c 128,-1,31
 169 297 169 297 144 283 c 1,32,33
 117 285 117 285 100.5 299.5 c 128,-1,34
 84 314 84 314 84 337 c 0,35,36
 84 343 84 343 84.5 352.5 c 128,-1,37
 85 362 85 362 86 371 c 2,38,-1
 103 562 l 2,39,40
 105 583 105 583 116 595.5 c 128,-1,41
 127 608 127 608 148 608 c 2,42,-1
 204 608 l 1,0,-1
162 540 m 1,43,-1
 162 608 l 1,44,-1
 454 608 l 1,45,46
 457 604 457 604 460 595 c 128,-1,47
 463 586 463 586 463 576 c 0,48,49
 463 560 463 560 455 550 c 128,-1,50
 447 540 447 540 432 540 c 2,51,-1
 162 540 l 1,43,-1
EndSplineSet
EndChar

StartChar: six
Encoding: 54 54 25
Width: 550
Flags: W
LayerCount: 2
Fore
SplineSet
455 561 m 0,0,1
 455 549 455 549 448.5 538.5 c 128,-1,2
 442 528 442 528 432 523 c 1,3,4
 410 534 410 534 382.5 542.5 c 128,-1,5
 355 551 355 551 323 551 c 0,6,7
 245 551 245 551 191.5 495 c 128,-1,8
 138 439 138 439 135 320 c 1,9,10
 155 340 155 340 196.5 362.5 c 128,-1,11
 238 385 238 385 299 385 c 0,12,13
 387 385 387 385 444 335 c 128,-1,14
 501 285 501 285 501 187 c 0,15,16
 501 125 501 125 474.5 80 c 128,-1,17
 448 35 448 35 400.5 11 c 128,-1,18
 353 -13 353 -13 288 -13 c 0,19,20
 221 -13 221 -13 168 17.5 c 128,-1,21
 115 48 115 48 84.5 113.5 c 128,-1,22
 54 179 54 179 54 285 c 0,23,24
 54 379 54 379 76.5 443.5 c 128,-1,25
 99 508 99 508 137 546.5 c 128,-1,26
 175 585 175 585 223 602.5 c 128,-1,27
 271 620 271 620 321 620 c 0,28,29
 356 620 356 620 386.5 613 c 128,-1,30
 417 606 417 606 436 593 c 128,-1,31
 455 580 455 580 455 561 c 0,0,1
288 54 m 0,32,33
 346 54 346 54 383 89.5 c 128,-1,34
 420 125 420 125 420 189 c 0,35,36
 420 254 420 254 382.5 285.5 c 128,-1,37
 345 317 345 317 290 317 c 256,38,39
 235 317 235 317 195 293.5 c 128,-1,40
 155 270 155 270 132 237 c 1,41,-1
 135 244 l 1,42,43
 135 159 135 159 175 106.5 c 128,-1,44
 215 54 215 54 288 54 c 0,32,33
EndSplineSet
EndChar

StartChar: seven
Encoding: 55 55 26
Width: 458
Flags: W
LayerCount: 2
Fore
SplineSet
55 608 m 2,0,-1
 415 608 l 1,1,2
 426 602 426 602 432 591.5 c 128,-1,3
 438 581 438 581 438 568 c 0,4,5
 438 558 438 558 435.5 548 c 128,-1,6
 433 538 433 538 427 526 c 2,7,-1
 176 -4 l 1,8,9
 170 -5 170 -5 164.5 -5 c 128,-1,10
 159 -5 159 -5 153 -5 c 0,11,12
 134 -5 134 -5 120 4.5 c 128,-1,13
 106 14 106 14 106 31 c 0,14,15
 106 43 106 43 111 54.5 c 128,-1,16
 116 66 116 66 123 81 c 2,17,-1
 349 540 l 1,18,-1
 33 540 l 1,19,20
 30 545 30 545 27 553.5 c 128,-1,21
 24 562 24 562 24 572 c 0,22,23
 24 589 24 589 32 598.5 c 128,-1,24
 40 608 40 608 55 608 c 2,0,-1
EndSplineSet
EndChar

StartChar: eight
Encoding: 56 56 27
Width: 569
Flags: W
LayerCount: 2
Fore
SplineSet
212 328 m 2,0,-1
 272 338 l 2,1,2
 344 352 344 352 380 379.5 c 128,-1,3
 416 407 416 407 416 453 c 0,4,5
 416 500 416 500 381 526.5 c 128,-1,6
 346 553 346 553 285 553 c 0,7,8
 226 553 226 553 190 526 c 128,-1,9
 154 499 154 499 154 454 c 0,10,11
 154 416 154 416 174.5 393 c 128,-1,12
 195 370 195 370 229.5 358.5 c 128,-1,13
 264 347 264 347 305 343 c 1,14,-1
 349 328 l 1,15,16
 390 320 390 320 427 299.5 c 128,-1,17
 464 279 464 279 487 245 c 128,-1,18
 510 211 510 211 510 160 c 0,19,20
 510 106 510 106 481.5 67 c 128,-1,21
 453 28 453 28 402.5 7.5 c 128,-1,22
 352 -13 352 -13 285 -13 c 0,23,24
 217 -13 217 -13 166 7.5 c 128,-1,25
 115 28 115 28 87 67 c 128,-1,26
 59 106 59 106 59 161 c 0,27,28
 59 210 59 210 81.5 244.5 c 128,-1,29
 104 279 104 279 139 300 c 128,-1,30
 174 321 174 321 212 328 c 2,0,-1
350 307 m 2,31,-1
 282 293 l 2,32,33
 218 283 218 283 178.5 249.5 c 128,-1,34
 139 216 139 216 139 162 c 0,35,36
 139 111 139 111 178 82.5 c 128,-1,37
 217 54 217 54 285 54 c 0,38,39
 350 54 350 54 390 82 c 128,-1,40
 430 110 430 110 430 163 c 0,41,42
 430 221 430 221 381.5 255 c 128,-1,43
 333 289 333 289 252 294 c 1,44,-1
 201 309 l 2,45,46
 143 325 143 325 108.5 361 c 128,-1,47
 74 397 74 397 74 455 c 0,48,49
 74 506 74 506 100.5 543 c 128,-1,50
 127 580 127 580 174.5 600 c 128,-1,51
 222 620 222 620 285 620 c 0,52,53
 383 620 383 620 439.5 575.5 c 128,-1,54
 496 531 496 531 496 453 c 0,55,56
 496 390 496 390 453.5 354 c 128,-1,57
 411 318 411 318 350 307 c 2,31,-1
EndSplineSet
EndChar

StartChar: nine
Encoding: 57 57 28
Width: 552
Flags: W
LayerCount: 2
Fore
SplineSet
82 49 m 0,0,1
 82 61 82 61 88.5 72 c 128,-1,2
 95 83 95 83 105 88 c 1,3,4
 124 77 124 77 154.5 66.5 c 128,-1,5
 185 56 185 56 227 56 c 0,6,7
 279 56 279 56 322 78 c 128,-1,8
 365 100 365 100 391 150.5 c 128,-1,9
 417 201 417 201 417 284 c 1,10,11
 408 274 408 274 387.5 259.5 c 128,-1,12
 367 245 367 245 336 234 c 128,-1,13
 305 223 305 223 264 223 c 0,14,15
 208 223 208 223 159 242.5 c 128,-1,16
 110 262 110 262 80.5 305 c 128,-1,17
 51 348 51 348 51 418 c 0,18,19
 51 481 51 481 79 526.5 c 128,-1,20
 107 572 107 572 155 596 c 128,-1,21
 203 620 203 620 262 620 c 0,22,23
 331 620 331 620 384 588.5 c 128,-1,24
 437 557 437 557 467.5 491.5 c 128,-1,25
 498 426 498 426 498 323 c 0,26,27
 498 201 498 201 464 127 c 128,-1,28
 430 53 430 53 369.5 20 c 128,-1,29
 309 -13 309 -13 228 -13 c 0,30,31
 168 -13 168 -13 125 3 c 128,-1,32
 82 19 82 19 82 49 c 0,0,1
275 290 m 0,33,34
 326 290 326 290 365.5 315.5 c 128,-1,35
 405 341 405 341 418 372 c 1,36,-1
 417 361 l 1,37,38
 417 450 417 450 376.5 501.5 c 128,-1,39
 336 553 336 553 262 553 c 0,40,41
 207 553 207 553 169.5 517.5 c 128,-1,42
 132 482 132 482 132 420 c 0,43,44
 132 351 132 351 174 320.5 c 128,-1,45
 216 290 216 290 275 290 c 0,33,34
EndSplineSet
EndChar

StartChar: colon
Encoding: 58 58 29
Width: 189
Flags: W
LayerCount: 2
Fore
SplineSet
40 392 m 256,0,1
 40 416 40 416 54.5 432 c 128,-1,2
 69 448 69 448 94 448 c 0,3,4
 120 448 120 448 134.5 432 c 128,-1,5
 149 416 149 416 149 392 c 256,6,7
 149 368 149 368 134.5 352.5 c 128,-1,8
 120 337 120 337 94 337 c 0,9,10
 69 337 69 337 54.5 352.5 c 128,-1,11
 40 368 40 368 40 392 c 256,0,1
40 42 m 0,12,13
 40 66 40 66 54 82 c 128,-1,14
 68 98 68 98 94 98 c 256,15,16
 120 98 120 98 134.5 82 c 128,-1,17
 149 66 149 66 149 42 c 0,18,19
 149 19 149 19 134.5 3 c 128,-1,20
 120 -13 120 -13 94 -13 c 256,21,22
 68 -13 68 -13 54 3 c 128,-1,23
 40 19 40 19 40 42 c 0,12,13
EndSplineSet
EndChar

StartChar: semicolon
Encoding: 59 59 30
Width: 202
Flags: W
LayerCount: 2
Fore
SplineSet
46 392 m 256,0,1
 46 416 46 416 60 432 c 128,-1,2
 74 448 74 448 100 448 c 256,3,4
 126 448 126 448 140.5 432 c 128,-1,5
 155 416 155 416 155 392 c 256,6,7
 155 368 155 368 140.5 352.5 c 128,-1,8
 126 337 126 337 100 337 c 256,9,10
 74 337 74 337 60 352.5 c 128,-1,11
 46 368 46 368 46 392 c 256,0,1
89 -94 m 0,12,13
 73 -121 73 -121 50 -121 c 0,14,15
 28 -121 28 -121 14 -104 c 1,16,17
 23 -78 23 -78 34.5 -42.5 c 128,-1,18
 46 -7 46 -7 56 30 c 128,-1,19
 66 67 66 67 71 94 c 1,20,21
 79 98 79 98 88.5 100.5 c 128,-1,22
 98 103 98 103 109 103 c 0,23,24
 127 103 127 103 137 94.5 c 128,-1,25
 147 86 147 86 147 66 c 0,26,27
 147 44 147 44 136.5 11.5 c 128,-1,28
 126 -21 126 -21 112 -50.5 c 128,-1,29
 98 -80 98 -80 89 -94 c 0,12,13
EndSplineSet
EndChar

StartChar: less
Encoding: 60 60 31
Width: 473
Flags: W
LayerCount: 2
Fore
SplineSet
132 301 m 1,0,-1
 440 141 l 2,1,2
 441 136 441 136 441 132 c 128,-1,3
 441 128 441 128 441 123 c 0,4,5
 441 108 441 108 431 98 c 128,-1,6
 421 88 421 88 404 88 c 0,7,8
 397 88 397 88 388 91.5 c 128,-1,9
 379 95 379 95 369 101 c 2,10,-1
 64 267 l 1,11,12
 54 282 54 282 54 300 c 0,13,14
 54 315 54 315 59 324.5 c 128,-1,15
 64 334 64 334 71 338 c 2,16,-1
 405 509 l 1,17,18
 422 503 422 503 430 493 c 128,-1,19
 438 483 438 483 438 471 c 0,20,21
 438 455 438 455 428 445 c 128,-1,22
 418 435 418 435 402 425 c 2,23,-1
 132 301 l 1,0,-1
EndSplineSet
Substitution2: "'rtla' Right to Left Alternates lookup 0 subtable" greater
EndChar

StartChar: equal
Encoding: 61 61 32
Width: 518
Flags: W
LayerCount: 2
Fore
SplineSet
431 363 m 2,0,-1
 58 363 l 1,1,2
 55 369 55 369 53 377 c 128,-1,3
 51 385 51 385 51 394 c 0,4,5
 51 411 51 411 60.5 419.5 c 128,-1,6
 70 428 70 428 86 428 c 2,7,-1
 460 428 l 1,8,9
 462 422 462 422 464 414.5 c 128,-1,10
 466 407 466 407 466 397 c 0,11,12
 466 381 466 381 457 372 c 128,-1,13
 448 363 448 363 431 363 c 2,0,-1
431 161 m 2,14,-1
 58 161 l 1,15,16
 55 167 55 167 53 174.5 c 128,-1,17
 51 182 51 182 51 192 c 0,18,19
 51 209 51 209 60.5 217.5 c 128,-1,20
 70 226 70 226 86 226 c 2,21,-1
 460 226 l 1,22,23
 462 220 462 220 464 212 c 128,-1,24
 466 204 466 204 466 195 c 0,25,26
 466 179 466 179 457 170 c 128,-1,27
 448 161 448 161 431 161 c 2,14,-1
EndSplineSet
EndChar

StartChar: greater
Encoding: 62 62 33
Width: 460
Flags: W
LayerCount: 2
Fore
SplineSet
331 302 m 1,0,-1
 33 459 l 2,1,2
 32 464 32 464 32 468.5 c 128,-1,3
 32 473 32 473 32 477 c 0,4,5
 32 491 32 491 42 501.5 c 128,-1,6
 52 512 52 512 68 512 c 0,7,8
 76 512 76 512 84.5 508.5 c 128,-1,9
 93 505 93 505 103 500 c 2,10,-1
 399 334 l 1,11,12
 409 319 409 319 409 300 c 0,13,14
 409 285 409 285 404.5 276 c 128,-1,15
 400 267 400 267 392 262 c 2,16,-1
 68 92 l 1,17,18
 51 97 51 97 43 107.5 c 128,-1,19
 35 118 35 118 35 130 c 0,20,21
 35 146 35 146 45 156 c 128,-1,22
 55 166 55 166 71 175 c 2,23,-1
 331 302 l 1,0,-1
EndSplineSet
Substitution2: "'rtla' Right to Left Alternates lookup 0 subtable" less
EndChar

StartChar: question
Encoding: 63 63 34
Width: 459
Flags: W
LayerCount: 2
Fore
SplineSet
213 224 m 2,0,-1
 115 200 l 1,1,2
 106 209 106 209 100.5 220 c 128,-1,3
 95 231 95 231 95 244 c 0,4,5
 95 258 95 258 103 267 c 128,-1,6
 111 276 111 276 131 281 c 2,7,-1
 200 299 l 2,8,9
 266 316 266 316 301.5 349.5 c 128,-1,10
 337 383 337 383 337 437 c 0,11,12
 337 485 337 485 302.5 519.5 c 128,-1,13
 268 554 268 554 195 554 c 0,14,15
 155 554 155 554 114.5 541.5 c 128,-1,16
 74 529 74 529 50 509 c 1,17,18
 39 517 39 517 33 528 c 128,-1,19
 27 539 27 539 27 552 c 0,20,21
 27 581 27 581 75 603 c 128,-1,22
 123 625 123 625 198 625 c 0,23,24
 264 625 264 625 314 601 c 128,-1,25
 364 577 364 577 392 535 c 128,-1,26
 420 493 420 493 420 438 c 0,27,28
 420 354 420 354 368.5 302 c 128,-1,29
 317 250 317 250 213 224 c 2,0,-1
104 45 m 256,30,31
 104 69 104 69 119.5 85.5 c 128,-1,32
 135 102 135 102 160 102 c 0,33,34
 186 102 186 102 201.5 85.5 c 128,-1,35
 217 69 217 69 217 45 c 256,36,37
 217 21 217 21 201.5 5 c 128,-1,38
 186 -11 186 -11 160 -11 c 0,39,40
 135 -11 135 -11 119.5 5 c 128,-1,41
 104 21 104 21 104 45 c 256,30,31
EndSplineSet
EndChar

StartChar: at
Encoding: 64 64 35
Width: 1000
Flags: W
LayerCount: 2
Fore
SplineSet
380 200 m 0,0,1
 380 136 380 136 412.5 101 c 128,-1,2
 445 66 445 66 503 66 c 0,3,4
 538 66 538 66 566 81 c 128,-1,5
 594 96 594 96 620 127 c 1,6,-1
 632 53 l 1,7,8
 611 31 611 31 577 15.5 c 128,-1,9
 543 0 543 0 492 0 c 0,10,11
 405 0 405 0 351.5 53 c 128,-1,12
 298 106 298 106 298 200 c 0,13,14
 298 272 298 272 327 323.5 c 128,-1,15
 356 375 356 375 407.5 402 c 128,-1,16
 459 429 459 429 528 429 c 0,17,18
 563 429 563 429 596 421 c 128,-1,19
 629 413 629 413 652 401 c 0,20,21
 693 381 693 381 693 352 c 0,22,23
 693 345 693 345 692.5 337 c 128,-1,24
 692 329 692 329 691 322 c 2,25,-1
 665 60 l 1,26,-1
 586 60 l 1,27,-1
 614 344 l 1,28,29
 598 352 598 352 575 357.5 c 128,-1,30
 552 363 552 363 523 363 c 0,31,32
 459 363 459 363 419.5 320.5 c 128,-1,33
 380 278 380 278 380 200 c 0,0,1
608 37 m 1,34,35
 613 52 613 52 619.5 64.5 c 128,-1,36
 626 77 626 77 633.5 84 c 128,-1,37
 641 91 641 91 650 91 c 1,38,39
 662 81 662 81 680.5 71 c 128,-1,40
 699 61 699 61 726 61 c 0,41,42
 791 61 791 61 824 118.5 c 128,-1,43
 857 176 857 176 857 267 c 0,44,45
 857 362 857 362 815 434 c 128,-1,46
 773 506 773 506 696.5 546.5 c 128,-1,47
 620 587 620 587 516 587 c 0,48,49
 400 587 400 587 314 539 c 128,-1,50
 228 491 228 491 181 405 c 128,-1,51
 134 319 134 319 134 204 c 0,52,53
 134 95 134 95 178 14 c 128,-1,54
 222 -67 222 -67 301.5 -111.5 c 128,-1,55
 381 -156 381 -156 486 -156 c 0,56,57
 524 -156 524 -156 553 -151.5 c 128,-1,58
 582 -147 582 -147 602 -141 c 1,59,60
 608 -147 608 -147 611.5 -155 c 128,-1,61
 615 -163 615 -163 615 -172 c 0,62,63
 615 -187 615 -187 602.5 -198 c 128,-1,64
 590 -209 590 -209 560.5 -215 c 128,-1,65
 531 -221 531 -221 480 -221 c 0,66,67
 404 -221 404 -221 338.5 -202 c 128,-1,68
 273 -183 273 -183 220.5 -146.5 c 128,-1,69
 168 -110 168 -110 131 -58 c 128,-1,70
 94 -6 94 -6 74.5 60 c 128,-1,71
 55 126 55 126 55 204 c 0,72,73
 55 305 55 305 87.5 387.5 c 128,-1,74
 120 470 120 470 180.5 529 c 128,-1,75
 241 588 241 588 325.5 620 c 128,-1,76
 410 652 410 652 515 652 c 0,77,78
 613 652 613 652 691 624.5 c 128,-1,79
 769 597 769 597 823.5 546 c 128,-1,80
 878 495 878 495 907 424 c 128,-1,81
 936 353 936 353 936 266 c 0,82,83
 936 137 936 137 883 66 c 128,-1,84
 830 -5 830 -5 726 -5 c 0,85,86
 695 -5 695 -5 663.5 6 c 128,-1,87
 632 17 632 17 608 37 c 1,34,35
EndSplineSet
EndChar

StartChar: A
Encoding: 65 65 36
Width: 1147
Flags: W
LayerCount: 2
Fore
SplineSet
421 299 m 0,0,1
 457 299 457 299 480.5 275 c 128,-1,2
 504 251 504 251 504 215 c 256,3,4
 504 179 504 179 480.5 155.5 c 128,-1,5
 457 132 457 132 421 132 c 0,6,7
 384 132 384 132 359.5 155.5 c 128,-1,8
 335 179 335 179 335 215 c 256,9,10
 335 251 335 251 359.5 275 c 128,-1,11
 384 299 384 299 421 299 c 0,0,1
546 565 m 256,12,13
 461 565 461 565 397 530 c 128,-1,14
 333 495 333 495 297 431 c 128,-1,15
 261 367 261 367 261 278 c 0,16,17
 261 265 261 265 261.5 251 c 128,-1,18
 262 237 262 237 264 223 c 2,19,-1
 266 200 l 2,20,21
 271 167 271 167 290.5 136.5 c 128,-1,22
 310 106 310 106 343 86.5 c 128,-1,23
 376 67 376 67 421 67 c 0,24,25
 464 67 464 67 495 83.5 c 128,-1,26
 526 100 526 100 545.5 127 c 128,-1,27
 565 154 565 154 570 185 c 2,28,-1
 572 241 l 1,29,30
 568 291 568 291 531 326.5 c 128,-1,31
 494 362 494 362 438 362 c 0,32,33
 402 362 402 362 373 346 c 128,-1,34
 344 330 344 330 330 304 c 1,35,36
 335 365 335 365 364.5 408 c 128,-1,37
 394 451 394 451 440 474.5 c 128,-1,38
 486 498 486 498 539 498 c 0,39,40
 639 498 639 498 696.5 437.5 c 128,-1,41
 754 377 754 377 754 266 c 0,42,43
 754 250 754 250 753.5 234 c 128,-1,44
 753 218 753 218 752 205 c 1,45,-1
 826 205 l 1,46,47
 828 216 828 216 828.5 227 c 128,-1,48
 829 238 829 238 829 255 c 0,49,50
 829 351 829 351 793.5 420.5 c 128,-1,51
 758 490 758 490 694.5 527.5 c 128,-1,52
 631 565 631 565 546 565 c 256,12,13
750 183 m 1,53,54
 732 74 732 74 642.5 14 c 128,-1,55
 553 -46 553 -46 409 -46 c 0,56,57
 315 -46 315 -46 247.5 -26 c 128,-1,58
 180 -6 180 -6 143.5 28 c 128,-1,59
 107 62 107 62 107 104 c 0,60,61
 107 140 107 140 128.5 161 c 128,-1,62
 150 182 150 182 197 182 c 2,63,-1
 307 182 l 1,64,-1
 306 244 l 1,65,-1
 187 244 l 2,66,67
 111 244 111 244 70.5 207.5 c 128,-1,68
 30 171 30 171 30 110 c 0,69,70
 30 45 30 45 76.5 -5.5 c 128,-1,71
 123 -56 123 -56 207 -84.5 c 128,-1,72
 291 -113 291 -113 403 -113 c 0,73,74
 528 -113 528 -113 619.5 -76 c 128,-1,75
 711 -39 711 -39 764 27.5 c 128,-1,76
 817 94 817 94 826 183 c 1,77,-1
 750 183 l 1,53,54
512 245 m 1,78,-1
 512 182 l 1,79,-1
 995 182 l 1,80,-1
 995 245 l 1,81,-1
 512 245 l 1,78,-1
1017 559 m 0,82,83
 1010 559 1010 559 999.5 557.5 c 128,-1,84
 989 556 989 556 981 553 c 1,85,-1
 981 228 l 1,86,-1
 981 206 l 1,87,-1
 981 -61 l 2,88,89
 981 -99 981 -99 1021 -99 c 0,90,91
 1032 -99 1032 -99 1040.5 -97 c 128,-1,92
 1049 -95 1049 -95 1056 -93 c 1,93,-1
 1056 518 l 2,94,95
 1056 559 1056 559 1017 559 c 0,82,83
EndSplineSet
EndChar

StartChar: B
Encoding: 66 66 37
Width: 599
Flags: W
LayerCount: 2
Fore
SplineSet
420 349 m 1,0,-1
 420 283 l 1,1,-1
 145 283 l 1,2,-1
 145 349 l 1,3,-1
 420 349 l 1,0,-1
305 283 m 1,4,-1
 337 333 l 1,5,6
 405 333 405 333 450 310.5 c 128,-1,7
 495 288 495 288 517.5 251 c 128,-1,8
 540 214 540 214 540 168 c 0,9,10
 540 77 540 77 474.5 33 c 128,-1,11
 409 -11 409 -11 288 -11 c 0,12,13
 261 -11 261 -11 234 -9.5 c 128,-1,14
 207 -8 207 -8 181 -4 c 128,-1,15
 155 0 155 0 131 6 c 0,16,17
 89 18 89 18 89 52 c 2,18,-1
 89 564 l 2,19,20
 89 580 89 580 97.5 589 c 128,-1,21
 106 598 106 598 122 602 c 0,22,23
 156 612 156 612 194.5 615.5 c 128,-1,24
 233 619 233 619 277 619 c 0,25,26
 390 619 390 619 453 578.5 c 128,-1,27
 516 538 516 538 516 455 c 0,28,29
 516 413 516 413 495.5 377.5 c 128,-1,30
 475 342 475 342 429.5 320.5 c 128,-1,31
 384 299 384 299 308 299 c 1,32,-1
 299 349 l 1,33,34
 365 349 365 349 399 376.5 c 128,-1,35
 433 404 433 404 433 453 c 0,36,37
 433 503 433 503 393.5 527.5 c 128,-1,38
 354 552 354 552 277 552 c 0,39,40
 243 552 243 552 217 549.5 c 128,-1,41
 191 547 191 547 169 543 c 1,42,-1
 169 67 l 1,43,44
 193 62 193 62 224.5 59 c 128,-1,45
 256 56 256 56 288 56 c 0,46,47
 371 56 371 56 414 84 c 128,-1,48
 457 112 457 112 457 170 c 0,49,50
 457 222 457 222 418.5 252.5 c 128,-1,51
 380 283 380 283 305 283 c 1,4,-1
EndSplineSet
EndChar

StartChar: C
Encoding: 67 67 38
Width: 588
Flags: W
LayerCount: 2
Fore
SplineSet
336 142 m 1,0,-1
 284 142 l 1,1,-1
 284 484 l 1,2,-1
 336 484 l 1,3,-1
 336 339 l 1,4,5
 356 353 356 353 379.5 362.5 c 128,-1,6
 403 372 403 372 431 372 c 0,7,8
 454 372 454 372 471.5 366 c 128,-1,9
 489 360 489 360 500 350.5 c 128,-1,10
 511 341 511 341 516.5 327.5 c 128,-1,11
 522 314 522 314 522 298 c 2,12,-1
 522 142 l 1,13,-1
 470 142 l 1,14,-1
 470 287 l 2,15,16
 470 313 470 313 457 325 c 128,-1,17
 444 337 444 337 417 337 c 0,18,19
 397 337 397 337 376.5 328.5 c 128,-1,20
 356 320 356 320 336 306 c 1,21,-1
 336 142 l 1,0,-1
533 541 m 0,22,23
 533 528 533 528 524.5 517.5 c 128,-1,24
 516 507 516 507 505 502 c 1,25,26
 480 520 480 520 444.5 536 c 128,-1,27
 409 552 409 552 353 552 c 0,28,29
 292 552 292 552 243.5 524 c 128,-1,30
 195 496 195 496 166.5 440.5 c 128,-1,31
 138 385 138 385 138 303 c 0,32,33
 138 180 138 180 198.5 118 c 128,-1,34
 259 56 259 56 356 56 c 0,35,36
 408 56 408 56 447 71 c 128,-1,37
 486 86 486 86 511 105 c 1,38,39
 521 101 521 101 530 90.5 c 128,-1,40
 539 80 539 80 539 66 c 0,41,42
 539 56 539 56 533.5 46.5 c 128,-1,43
 528 37 528 37 515 28 c 0,44,45
 492 12 492 12 452 -0.5 c 128,-1,46
 412 -13 412 -13 350 -13 c 0,47,48
 267 -13 267 -13 199.5 22.5 c 128,-1,49
 132 58 132 58 93 128 c 128,-1,50
 54 198 54 198 54 303 c 256,51,52
 54 408 54 408 94.5 479 c 128,-1,53
 135 550 135 550 201.5 585.5 c 128,-1,54
 268 621 268 621 347 621 c 0,55,56
 402 621 402 621 444 609 c 128,-1,57
 486 597 486 597 509.5 578.5 c 128,-1,58
 533 560 533 560 533 541 c 0,22,23
EndSplineSet
EndChar

StartChar: D
Encoding: 68 68 39
Width: 652
Flags: W
LayerCount: 2
Fore
SplineSet
515 311 m 0,0,1
 515 186 515 186 455 121.5 c 128,-1,2
 395 57 395 57 278 57 c 0,3,4
 249 57 249 57 221.5 59 c 128,-1,5
 194 61 194 61 170 67 c 1,6,-1
 170 543 l 1,7,8
 190 547 190 547 214 549 c 128,-1,9
 238 551 238 551 269 551 c 0,10,11
 337 551 337 551 392.5 526.5 c 128,-1,12
 448 502 448 502 481.5 449.5 c 128,-1,13
 515 397 515 397 515 311 c 0,0,1
598 311 m 0,14,15
 598 414 598 414 556.5 482 c 128,-1,16
 515 550 515 550 441.5 584.5 c 128,-1,17
 368 619 368 619 270 619 c 0,18,19
 231 619 231 619 192 616 c 128,-1,20
 153 613 153 613 122 603 c 0,21,22
 106 598 106 598 97.5 589.5 c 128,-1,23
 89 581 89 581 89 565 c 2,24,-1
 89 51 l 2,25,26
 89 18 89 18 131 5 c 0,27,28
 167 -6 167 -6 207.5 -8.5 c 128,-1,29
 248 -11 248 -11 279 -11 c 0,30,31
 376 -11 376 -11 447.5 24 c 128,-1,32
 519 59 519 59 558.5 130.5 c 128,-1,33
 598 202 598 202 598 311 c 0,14,15
EndSplineSet
EndChar

StartChar: E
Encoding: 69 69 40
Width: 531
Flags: W
LayerCount: 2
Fore
SplineSet
89 366 m 1,0,-1
 170 366 l 1,1,-1
 170 8 l 1,2,3
 166 7 166 7 155 3.5 c 128,-1,4
 144 0 144 0 133 0 c 0,5,6
 113 0 113 0 101 12.5 c 128,-1,7
 89 25 89 25 89 44 c 2,8,-1
 89 366 l 1,0,-1
170 248 m 1,9,-1
 89 249 l 1,10,-1
 89 564 l 2,11,12
 89 584 89 584 101 596 c 128,-1,13
 113 608 113 608 133 608 c 0,14,15
 144 608 144 608 155 605 c 128,-1,16
 166 602 166 602 170 600 c 1,17,-1
 170 248 l 1,9,-1
133 278 m 1,18,-1
 133 346 l 1,19,-1
 434 346 l 1,20,21
 437 342 437 342 440 333 c 128,-1,22
 443 324 443 324 443 314 c 0,23,24
 443 298 443 298 435 288 c 128,-1,25
 427 278 427 278 412 278 c 2,26,-1
 133 278 l 1,18,-1
133 0 m 1,27,-1
 133 68 l 1,28,-1
 470 68 l 1,29,30
 473 64 473 64 476 55.5 c 128,-1,31
 479 47 479 47 479 36 c 0,32,33
 479 20 479 20 471 10 c 128,-1,34
 463 0 463 0 448 0 c 2,35,-1
 133 0 l 1,27,-1
133 539 m 1,36,-1
 133 608 l 1,37,-1
 465 608 l 1,38,39
 468 604 468 604 471 595 c 128,-1,40
 474 586 474 586 474 576 c 0,41,42
 474 560 474 560 466 549.5 c 128,-1,43
 458 539 458 539 443 539 c 2,44,-1
 133 539 l 1,36,-1
EndSplineSet
EndChar

StartChar: F
Encoding: 70 70 41
Width: 517
Flags: W
LayerCount: 2
Fore
SplineSet
170 246 m 1,0,-1
 89 247 l 1,1,-1
 89 564 l 2,2,3
 89 584 89 584 101 596 c 128,-1,4
 113 608 113 608 133 608 c 0,5,6
 144 608 144 608 155 605 c 128,-1,7
 166 602 166 602 170 600 c 1,8,-1
 170 246 l 1,0,-1
133 262 m 1,9,-1
 133 331 l 1,10,-1
 430 331 l 1,11,12
 433 326 433 326 436 317.5 c 128,-1,13
 439 309 439 309 439 299 c 0,14,15
 439 283 439 283 431 272.5 c 128,-1,16
 423 262 423 262 408 262 c 2,17,-1
 133 262 l 1,9,-1
133 539 m 1,18,-1
 133 608 l 1,19,-1
 465 608 l 1,20,21
 468 604 468 604 471 595 c 128,-1,22
 474 586 474 586 474 576 c 0,23,24
 474 560 474 560 466 549.5 c 128,-1,25
 458 539 458 539 443 539 c 2,26,-1
 133 539 l 1,18,-1
89 356 m 1,27,-1
 171 356 l 1,28,-1
 171 1 l 1,29,30
 166 0 166 0 155.5 -2.5 c 128,-1,31
 145 -5 145 -5 134 -5 c 0,32,33
 112 -5 112 -5 100.5 4 c 128,-1,34
 89 13 89 13 89 31 c 2,35,-1
 89 356 l 1,27,-1
EndSplineSet
EndChar

StartChar: G
Encoding: 71 71 42
Width: 639
Flags: W
LayerCount: 2
Fore
SplineSet
570 287 m 2,0,-1
 570 70 l 2,1,2
 570 52 570 52 559.5 39.5 c 128,-1,3
 549 27 549 27 528 17 c 0,4,5
 503 4 503 4 459 -4.5 c 128,-1,6
 415 -13 415 -13 370 -13 c 0,7,8
 277 -13 277 -13 205.5 21 c 128,-1,9
 134 55 134 55 94 125 c 128,-1,10
 54 195 54 195 54 303 c 0,11,12
 54 410 54 410 95.5 480.5 c 128,-1,13
 137 551 137 551 206 586 c 128,-1,14
 275 621 275 621 357 621 c 0,15,16
 414 621 414 621 457 609 c 128,-1,17
 500 597 500 597 524 579 c 128,-1,18
 548 561 548 561 548 542 c 0,19,20
 548 529 548 529 540 518.5 c 128,-1,21
 532 508 532 508 521 503 c 1,22,23
 494 521 494 521 457 536.5 c 128,-1,24
 420 552 420 552 362 552 c 0,25,26
 299 552 299 552 248 524 c 128,-1,27
 197 496 197 496 167.5 440.5 c 128,-1,28
 138 385 138 385 138 303 c 0,29,30
 138 217 138 217 168.5 162.5 c 128,-1,31
 199 108 199 108 252 82 c 128,-1,32
 305 56 305 56 371 56 c 0,33,34
 407 56 407 56 439 62 c 128,-1,35
 471 68 471 68 489 77 c 1,36,-1
 489 261 l 1,37,-1
 338 261 l 1,38,39
 335 266 335 266 332 274.5 c 128,-1,40
 329 283 329 283 329 293 c 0,41,42
 329 310 329 310 337 319.5 c 128,-1,43
 345 329 345 329 360 329 c 2,44,-1
 527 329 l 2,45,46
 545 329 545 329 557.5 317.5 c 128,-1,47
 570 306 570 306 570 287 c 2,0,-1
EndSplineSet
EndChar

StartChar: H
Encoding: 72 72 43
Width: 1577
Flags: W
LayerCount: 2
Fore
SplineSet
260 269 m 0,0,1
 305 269 305 269 333.5 240.5 c 128,-1,2
 362 212 362 212 363 166 c 0,3,4
 364 117 364 117 335.5 86.5 c 128,-1,5
 307 56 307 56 260 56 c 0,6,7
 214 56 214 56 184 86 c 128,-1,8
 154 116 154 116 154 165 c 0,9,10
 154 210 154 210 184 239.5 c 128,-1,11
 214 269 214 269 260 269 c 0,0,1
270 332 m 0,12,13
 229 332 229 332 195 314 c 128,-1,14
 161 296 161 296 140 265.5 c 128,-1,15
 119 235 119 235 116 197 c 1,16,-1
 53 254 l 1,17,18
 53 176 53 176 78 117 c 128,-1,19
 103 58 103 58 150.5 25.5 c 128,-1,20
 198 -7 198 -7 263 -7 c 0,21,22
 315 -7 315 -7 354 15 c 128,-1,23
 393 37 393 37 415 75.5 c 128,-1,24
 437 114 437 114 437 166 c 0,25,26
 437 240 437 240 391 286 c 128,-1,27
 345 332 345 332 270 332 c 0,12,13
372 565 m 0,28,29
 276 565 276 565 204.5 526 c 128,-1,30
 133 487 133 487 93 417.5 c 128,-1,31
 53 348 53 348 53 254 c 1,32,-1
 141 106 l 1,33,34
 129 144 129 144 123.5 176.5 c 128,-1,35
 118 209 118 209 118 249 c 0,36,37
 118 324 118 324 149.5 380 c 128,-1,38
 181 436 181 436 238 467 c 128,-1,39
 295 498 295 498 372 498 c 0,40,41
 441 498 441 498 491.5 469 c 128,-1,42
 542 440 542 440 570 387 c 128,-1,43
 598 334 598 334 598 263 c 0,44,45
 598 201 598 201 579.5 151 c 128,-1,46
 561 101 561 101 531 64 c 1,47,48
 532 37 532 37 548.5 18.5 c 128,-1,49
 565 0 565 0 597 0 c 2,50,-1
 773 0 l 1,51,-1
 773 64 l 1,52,-1
 614 64 l 1,53,54
 640 97 640 97 659 151.5 c 128,-1,55
 678 206 678 206 677 271 c 0,56,57
 676 360 676 360 637.5 426 c 128,-1,58
 599 492 599 492 531 528.5 c 128,-1,59
 463 565 463 565 372 565 c 0,28,29
1000 565 m 0,60,61
 924 565 924 565 878 517 c 128,-1,62
 832 469 832 469 832 389 c 2,63,-1
 832 64 l 1,64,-1
 704 64 l 1,65,-1
 704 0 l 1,66,-1
 861 0 l 2,67,68
 884 0 884 0 895.5 9 c 128,-1,69
 907 18 907 18 907 41 c 2,70,-1
 907 385 l 2,71,72
 907 438 907 438 933.5 468.5 c 128,-1,73
 960 499 960 499 1005 499 c 0,74,75
 1051 499 1051 499 1077.5 468.5 c 128,-1,76
 1104 438 1104 438 1104 385 c 2,77,-1
 1104 35 l 2,78,79
 1104 -3 1104 -3 1145 -3 c 0,80,81
 1156 -3 1156 -3 1164.5 -1 c 128,-1,82
 1173 1 1173 1 1179 3 c 1,83,-1
 1179 360 l 2,84,85
 1179 423 1179 423 1210 460.5 c 128,-1,86
 1241 498 1241 498 1292 498 c 0,87,88
 1357 498 1357 498 1397.5 439 c 128,-1,89
 1438 380 1438 380 1438 269 c 0,90,91
 1438 74 1438 74 1338.5 -26.5 c 128,-1,92
 1239 -127 1239 -127 1016 -127 c 2,93,-1
 376 -128 l 2,94,95
 307 -128 307 -128 238 -126.5 c 128,-1,96
 169 -125 169 -125 99 -126 c 0,97,98
 76 -126 76 -126 64.5 -135.5 c 128,-1,99
 53 -145 53 -145 53 -164 c 0,100,101
 53 -171 53 -171 55 -178.5 c 128,-1,102
 57 -186 57 -186 59 -194 c 1,103,-1
 1019 -194 l 2,104,105
 1267 -194 1267 -194 1391 -78.5 c 128,-1,106
 1515 37 1515 37 1515 269 c 0,107,108
 1515 363 1515 363 1487.5 429 c 128,-1,109
 1460 495 1460 495 1411 530 c 128,-1,110
 1362 565 1362 565 1296 565 c 0,111,112
 1244 565 1244 565 1204 538.5 c 128,-1,113
 1164 512 1164 512 1144 464 c 1,114,115
 1127 511 1127 511 1089.5 538 c 128,-1,116
 1052 565 1052 565 1000 565 c 0,60,61
EndSplineSet
EndChar

StartChar: I
Encoding: 73 73 44
Width: 262
Flags: W
LayerCount: 2
Fore
SplineSet
90 363 m 1,0,-1
 171 363 l 1,1,-1
 171 2 l 1,2,3
 166 0 166 0 156 -2.5 c 128,-1,4
 146 -5 146 -5 134 -5 c 0,5,6
 112 -5 112 -5 101 4 c 128,-1,7
 90 13 90 13 90 32 c 2,8,-1
 90 363 l 1,0,-1
171 296 m 1,9,-1
 90 296 l 1,10,-1
 90 606 l 1,11,12
 95 608 95 608 105.5 610.5 c 128,-1,13
 116 613 116 613 128 613 c 0,14,15
 150 613 150 613 160.5 604.5 c 128,-1,16
 171 596 171 596 171 576 c 2,17,-1
 171 296 l 1,9,-1
EndSplineSet
EndChar

StartChar: J
Encoding: 74 74 45
Width: 504
Flags: W
LayerCount: 2
Fore
SplineSet
404 341 m 2,0,1
 415 341 415 341 423.5 333.5 c 128,-1,2
 432 326 432 326 432 308 c 0,3,4
 432 298 432 298 429 290.5 c 128,-1,5
 426 283 426 283 424 276 c 1,6,-1
 84 276 l 1,7,8
 81 283 81 283 78.5 290.5 c 128,-1,9
 76 298 76 298 76 308 c 0,10,11
 76 326 76 326 84 333.5 c 128,-1,12
 92 341 92 341 105 341 c 2,13,-1
 404 341 l 2,0,1
344 385 m 0,14,15
 344 362 344 362 347.5 326 c 128,-1,16
 351 290 351 290 355 251.5 c 128,-1,17
 359 213 359 213 359 186 c 0,18,19
 359 114 359 114 331.5 69.5 c 128,-1,20
 304 25 304 25 258 4 c 128,-1,21
 212 -17 212 -17 157 -17 c 0,22,23
 92 -17 92 -17 61 3.5 c 128,-1,24
 30 24 30 24 30 44 c 0,25,26
 30 52 30 52 35.5 63.5 c 128,-1,27
 41 75 41 75 53 82 c 1,28,29
 75 67 75 67 97.5 59 c 128,-1,30
 120 51 120 51 152 51 c 0,31,32
 216 51 216 51 247.5 87 c 128,-1,33
 279 123 279 123 279 197 c 0,34,35
 279 223 279 223 275.5 260 c 128,-1,36
 272 297 272 297 269 331.5 c 128,-1,37
 266 366 266 366 266 387 c 0,38,39
 266 440 266 440 280 477 c 128,-1,40
 294 514 294 514 321 538 c 1,41,-1
 28 538 l 1,42,43
 24 545 24 545 22 552.5 c 128,-1,44
 20 560 20 560 20 571 c 0,45,46
 20 587 20 587 28 595.5 c 128,-1,47
 36 604 36 604 49 604 c 2,48,-1
 389 604 l 2,49,50
 408 604 408 604 421.5 592.5 c 128,-1,51
 435 581 435 581 435 559 c 0,52,53
 435 550 435 550 434 544 c 1,54,55
 389 521 389 521 366.5 488 c 128,-1,56
 344 455 344 455 344 385 c 0,14,15
EndSplineSet
EndChar

StartChar: K
Encoding: 75 75 46
Width: 487
Flags: W
LayerCount: 2
Fore
SplineSet
198 211 m 1,0,-1
 148 250 l 1,1,-1
 376 471 l 1,2,3
 400 470 400 470 413.5 459.5 c 128,-1,4
 427 449 427 449 427 432 c 0,5,6
 427 418 427 418 418.5 407 c 128,-1,7
 410 396 410 396 394 383 c 2,8,-1
 198 211 l 1,0,-1
146 237 m 1,9,-1
 202 270 l 1,10,-1
 456 42 l 1,11,12
 454 20 454 20 442.5 7 c 128,-1,13
 431 -6 431 -6 412 -6 c 0,14,15
 397 -6 397 -6 384.5 2 c 128,-1,16
 372 10 372 10 359 23 c 2,17,-1
 146 237 l 1,9,-1
77 268 m 1,18,-1
 157 256 l 1,19,-1
 157 2 l 1,20,21
 152 0 152 0 142 -2.5 c 128,-1,22
 132 -5 132 -5 120 -5 c 0,23,24
 99 -5 99 -5 88 3.5 c 128,-1,25
 77 12 77 12 77 31 c 2,26,-1
 77 268 l 1,18,-1
157 217 m 1,27,-1
 77 229 l 1,28,-1
 77 648 l 1,29,30
 82 650 82 650 92.5 652.5 c 128,-1,31
 103 655 103 655 115 655 c 0,32,33
 136 655 136 655 146.5 646.5 c 128,-1,34
 157 638 157 638 157 619 c 2,35,-1
 157 217 l 1,27,-1
EndSplineSet
EndChar

StartChar: L
Encoding: 76 76 47
Width: 504
Flags: W
LayerCount: 2
Fore
SplineSet
85 263 m 2,0,1
 74 263 74 263 65.5 270.5 c 128,-1,2
 57 278 57 278 57 296 c 0,3,4
 57 306 57 306 60 313.5 c 128,-1,5
 63 321 63 321 65 328 c 1,6,-1
 405 328 l 1,7,8
 408 321 408 321 410.5 313.5 c 128,-1,9
 413 306 413 306 413 296 c 0,10,11
 413 278 413 278 405 270.5 c 128,-1,12
 397 263 397 263 384 263 c 2,13,-1
 85 263 l 2,0,1
145 219 m 0,14,15
 145 242 145 242 141.5 278 c 128,-1,16
 138 314 138 314 134 352.5 c 128,-1,17
 130 391 130 391 130 418 c 0,18,19
 130 490 130 490 157.5 534.5 c 128,-1,20
 185 579 185 579 231 600 c 128,-1,21
 277 621 277 621 332 621 c 0,22,23
 397 621 397 621 428 600.5 c 128,-1,24
 459 580 459 580 459 560 c 0,25,26
 459 552 459 552 453.5 540.5 c 128,-1,27
 448 529 448 529 436 522 c 1,28,29
 414 537 414 537 391.5 545 c 128,-1,30
 369 553 369 553 337 553 c 0,31,32
 273 553 273 553 241.5 517 c 128,-1,33
 210 481 210 481 210 407 c 0,34,35
 210 381 210 381 213.5 344 c 128,-1,36
 217 307 217 307 220 272.5 c 128,-1,37
 223 238 223 238 223 217 c 0,38,39
 223 164 223 164 209 127 c 128,-1,40
 195 90 195 90 168 66 c 1,41,-1
 461 66 l 1,42,43
 465 59 465 59 467 51.5 c 128,-1,44
 469 44 469 44 469 33 c 0,45,46
 469 17 469 17 461 8.5 c 128,-1,47
 453 0 453 0 440 0 c 2,48,-1
 100 0 l 2,49,50
 81 0 81 0 67.5 11.5 c 128,-1,51
 54 23 54 23 54 45 c 0,52,53
 54 54 54 54 55 60 c 1,54,55
 100 83 100 83 122.5 116 c 128,-1,56
 145 149 145 149 145 219 c 0,14,15
EndSplineSet
EndChar

StartChar: M
Encoding: 77 77 48
Width: 780
Flags: W
LayerCount: 2
Fore
SplineSet
435 158 m 1,0,1
 428 153 428 153 416.5 149 c 128,-1,2
 405 145 405 145 391 145 c 0,3,4
 375 145 375 145 362.5 150 c 128,-1,5
 350 155 350 155 345 166 c 0,6,7
 292 278 292 278 252.5 371 c 128,-1,8
 213 464 213 464 189 525 c 1,9,-1
 185 525 l 1,10,11
 182 450 182 450 178.5 385 c 128,-1,12
 175 320 175 320 171 259.5 c 128,-1,13
 167 199 167 199 163.5 135.5 c 128,-1,14
 160 72 160 72 155 0 c 1,15,16
 149 -2 149 -2 139.5 -4 c 128,-1,17
 130 -6 130 -6 119 -6 c 0,18,19
 97 -6 97 -6 88 3.5 c 128,-1,20
 79 13 79 13 79 29 c 0,21,22
 79 41 79 41 81.5 84.5 c 128,-1,23
 84 128 84 128 87.5 191 c 128,-1,24
 91 254 91 254 96 325.5 c 128,-1,25
 101 397 101 397 106.5 466.5 c 128,-1,26
 112 536 112 536 117 592 c 1,27,28
 125 599 125 599 140 605 c 128,-1,29
 155 611 155 611 174 611 c 0,30,31
 197 611 197 611 213 602 c 128,-1,32
 229 593 229 593 238 574 c 0,33,34
 264 523 264 523 290 463 c 128,-1,35
 316 403 316 403 341 343 c 128,-1,36
 366 283 366 283 389 230 c 1,37,-1
 393 230 l 1,38,39
 437 336 437 336 480.5 434 c 128,-1,40
 524 532 524 532 554 601 c 1,41,42
 563 606 563 606 577 608.5 c 128,-1,43
 591 611 591 611 603 611 c 0,44,45
 626 611 626 611 639.5 603.5 c 128,-1,46
 653 596 653 596 657 579 c 256,47,48
 661 562 661 562 666 521 c 128,-1,49
 671 480 671 480 676 424.5 c 128,-1,50
 681 369 681 369 685.5 308 c 128,-1,51
 690 247 690 247 694 188 c 128,-1,52
 698 129 698 129 701.5 81.5 c 128,-1,53
 705 34 705 34 706 6 c 1,54,55
 697 0 697 0 687 -3 c 128,-1,56
 677 -6 677 -6 664 -6 c 0,57,58
 649 -6 649 -6 637.5 1.5 c 128,-1,59
 626 9 626 9 624 29 c 0,60,61
 618 126 618 126 612.5 220.5 c 128,-1,62
 607 315 607 315 603 394 c 128,-1,63
 599 473 599 473 596 523 c 1,64,-1
 592 523 l 1,65,66
 570 468 570 468 532 381.5 c 128,-1,67
 494 295 494 295 435 158 c 1,0,1
EndSplineSet
EndChar

StartChar: N
Encoding: 78 78 49
Width: 660
Flags: W
LayerCount: 2
Fore
SplineSet
89 539 m 1,0,-1
 157 545 l 1,1,2
 161 514 161 514 164 472 c 128,-1,3
 167 430 167 430 168.5 385.5 c 128,-1,4
 170 341 170 341 170 301 c 2,5,-1
 170 2 l 1,6,7
 165 0 165 0 154.5 -2.5 c 128,-1,8
 144 -5 144 -5 133 -5 c 0,9,10
 111 -5 111 -5 100 3.5 c 128,-1,11
 89 12 89 12 89 31 c 2,12,-1
 89 539 l 1,0,-1
571 69 m 1,13,-1
 502 63 l 1,14,15
 492 147 492 147 490.5 234.5 c 128,-1,16
 489 322 489 322 489 404 c 2,17,-1
 489 606 l 1,18,19
 495 608 495 608 505 610.5 c 128,-1,20
 515 613 515 613 527 613 c 0,21,22
 549 613 549 613 560 604.5 c 128,-1,23
 571 596 571 596 571 577 c 2,24,-1
 571 69 l 1,13,-1
571 99 m 1,25,-1
 571 11 l 1,26,27
 562 4 562 4 548 -1 c 128,-1,28
 534 -6 534 -6 517 -6 c 0,29,30
 493 -6 493 -6 476 3.5 c 128,-1,31
 459 13 459 13 445 38 c 2,32,-1
 255 358 l 2,33,34
 240 385 240 385 222 417.5 c 128,-1,35
 204 450 204 450 188 479.5 c 128,-1,36
 172 509 172 509 163 528 c 1,37,-1
 89 509 l 1,38,-1
 89 596 l 1,39,40
 97 604 97 604 111.5 609 c 128,-1,41
 126 614 126 614 143 614 c 0,42,43
 167 614 167 614 184 604.5 c 128,-1,44
 201 595 201 595 215 570 c 2,45,-1
 406 250 l 2,46,47
 422 223 422 223 439.5 190.5 c 128,-1,48
 457 158 457 158 472 128.5 c 128,-1,49
 487 99 487 99 496 80 c 1,50,-1
 571 99 l 1,25,-1
EndSplineSet
EndChar

StartChar: O
Encoding: 79 79 50
Width: 689
Flags: W
LayerCount: 2
Fore
SplineSet
634 304 m 256,0,1
 634 200 634 200 596 129.5 c 128,-1,2
 558 59 558 59 492.5 23 c 128,-1,3
 427 -13 427 -13 344 -13 c 0,4,5
 262 -13 262 -13 196 23 c 128,-1,6
 130 59 130 59 92 129.5 c 128,-1,7
 54 200 54 200 54 304 c 256,8,9
 54 408 54 408 93 478.5 c 128,-1,10
 132 549 132 549 197.5 585 c 128,-1,11
 263 621 263 621 344 621 c 0,12,13
 426 621 426 621 491.5 585 c 128,-1,14
 557 549 557 549 595.5 478.5 c 128,-1,15
 634 408 634 408 634 304 c 256,0,1
551 304 m 256,16,17
 551 423 551 423 494.5 487.5 c 128,-1,18
 438 552 438 552 344 552 c 0,19,20
 251 552 251 552 194.5 487.5 c 128,-1,21
 138 423 138 423 138 304 c 256,22,23
 138 185 138 185 194 120.5 c 128,-1,24
 250 56 250 56 344 56 c 0,25,26
 439 56 439 56 495 120.5 c 128,-1,27
 551 185 551 185 551 304 c 256,16,17
EndSplineSet
EndChar

StartChar: P
Encoding: 80 80 51
Width: 567
Flags: W
LayerCount: 2
Fore
SplineSet
170 285 m 1,0,-1
 267 285 l 2,1,2
 347 285 347 285 391 318.5 c 128,-1,3
 435 352 435 352 435 420 c 256,4,5
 435 488 435 488 392.5 519.5 c 128,-1,6
 350 551 350 551 271 551 c 0,7,8
 244 551 244 551 217.5 548.5 c 128,-1,9
 191 546 191 546 170 542 c 1,10,-1
 170 285 l 1,0,-1
272 217 m 2,11,-1
 89 217 l 1,12,-1
 89 564 l 2,13,14
 89 580 89 580 97.5 588.5 c 128,-1,15
 106 597 106 597 122 602 c 0,16,17
 151 611 151 611 192.5 615 c 128,-1,18
 234 619 234 619 273 619 c 0,19,20
 400 619 400 619 458.5 565.5 c 128,-1,21
 517 512 517 512 517 421 c 0,22,23
 517 359 517 359 490.5 313 c 128,-1,24
 464 267 464 267 410 242 c 128,-1,25
 356 217 356 217 272 217 c 2,11,-1
89 256 m 1,26,-1
 171 256 l 1,27,-1
 171 2 l 1,28,29
 165 0 165 0 155 -2.5 c 128,-1,30
 145 -5 145 -5 133 -5 c 0,31,32
 111 -5 111 -5 100 4 c 128,-1,33
 89 13 89 13 89 32 c 2,34,-1
 89 256 l 1,26,-1
EndSplineSet
EndChar

StartChar: Q
Encoding: 81 81 52
Width: 680
Flags: W
LayerCount: 2
Fore
SplineSet
558 -7 m 1,0,1
 538 -7 538 -7 519 0 c 128,-1,2
 500 7 500 7 486 24 c 1,3,-1
 486 197 l 1,4,5
 458 172 458 172 421 156.5 c 128,-1,6
 384 141 384 141 334 141 c 0,7,8
 292 141 292 141 243 164 c 128,-1,9
 194 187 194 187 152 224 c 128,-1,10
 110 261 110 261 82 307 c 128,-1,11
 54 353 54 353 54 399 c 0,12,13
 54 447 54 447 71.5 484 c 128,-1,14
 89 521 89 521 119 546.5 c 128,-1,15
 149 572 149 572 189.5 585 c 128,-1,16
 230 598 230 598 276 598 c 0,17,18
 310 598 310 598 340 590 c 0,19,20
 389 577 389 577 396 568.5 c 0,21,22
 431 528 431 528 444.5 537.5 c 0,23,24
 448 540 448 540 486 624 c 1,25,-1
 484 623 l 1,26,-1
 560 623 l 2,27,-1
 558 -7 l 1,0,1
277 198 m 0,28,29
 315 198 315 198 351 210.5 c 128,-1,30
 387 223 387 223 417 246 c 1,31,-1
 184 486 l 1,32,33
 157 462 157 462 142 427.5 c 128,-1,34
 127 393 127 393 127 348 c 0,35,36
 127 312 127 312 138.5 284 c 128,-1,37
 150 256 150 256 170 237 c 128,-1,38
 190 218 190 218 217.5 208 c 128,-1,39
 245 198 245 198 277 198 c 0,28,29
486 477 m 1,40,41
 451 504 451 504 413.5 519.5 c 128,-1,42
 376 535 376 535 327 535 c 0,43,44
 255 535 255 535 204 502 c 1,45,-1
 435 262 l 1,46,47
 451 277 451 277 464 295 c 128,-1,48
 477 313 477 313 486 333 c 1,49,-1
 486 477 l 1,40,41
EndSplineSet
EndChar

StartChar: R
Encoding: 82 82 53
Width: 589
Flags: W
LayerCount: 2
Fore
SplineSet
170 298 m 1,0,-1
 285 298 l 2,1,2
 359 298 359 298 401 330 c 128,-1,3
 443 362 443 362 443 425 c 0,4,5
 443 487 443 487 399 519 c 128,-1,6
 355 551 355 551 273 551 c 0,7,8
 246 551 246 551 218.5 548.5 c 128,-1,9
 191 546 191 546 170 542 c 1,10,-1
 170 298 l 1,0,-1
285 230 m 2,11,-1
 89 230 l 1,12,-1
 89 564 l 2,13,14
 89 580 89 580 97.5 588.5 c 128,-1,15
 106 597 106 597 122 602 c 0,16,17
 151 611 151 611 193.5 615 c 128,-1,18
 236 619 236 619 276 619 c 0,19,20
 401 619 401 619 463 568 c 128,-1,21
 525 517 525 517 525 425 c 0,22,23
 525 366 525 366 498 322 c 128,-1,24
 471 278 471 278 418 254 c 128,-1,25
 365 230 365 230 285 230 c 2,11,-1
287 256 m 1,26,-1
 347 286 l 1,27,28
 375 251 375 251 405 213 c 128,-1,29
 435 175 435 175 463 139 c 128,-1,30
 491 103 491 103 513 74.5 c 128,-1,31
 535 46 535 46 547 30 c 1,32,33
 543 13 543 13 529.5 3 c 128,-1,34
 516 -7 516 -7 502 -7 c 0,35,36
 485 -7 485 -7 474 1.5 c 128,-1,37
 463 10 463 10 451 26 c 2,38,-1
 287 256 l 1,26,-1
89 252 m 1,39,-1
 171 252 l 1,40,-1
 171 2 l 1,41,42
 165 0 165 0 155 -2.5 c 128,-1,43
 145 -5 145 -5 133 -5 c 0,44,45
 111 -5 111 -5 100 4 c 128,-1,46
 89 13 89 13 89 32 c 2,47,-1
 89 252 l 1,39,-1
EndSplineSet
EndChar

StartChar: S
Encoding: 83 83 54
Width: 523
Flags: W
LayerCount: 2
Fore
SplineSet
257 55 m 0,0,1
 324 55 324 55 358.5 85.5 c 128,-1,2
 393 116 393 116 393 164 c 0,3,4
 393 205 393 205 366.5 232 c 128,-1,5
 340 259 340 259 283 275 c 2,6,-1
 196 301 l 2,7,8
 154 314 154 314 123 334.5 c 128,-1,9
 92 355 92 355 75.5 385.5 c 128,-1,10
 59 416 59 416 59 457 c 0,11,12
 59 534 59 534 115 577.5 c 128,-1,13
 171 621 171 621 264 621 c 0,14,15
 318 621 318 621 360.5 609.5 c 128,-1,16
 403 598 403 598 427.5 580 c 128,-1,17
 452 562 452 562 452 542 c 0,18,19
 452 529 452 529 445 518.5 c 128,-1,20
 438 508 438 508 427 502 c 1,21,22
 402 522 402 522 359.5 537 c 128,-1,23
 317 552 317 552 267 552 c 0,24,25
 209 552 209 552 175 526.5 c 128,-1,26
 141 501 141 501 141 457 c 0,27,28
 141 422 141 422 165.5 400 c 128,-1,29
 190 378 190 378 245 362 c 2,30,-1
 306 344 l 2,31,32
 385 322 385 322 430.5 280 c 128,-1,33
 476 238 476 238 476 164 c 0,34,35
 476 85 476 85 418.5 36 c 128,-1,36
 361 -13 361 -13 257 -13 c 0,37,38
 196 -13 196 -13 150.5 0.5 c 128,-1,39
 105 14 105 14 79.5 34.5 c 128,-1,40
 54 55 54 55 54 75 c 0,41,42
 54 92 54 92 64.5 103.5 c 128,-1,43
 75 115 75 115 89 120 c 1,44,45
 112 98 112 98 154 76.5 c 128,-1,46
 196 55 196 55 257 55 c 0,0,1
EndSplineSet
EndChar

StartChar: T
Encoding: 84 84 55
Width: 740
Flags: W
LayerCount: 2
Fore
SplineSet
640 555 m 1,0,1
 642 548 642 548 643.5 541.5 c 128,-1,2
 645 535 645 535 645 528 c 0,3,4
 645 512 645 512 634.5 502.5 c 128,-1,5
 624 493 624 493 602 493 c 2,6,-1
 222 493 l 1,7,-1
 222 295 l 1,8,-1
 150 294 l 1,9,-1
 150 500 l 2,10,11
 150 526 150 526 163 540.5 c 128,-1,12
 176 555 176 555 200 555 c 2,13,-1
 640 555 l 1,0,1
391 524 m 1,14,-1
 463 524 l 1,15,-1
 463 319 l 1,16,-1
 463 295 l 1,17,-1
 463 201 l 2,18,19
 463 106 463 106 402 49.5 c 128,-1,20
 341 -7 341 -7 237 -7 c 0,21,22
 145 -7 145 -7 89.5 39 c 128,-1,23
 34 85 34 85 34 161 c 0,24,25
 34 222 34 222 68.5 266 c 128,-1,26
 103 310 103 310 164 325 c 0,27,28
 179 329 179 329 201.5 331.5 c 128,-1,29
 224 334 224 334 249.5 335.5 c 128,-1,30
 275 337 275 337 300 337 c 0,31,32
 323 337 323 337 360.5 337 c 128,-1,33
 398 337 398 337 429 336 c 1,34,-1
 409 275 l 1,35,36
 390 275 390 275 356.5 275 c 128,-1,37
 323 275 323 275 273 275 c 0,38,39
 235 275 235 275 206.5 270.5 c 128,-1,40
 178 266 178 266 155 253 c 0,41,42
 133 239 133 239 120 216.5 c 128,-1,43
 107 194 107 194 107 164 c 0,44,45
 107 115 107 115 143.5 86 c 128,-1,46
 180 57 180 57 239 57 c 0,47,48
 310 57 310 57 350.5 97.5 c 128,-1,49
 391 138 391 138 391 208 c 2,50,-1
 391 294 l 1,51,-1
 391 524 l 1,14,-1
432 336 m 1,52,-1
 468 335 l 2,53,54
 543 331 543 331 596 302 c 128,-1,55
 649 273 649 273 677 222.5 c 128,-1,56
 705 172 705 172 705 102 c 0,57,58
 705 8 705 8 657.5 -58 c 128,-1,59
 610 -124 610 -124 520 -159 c 128,-1,60
 430 -194 430 -194 301 -194 c 2,61,-1
 39 -194 l 1,62,63
 37 -186 37 -186 35.5 -178.5 c 128,-1,64
 34 -171 34 -171 34 -164 c 0,65,66
 34 -145 34 -145 45 -135 c 128,-1,67
 56 -125 56 -125 79 -125 c 0,68,69
 134 -125 134 -125 188.5 -126 c 128,-1,70
 243 -127 243 -127 298 -127 c 0,71,72
 455 -127 455 -127 540.5 -65.5 c 128,-1,73
 626 -4 626 -4 626 107 c 0,74,75
 626 184 626 184 583 226 c 128,-1,76
 540 268 540 268 469 271 c 2,77,-1
 416 273 l 1,78,-1
 432 336 l 1,52,-1
EndSplineSet
EndChar

StartChar: U
Encoding: 85 85 56
Width: 649
Flags: W
LayerCount: 2
Fore
SplineSet
324 -13 m 0,0,1
 249 -13 249 -13 196 14.5 c 128,-1,2
 143 42 143 42 115.5 92.5 c 128,-1,3
 88 143 88 143 88 210 c 2,4,-1
 88 292 l 1,5,-1
 169 292 l 1,6,-1
 169 217 l 2,7,8
 169 137 169 137 213.5 96.5 c 128,-1,9
 258 56 258 56 324 56 c 256,10,11
 390 56 390 56 434.5 96.5 c 128,-1,12
 479 137 479 137 479 217 c 2,13,-1
 479 292 l 1,14,-1
 561 292 l 1,15,-1
 561 210 l 2,16,17
 561 143 561 143 533.5 92.5 c 128,-1,18
 506 42 506 42 453 14.5 c 128,-1,19
 400 -13 400 -13 324 -13 c 0,0,1
169 251 m 1,20,-1
 88 251 l 1,21,-1
 88 606 l 1,22,23
 93 608 93 608 103.5 610.5 c 128,-1,24
 114 613 114 613 126 613 c 0,25,26
 148 613 148 613 158.5 604.5 c 128,-1,27
 169 596 169 596 169 576 c 2,28,-1
 169 251 l 1,20,-1
561 251 m 1,29,-1
 479 251 l 1,30,-1
 479 606 l 1,31,32
 484 608 484 608 494.5 610.5 c 128,-1,33
 505 613 505 613 517 613 c 0,34,35
 539 613 539 613 550 604.5 c 128,-1,36
 561 596 561 596 561 576 c 2,37,-1
 561 251 l 1,29,-1
EndSplineSet
EndChar

StartChar: V
Encoding: 86 86 57
Width: 583
Flags: W
LayerCount: 2
Fore
SplineSet
347 8 m 0,0,1
 342 4 342 4 328 -0.5 c 128,-1,2
 314 -5 314 -5 297 -5 c 0,3,4
 278 -5 278 -5 263 0.5 c 128,-1,5
 248 6 248 6 243 17 c 0,6,7
 227 48 227 48 205.5 100 c 128,-1,8
 184 152 184 152 159.5 216.5 c 128,-1,9
 135 281 135 281 111 348.5 c 128,-1,10
 87 416 87 416 66.5 479.5 c 128,-1,11
 46 543 46 543 31 592 c 1,12,13
 37 600 37 600 49 607 c 128,-1,14
 61 614 61 614 76 614 c 0,15,16
 95 614 95 614 104 605 c 128,-1,17
 113 596 113 596 119 578 c 0,18,19
 163 448 163 448 204.5 325 c 128,-1,20
 246 202 246 202 295 77 c 1,21,-1
 299 77 l 1,22,23
 328 153 328 153 359.5 241.5 c 128,-1,24
 391 330 391 330 420.5 424 c 128,-1,25
 450 518 450 518 473 607 c 1,26,27
 480 611 480 611 488.5 612.5 c 128,-1,28
 497 614 497 614 507 614 c 0,29,30
 525 614 525 614 536 605 c 128,-1,31
 547 596 547 596 547 578 c 0,32,33
 547 563 547 563 536 522 c 128,-1,34
 525 481 525 481 506.5 425 c 128,-1,35
 488 369 488 369 466 307 c 128,-1,36
 444 245 444 245 421 185.5 c 128,-1,37
 398 126 398 126 379 79.5 c 128,-1,38
 360 33 360 33 347 8 c 0,0,1
EndSplineSet
EndChar

StartChar: W
Encoding: 87 87 58
Width: 803
Flags: W
LayerCount: 2
Fore
SplineSet
359 457 m 1,0,1
 367 461 367 461 379 464 c 128,-1,2
 391 467 391 467 404 467 c 0,3,4
 424 467 424 467 437.5 460.5 c 128,-1,5
 451 454 451 454 455 441 c 0,6,7
 480 369 480 369 500.5 307.5 c 128,-1,8
 521 246 521 246 539.5 188.5 c 128,-1,9
 558 131 558 131 577 70 c 1,10,-1
 581 70 l 1,11,12
 600 160 600 160 618 245.5 c 128,-1,13
 636 331 636 331 653 419 c 128,-1,14
 670 507 670 507 684 607 c 1,15,16
 698 614 698 614 718 614 c 0,17,18
 737 614 737 614 748 605.5 c 128,-1,19
 759 597 759 597 759 580 c 0,20,21
 759 561 759 561 753.5 522.5 c 128,-1,22
 748 484 748 484 738.5 432.5 c 128,-1,23
 729 381 729 381 716.5 323.5 c 128,-1,24
 704 266 704 266 690 208.5 c 128,-1,25
 676 151 676 151 662 100 c 128,-1,26
 648 49 648 49 635 11 c 1,27,28
 626 6 626 6 612 1.5 c 128,-1,29
 598 -3 598 -3 580 -3 c 0,30,31
 558 -3 558 -3 543 4 c 128,-1,32
 528 11 528 11 523 23 c 0,33,34
 509 58 509 58 489 115.5 c 128,-1,35
 469 173 469 173 447.5 241.5 c 128,-1,36
 426 310 426 310 406 377 c 1,37,38
 387 311 387 311 365 240 c 128,-1,39
 343 169 343 169 322.5 108 c 128,-1,40
 302 47 302 47 286 10 c 1,41,42
 279 6 279 6 264.5 1.5 c 128,-1,43
 250 -3 250 -3 232 -3 c 0,44,45
 210 -3 210 -3 195.5 4.5 c 128,-1,46
 181 12 181 12 176 23 c 0,47,48
 166 48 166 48 151.5 98 c 128,-1,49
 137 148 137 148 121 212.5 c 128,-1,50
 105 277 105 277 89.5 346.5 c 128,-1,51
 74 416 74 416 60.5 480.5 c 128,-1,52
 47 545 47 545 39 595 c 1,53,54
 46 602 46 602 58 608 c 128,-1,55
 70 614 70 614 84 614 c 0,56,57
 102 614 102 614 112 605.5 c 128,-1,58
 122 597 122 597 126 577 c 0,59,60
 139 514 139 514 151 455 c 128,-1,61
 163 396 163 396 175.5 336 c 128,-1,62
 188 276 188 276 202 210.5 c 128,-1,63
 216 145 216 145 233 70 c 1,64,-1
 237 70 l 1,65,66
 251 115 251 115 264 156 c 128,-1,67
 277 197 277 197 291 240.5 c 128,-1,68
 305 284 305 284 321.5 336 c 128,-1,69
 338 388 338 388 359 457 c 1,0,1
EndSplineSet
EndChar

StartChar: X
Encoding: 88 88 59
Width: 591
Flags: W
LayerCount: 2
Fore
SplineSet
268 289 m 1,0,-1
 254 295 l 1,1,-1
 49 574 l 1,2,3
 54 591 54 591 66 602.5 c 128,-1,4
 78 614 78 614 97 614 c 0,5,6
 113 614 113 614 124 604.5 c 128,-1,7
 135 595 135 595 147 578 c 2,8,-1
 311 343 l 1,9,-1
 334 323 l 1,10,-1
 544 32 l 1,11,12
 540 15 540 15 528.5 4 c 128,-1,13
 517 -7 517 -7 498 -7 c 0,14,15
 482 -7 482 -7 471.5 1 c 128,-1,16
 461 9 461 9 449 27 c 2,17,-1
 268 289 l 1,0,-1
336 301 m 1,18,-1
 314 281 l 1,19,-1
 109 -5 l 2,20,21
 105 -6 105 -6 99.5 -6.5 c 128,-1,22
 94 -7 94 -7 89 -7 c 0,23,24
 69 -7 69 -7 57 3 c 128,-1,25
 45 13 45 13 45 29 c 0,26,27
 45 42 45 42 51.5 53.5 c 128,-1,28
 58 65 58 65 68 78 c 2,29,-1
 255 323 l 1,30,-1
 282 348 l 1,31,-1
 472 611 l 2,32,33
 477 612 477 612 482 612.5 c 128,-1,34
 487 613 487 613 493 613 c 0,35,36
 514 613 514 613 524.5 603 c 128,-1,37
 535 593 535 593 535 578 c 0,38,39
 535 568 535 568 529.5 557 c 128,-1,40
 524 546 524 546 516 535 c 0,41,42
 473 477 473 477 428 418.5 c 128,-1,43
 383 360 383 360 336 301 c 1,18,-1
EndSplineSet
EndChar

StartChar: Y
Encoding: 89 89 60
Width: 550
Flags: W
LayerCount: 2
Fore
SplineSet
314 218 m 1,0,-1
 243 218 l 1,1,2
 215 260 215 260 184.5 306.5 c 128,-1,3
 154 353 154 353 124.5 401 c 128,-1,4
 95 449 95 449 68.5 495.5 c 128,-1,5
 42 542 42 542 21 582 c 1,6,7
 25 593 25 593 36 603.5 c 128,-1,8
 47 614 47 614 65 614 c 0,9,10
 84 614 84 614 94.5 604 c 128,-1,11
 105 594 105 594 116 574 c 0,12,13
 132 546 132 546 153.5 508.5 c 128,-1,14
 175 471 175 471 198 431 c 128,-1,15
 221 391 221 391 241.5 355 c 128,-1,16
 262 319 262 319 277 295 c 1,17,-1
 281 295 l 1,18,19
 316 353 316 353 345 405 c 128,-1,20
 374 457 374 457 401 507 c 128,-1,21
 428 557 428 557 454 607 c 0,22,23
 460 611 460 611 469 612.5 c 128,-1,24
 478 614 478 614 485 614 c 0,25,26
 504 614 504 614 513.5 605 c 128,-1,27
 523 596 523 596 523 580 c 0,28,29
 523 570 523 570 507.5 537.5 c 128,-1,30
 492 505 492 505 464 456.5 c 128,-1,31
 436 408 436 408 398 347 c 128,-1,32
 360 286 360 286 314 218 c 1,0,-1
238 257 m 1,33,-1
 319 257 l 1,34,-1
 319 2 l 1,35,36
 314 0 314 0 303.5 -2.5 c 128,-1,37
 293 -5 293 -5 282 -5 c 0,38,39
 260 -5 260 -5 249 4 c 128,-1,40
 238 13 238 13 238 32 c 2,41,-1
 238 257 l 1,33,-1
EndSplineSet
EndChar

StartChar: Z
Encoding: 90 90 61
Width: 557
Flags: W
LayerCount: 2
Fore
SplineSet
71 88 m 2,0,-1
 451 608 l 1,1,-1
 483 608 l 1,2,3
 502 592 502 592 502 570 c 0,4,5
 502 556 502 556 496.5 545 c 128,-1,6
 491 534 491 534 481 520 c 2,7,-1
 102 0 l 1,8,-1
 69 0 l 1,9,10
 61 7 61 7 55.5 17 c 128,-1,11
 50 27 50 27 50 38 c 0,12,13
 50 52 50 52 55.5 63.5 c 128,-1,14
 61 75 61 75 71 88 c 2,0,-1
90 0 m 1,15,-1
 93 69 l 1,16,-1
 499 69 l 1,17,18
 503 64 503 64 506 55.5 c 128,-1,19
 509 47 509 47 509 36 c 0,20,21
 509 20 509 20 500.5 10 c 128,-1,22
 492 0 492 0 478 0 c 2,23,-1
 90 0 l 1,15,-1
464 608 m 1,24,-1
 462 539 l 1,25,-1
 67 539 l 1,26,27
 64 544 64 544 60.5 553 c 128,-1,28
 57 562 57 562 57 572 c 0,29,30
 57 589 57 589 65.5 598.5 c 128,-1,31
 74 608 74 608 89 608 c 2,32,-1
 464 608 l 1,24,-1
EndSplineSet
EndChar

StartChar: bracketleft
Encoding: 91 91 62
Width: 268
Flags: W
LayerCount: 2
Fore
SplineSet
69 -60 m 1,0,-1
 69 597 l 1,1,-1
 142 597 l 1,2,-1
 142 -60 l 1,3,-1
 69 -60 l 1,0,-1
69 -46 m 1,4,-1
 252 -46 l 1,5,6
 254 -53 254 -53 256 -60 c 128,-1,7
 258 -67 258 -67 258 -77 c 0,8,9
 258 -93 258 -93 249.5 -101.5 c 128,-1,10
 241 -110 241 -110 224 -110 c 2,11,-1
 110 -110 l 2,12,13
 90 -110 90 -110 79.5 -99 c 128,-1,14
 69 -88 69 -88 69 -69 c 2,15,-1
 69 -46 l 1,4,-1
110 651 m 2,16,-1
 252 651 l 1,17,18
 254 645 254 645 256 638 c 128,-1,19
 258 631 258 631 258 621 c 0,20,21
 258 605 258 605 249.5 596.5 c 128,-1,22
 241 588 241 588 224 588 c 2,23,-1
 69 588 l 1,24,-1
 69 611 l 2,25,26
 69 630 69 630 79.5 640.5 c 128,-1,27
 90 651 90 651 110 651 c 2,16,-1
EndSplineSet
Substitution2: "'rtla' Right to Left Alternates lookup 0 subtable" bracketright
EndChar

StartChar: backslash
Encoding: 92 92 63
Width: 341
Flags: W
LayerCount: 2
Fore
SplineSet
110 639 m 2,0,-1
 300 -46 l 1,1,2
 293 -53 293 -53 281 -58.5 c 128,-1,3
 269 -64 269 -64 258 -64 c 0,4,5
 245 -64 245 -64 236 -58 c 128,-1,6
 227 -52 227 -52 223 -38 c 2,7,-1
 33 647 l 1,8,9
 41 655 41 655 52.5 660 c 128,-1,10
 64 665 64 665 75 665 c 0,11,12
 88 665 88 665 97 659 c 128,-1,13
 106 653 106 653 110 639 c 2,0,-1
EndSplineSet
EndChar

StartChar: bracketright
Encoding: 93 93 64
Width: 269
Flags: W
LayerCount: 2
Fore
SplineSet
199 602 m 1,0,-1
 199 -56 l 1,1,-1
 126 -56 l 1,2,-1
 126 602 l 1,3,-1
 199 602 l 1,0,-1
199 588 m 1,4,-1
 16 588 l 1,5,6
 14 594 14 594 12 601.5 c 128,-1,7
 10 609 10 609 10 618 c 0,8,9
 10 635 10 635 19 643 c 128,-1,10
 28 651 28 651 45 651 c 2,11,-1
 158 651 l 2,12,13
 178 651 178 651 188.5 640.5 c 128,-1,14
 199 630 199 630 199 611 c 2,15,-1
 199 588 l 1,4,-1
158 -110 m 2,16,-1
 16 -110 l 1,17,18
 14 -104 14 -104 12 -96.5 c 128,-1,19
 10 -89 10 -89 10 -80 c 0,20,21
 10 -63 10 -63 19 -54.5 c 128,-1,22
 28 -46 28 -46 45 -46 c 2,23,-1
 199 -46 l 1,24,-1
 199 -69 l 2,25,26
 199 -88 199 -88 188.5 -99 c 128,-1,27
 178 -110 178 -110 158 -110 c 2,16,-1
EndSplineSet
Substitution2: "'rtla' Right to Left Alternates lookup 0 subtable" bracketleft
EndChar

StartChar: asciicircum
Encoding: 94 94 65
Width: 463
Flags: W
LayerCount: 2
Fore
SplineSet
194 646 m 0,0,1
 199 650 199 650 209 652.5 c 128,-1,2
 219 655 219 655 230 655 c 0,3,4
 260 655 260 655 267 641 c 0,5,6
 281 616 281 616 300.5 578 c 128,-1,7
 320 540 320 540 340.5 497 c 128,-1,8
 361 454 361 454 379.5 413.5 c 128,-1,9
 398 373 398 373 409 343 c 1,10,11
 404 336 404 336 394 330 c 128,-1,12
 384 324 384 324 372 324 c 0,13,14
 356 324 356 324 346.5 331 c 128,-1,15
 337 338 337 338 329 357 c 2,16,-1
 232 573 l 1,17,-1
 225 573 l 1,18,19
 221 564 221 564 209 537.5 c 128,-1,20
 197 511 197 511 181 475 c 128,-1,21
 165 439 165 439 149.5 401.5 c 128,-1,22
 134 364 134 364 123 332 c 1,23,24
 116 328 116 328 107.5 325.5 c 128,-1,25
 99 323 99 323 88 323 c 0,26,27
 75 323 75 323 64.5 330 c 128,-1,28
 54 337 54 337 54 353 c 0,29,30
 54 362 54 362 66.5 391.5 c 128,-1,31
 79 421 79 421 98 460.5 c 128,-1,32
 117 500 117 500 137 539.5 c 128,-1,33
 157 579 157 579 173 608.5 c 128,-1,34
 189 638 189 638 194 646 c 0,0,1
EndSplineSet
EndChar

StartChar: underscore
Encoding: 95 95 66
Width: 465
Flags: W
LayerCount: 2
Fore
SplineSet
430 -123 m 2,0,-1
 6 -123 l 1,1,2
 4 -117 4 -117 2 -109.5 c 128,-1,3
 0 -102 0 -102 0 -92 c 0,4,5
 0 -75 0 -75 9 -66.5 c 128,-1,6
 18 -58 18 -58 35 -58 c 2,7,-1
 458 -58 l 1,8,9
 460 -64 460 -64 462.5 -72 c 128,-1,10
 465 -80 465 -80 465 -89 c 0,11,12
 465 -105 465 -105 456 -114 c 128,-1,13
 447 -123 447 -123 430 -123 c 2,0,-1
EndSplineSet
EndChar

StartChar: grave
Encoding: 96 96 67
Width: 302
Flags: W
LayerCount: 2
Fore
SplineSet
153 534 m 2,0,-1
 59 634 l 2,1,2
 58 638 58 638 57.5 641.5 c 128,-1,3
 57 645 57 645 57 647 c 0,4,5
 57 663 57 663 68 673 c 128,-1,6
 79 683 79 683 95 683 c 0,7,8
 106 683 106 683 114.5 678.5 c 128,-1,9
 123 674 123 674 130 666 c 2,10,-1
 220 553 l 1,11,12
 219 537 219 537 210 527.5 c 128,-1,13
 201 518 201 518 187 518 c 0,14,15
 176 518 176 518 168.5 522.5 c 128,-1,16
 161 527 161 527 153 534 c 2,0,-1
EndSplineSet
EndChar

StartChar: a
Encoding: 97 97 68
Width: 499
Flags: W
LayerCount: 2
Fore
SplineSet
240 52 m 0,0,1
 282 52 282 52 309.5 60.5 c 128,-1,2
 337 69 337 69 349 77 c 1,3,-1
 349 222 l 1,4,-1
 225 209 l 2,5,6
 173 205 173 205 148 186 c 128,-1,7
 123 167 123 167 123 131 c 0,8,9
 123 94 123 94 152.5 73 c 128,-1,10
 182 52 182 52 240 52 c 0,0,1
239 475 m 0,11,12
 326 475 326 475 377 436 c 128,-1,13
 428 397 428 397 428 313 c 2,14,-1
 428 76 l 2,15,16
 428 54 428 54 419.5 42.5 c 128,-1,17
 411 31 411 31 394 21 c 0,18,19
 370 8 370 8 330 -3 c 128,-1,20
 290 -14 290 -14 240 -14 c 0,21,22
 146 -14 146 -14 94.5 23 c 128,-1,23
 43 60 43 60 43 130 c 0,24,25
 43 195 43 195 86.5 229.5 c 128,-1,26
 130 264 130 264 207 271 c 2,27,-1
 349 285 l 1,28,-1
 349 313 l 2,29,30
 349 363 349 363 319 386 c 128,-1,31
 289 409 289 409 238 409 c 0,32,33
 197 409 197 409 159.5 397 c 128,-1,34
 122 385 122 385 93 370 c 1,35,36
 85 377 85 377 78.5 386.5 c 128,-1,37
 72 396 72 396 72 406 c 0,38,39
 72 432 72 432 101 446 c 0,40,41
 128 460 128 460 163.5 467.5 c 128,-1,42
 199 475 199 475 239 475 c 0,11,12
EndSplineSet
EndChar

StartChar: b
Encoding: 98 98 69
Width: 598
Flags: W
LayerCount: 2
Fore
SplineSet
281 475 m 0,0,1
 343 475 343 475 392.5 448.5 c 128,-1,2
 442 422 442 422 470.5 368 c 128,-1,3
 499 314 499 314 499 231 c 0,4,5
 499 147 499 147 469.5 93 c 128,-1,6
 440 39 440 39 388 13 c 128,-1,7
 336 -13 336 -13 267 -13 c 0,8,9
 218 -13 218 -13 178.5 -1 c 128,-1,10
 139 11 139 11 114 25 c 0,11,12
 93 39 93 39 85 51 c 128,-1,13
 77 63 77 63 77 84 c 2,14,-1
 77 417 l 1,15,-1
 157 417 l 1,16,-1
 157 84 l 1,17,18
 172 73 172 73 201 63 c 128,-1,19
 230 53 230 53 267 53 c 0,20,21
 335 53 335 53 376.5 96 c 128,-1,22
 418 139 418 139 418 231 c 0,23,24
 418 324 418 324 376 366.5 c 128,-1,25
 334 409 334 409 269 409 c 0,26,27
 229 409 229 409 198 393.5 c 128,-1,28
 167 378 167 378 147 358 c 1,29,-1
 132 423 l 1,30,31
 154 440 154 440 191 457.5 c 128,-1,32
 228 475 228 475 281 475 c 0,0,1
157 401 m 1,33,-1
 77 401 l 1,34,-1
 77 648 l 1,35,36
 82 650 82 650 92.5 652.5 c 128,-1,37
 103 655 103 655 115 655 c 0,38,39
 136 655 136 655 146.5 646.5 c 128,-1,40
 157 638 157 638 157 619 c 2,41,-1
 157 401 l 1,33,-1
EndSplineSet
EndChar

StartChar: c
Encoding: 99 99 70
Width: 670
Flags: W
LayerCount: 2
Fore
SplineSet
618 555 m 1,0,1
 621 548 621 548 622 541.5 c 128,-1,2
 623 535 623 535 623 528 c 0,3,4
 623 512 623 512 613 502.5 c 128,-1,5
 603 493 603 493 580 493 c 2,6,-1
 223 493 l 1,7,-1
 223 295 l 1,8,-1
 151 294 l 1,9,-1
 151 500 l 2,10,11
 151 526 151 526 164 540.5 c 128,-1,12
 177 555 177 555 201 555 c 2,13,-1
 618 555 l 1,0,1
392 524 m 1,14,-1
 464 524 l 1,15,-1
 464 319 l 1,16,-1
 464 295 l 1,17,-1
 464 201 l 2,18,19
 464 104 464 104 403.5 48.5 c 128,-1,20
 343 -7 343 -7 238 -7 c 0,21,22
 146 -7 146 -7 90.5 39 c 128,-1,23
 35 85 35 85 35 161 c 0,24,25
 35 222 35 222 69.5 266 c 128,-1,26
 104 310 104 310 165 325 c 0,27,28
 180 329 180 329 202.5 331.5 c 128,-1,29
 225 334 225 334 250.5 335.5 c 128,-1,30
 276 337 276 337 301 337 c 0,31,32
 324 337 324 337 361.5 337 c 128,-1,33
 399 337 399 337 430 336 c 1,34,-1
 410 275 l 1,35,36
 391 275 391 275 357.5 275 c 128,-1,37
 324 275 324 275 274 275 c 0,38,39
 236 275 236 275 208 270.5 c 128,-1,40
 180 266 180 266 157 253 c 0,41,42
 135 239 135 239 121.5 216.5 c 128,-1,43
 108 194 108 194 108 164 c 0,44,45
 108 115 108 115 144.5 86 c 128,-1,46
 181 57 181 57 240 57 c 0,47,48
 312 57 312 57 352 97 c 128,-1,49
 392 137 392 137 392 208 c 2,50,-1
 392 294 l 1,51,-1
 392 524 l 1,14,-1
434 337 m 1,52,-1
 649 337 l 1,53,54
 653 322 653 322 653 309 c 0,55,56
 653 273 653 273 610 273 c 2,57,-1
 419 274 l 1,58,-1
 434 337 l 1,52,-1
EndSplineSet
EndChar

StartChar: d
Encoding: 100 100 71
Width: 594
Flags: W
LayerCount: 2
Fore
SplineSet
390 79 m 1,0,-1
 390 415 l 1,1,-1
 470 416 l 1,2,-1
 470 76 l 2,3,4
 470 57 470 57 461.5 45.5 c 128,-1,5
 453 34 453 34 435 23 c 0,6,7
 415 10 415 10 378 -1.5 c 128,-1,8
 341 -13 341 -13 293 -13 c 0,9,10
 221 -13 221 -13 166 12 c 128,-1,11
 111 37 111 37 80 90.5 c 128,-1,12
 49 144 49 144 49 229 c 0,13,14
 49 316 49 316 79.5 370 c 128,-1,15
 110 424 110 424 162 449.5 c 128,-1,16
 214 475 214 475 276 475 c 0,17,18
 315 475 315 475 350 464 c 128,-1,19
 385 453 385 453 405 437 c 1,20,-1
 405 363 l 1,21,22
 386 382 386 382 355.5 395.5 c 128,-1,23
 325 409 325 409 284 409 c 256,24,25
 243 409 243 409 208 391.5 c 128,-1,26
 173 374 173 374 152 334 c 128,-1,27
 131 294 131 294 131 227 c 0,28,29
 131 136 131 136 175 94.5 c 128,-1,30
 219 53 219 53 292 53 c 0,31,32
 327 53 327 53 349.5 60.5 c 128,-1,33
 372 68 372 68 390 79 c 1,0,-1
470 396 m 1,34,-1
 390 395 l 1,35,-1
 390 648 l 1,36,37
 395 650 395 650 405.5 652.5 c 128,-1,38
 416 655 416 655 427 655 c 0,39,40
 449 655 449 655 459.5 646.5 c 128,-1,41
 470 638 470 638 470 619 c 2,42,-1
 470 396 l 1,34,-1
EndSplineSet
EndChar

StartChar: e
Encoding: 101 101 72
Width: 519
Flags: W
LayerCount: 2
Fore
SplineSet
104 180 m 1,0,-1
 100 243 l 1,1,-1
 402 284 l 1,2,3
 398 339 398 339 364 374.5 c 128,-1,4
 330 410 330 410 270 410 c 0,5,6
 208 410 208 410 167.5 365.5 c 128,-1,7
 127 321 127 321 127 238 c 2,8,-1
 127 216 l 1,9,10
 134 136 134 136 179.5 94.5 c 128,-1,11
 225 53 225 53 304 53 c 0,12,13
 346 53 346 53 380 67 c 128,-1,14
 414 81 414 81 434 97 c 1,15,16
 445 90 445 90 451.5 80.5 c 128,-1,17
 458 71 458 71 458 59 c 0,18,19
 458 40 458 40 436.5 23.5 c 128,-1,20
 415 7 415 7 379.5 -3 c 128,-1,21
 344 -13 344 -13 300 -13 c 0,22,23
 223 -13 223 -13 166.5 15 c 128,-1,24
 110 43 110 43 79.5 98.5 c 128,-1,25
 49 154 49 154 49 234 c 0,26,27
 49 291 49 291 65.5 335.5 c 128,-1,28
 82 380 82 380 111.5 411 c 128,-1,29
 141 442 141 442 182 458.5 c 128,-1,30
 223 475 223 475 271 475 c 0,31,32
 332 475 332 475 378.5 449 c 128,-1,33
 425 423 425 423 451.5 376.5 c 128,-1,34
 478 330 478 330 478 270 c 0,35,36
 478 248 478 248 468 238.5 c 128,-1,37
 458 229 458 229 440 227 c 2,38,-1
 104 180 l 1,0,-1
EndSplineSet
EndChar

StartChar: f
Encoding: 102 102 73
Width: 399
Flags: W
LayerCount: 2
Fore
SplineSet
142 371 m 1,0,-1
 142 436 l 1,1,-1
 354 436 l 1,2,3
 357 432 357 432 360 423.5 c 128,-1,4
 363 415 363 415 363 404 c 0,5,6
 363 388 363 388 355 379.5 c 128,-1,7
 347 371 347 371 332 371 c 2,8,-1
 142 371 l 1,0,-1
156 499 m 2,9,-1
 156 382 l 1,10,-1
 77 382 l 1,11,-1
 77 503 l 2,12,13
 77 562 77 562 98.5 598.5 c 128,-1,14
 120 635 120 635 160.5 652.5 c 128,-1,15
 201 670 201 670 257 670 c 0,16,17
 314 670 314 670 346.5 655 c 128,-1,18
 379 640 379 640 379 618 c 0,19,20
 379 607 379 607 374.5 598 c 128,-1,21
 370 589 370 589 362 581 c 1,22,23
 344 591 344 591 317 597.5 c 128,-1,24
 290 604 290 604 265 604 c 0,25,26
 204 604 204 604 180 579 c 128,-1,27
 156 554 156 554 156 499 c 2,9,-1
77 426 m 1,28,-1
 157 426 l 1,29,-1
 157 2 l 1,30,31
 152 0 152 0 142 -2.5 c 128,-1,32
 132 -5 132 -5 120 -5 c 0,33,34
 99 -5 99 -5 88 3.5 c 128,-1,35
 77 12 77 12 77 31 c 2,36,-1
 77 426 l 1,28,-1
EndSplineSet
EndChar

StartChar: g
Encoding: 103 103 74
Width: 537
Flags: W
LayerCount: 2
Fore
SplineSet
267 14 m 0,0,1
 209 14 209 14 160 36.5 c 128,-1,2
 111 59 111 59 81 110 c 128,-1,3
 51 161 51 161 51 245 c 0,4,5
 51 321 51 321 80.5 372 c 128,-1,6
 110 423 110 423 162 449 c 128,-1,7
 214 475 214 475 281 475 c 0,8,9
 327 475 327 475 365.5 463.5 c 128,-1,10
 404 452 404 452 430 435 c 0,11,12
 445 425 445 425 454.5 412.5 c 128,-1,13
 464 400 464 400 464 382 c 2,14,-1
 464 73 l 1,15,-1
 384 73 l 1,16,-1
 384 381 l 1,17,18
 367 392 367 392 341.5 400.5 c 128,-1,19
 316 409 316 409 281 409 c 0,20,21
 214 409 214 409 173 368 c 128,-1,22
 132 327 132 327 132 246 c 0,23,24
 132 156 132 156 173.5 118 c 128,-1,25
 215 80 215 80 276 80 c 0,26,27
 320 80 320 80 347 95 c 128,-1,28
 374 110 374 110 390 128 c 1,29,-1
 394 57 l 1,30,31
 379 41 379 41 346.5 27.5 c 128,-1,32
 314 14 314 14 267 14 c 0,0,1
384 -15 m 2,33,-1
 384 90 l 1,34,-1
 464 90 l 1,35,-1
 464 -20 l 2,36,37
 464 -86 464 -86 435.5 -126 c 128,-1,38
 407 -166 407 -166 357.5 -184 c 128,-1,39
 308 -202 308 -202 246 -202 c 0,40,41
 196 -202 196 -202 160 -191 c 128,-1,42
 124 -180 124 -180 111 -173 c 0,43,44
 81 -156 81 -156 81 -130 c 0,45,46
 81 -116 81 -116 87.5 -106.5 c 128,-1,47
 94 -97 94 -97 104 -92 c 1,48,49
 125 -108 125 -108 163.5 -121.5 c 128,-1,50
 202 -135 202 -135 246 -135 c 0,51,52
 313 -135 313 -135 348.5 -106 c 128,-1,53
 384 -77 384 -77 384 -15 c 2,33,-1
EndSplineSet
EndChar

StartChar: h
Encoding: 104 104 75
Width: 551
Flags: W
LayerCount: 2
Fore
SplineSet
476 199 m 1,0,-1
 396 199 l 1,1,-1
 396 291 l 2,2,3
 396 351 396 351 362.5 380 c 128,-1,4
 329 409 329 409 276 409 c 0,5,6
 237 409 237 409 203.5 394 c 128,-1,7
 170 379 170 379 147 358 c 1,8,-1
 132 423 l 1,9,10
 156 440 156 440 195.5 457.5 c 128,-1,11
 235 475 235 475 287 475 c 0,12,13
 370 475 370 475 423 430 c 128,-1,14
 476 385 476 385 476 293 c 2,15,-1
 476 199 l 1,0,-1
77 264 m 1,16,-1
 157 264 l 1,17,-1
 157 2 l 1,18,19
 152 0 152 0 142 -2.5 c 128,-1,20
 132 -5 132 -5 120 -5 c 0,21,22
 99 -5 99 -5 88 3.5 c 128,-1,23
 77 12 77 12 77 31 c 2,24,-1
 77 264 l 1,16,-1
396 263 m 1,25,-1
 476 262 l 1,26,-1
 476 2 l 1,27,28
 471 0 471 0 460.5 -2.5 c 128,-1,29
 450 -5 450 -5 439 -5 c 0,30,31
 417 -5 417 -5 406.5 3.5 c 128,-1,32
 396 12 396 12 396 31 c 2,33,-1
 396 263 l 1,25,-1
157 225 m 1,34,-1
 77 225 l 1,35,-1
 77 648 l 1,36,37
 82 650 82 650 92.5 652.5 c 128,-1,38
 103 655 103 655 115 655 c 0,39,40
 136 655 136 655 146.5 646.5 c 128,-1,41
 157 638 157 638 157 619 c 2,42,-1
 157 225 l 1,34,-1
EndSplineSet
EndChar

StartChar: i
Encoding: 105 105 76
Width: 241
Flags: W
LayerCount: 2
Fore
SplineSet
68 608 m 256,0,1
 68 629 68 629 83 643.5 c 128,-1,2
 98 658 98 658 120 658 c 0,3,4
 143 658 143 658 157 643.5 c 128,-1,5
 171 629 171 629 171 608 c 256,6,7
 171 587 171 587 157 572.5 c 128,-1,8
 143 558 143 558 120 558 c 0,9,10
 98 558 98 558 83 572.5 c 128,-1,11
 68 587 68 587 68 608 c 256,0,1
80 264 m 1,12,-1
 160 264 l 1,13,-1
 160 2 l 1,14,15
 155 0 155 0 145 -2.5 c 128,-1,16
 135 -5 135 -5 123 -5 c 0,17,18
 102 -5 102 -5 91 3.5 c 128,-1,19
 80 12 80 12 80 31 c 2,20,-1
 80 264 l 1,12,-1
160 225 m 1,21,-1
 80 225 l 1,22,-1
 80 460 l 1,23,24
 85 462 85 462 95.5 464.5 c 128,-1,25
 106 467 106 467 118 467 c 0,26,27
 139 467 139 467 149.5 458.5 c 128,-1,28
 160 450 160 450 160 430 c 2,29,-1
 160 225 l 1,21,-1
EndSplineSet
EndChar

StartChar: j
Encoding: 106 106 77
Width: 557
Flags: W
LayerCount: 2
Fore
SplineSet
490.962890625 198.5546875 m 256,0,1
 490.962890625 178.169921875 490.962890625 178.169921875 484 162.108398438 c 128,-1,2
 477.036132812 146.047851562 477.036132812 146.047851562 465.008789062 134.620117188 c 128,-1,3
 452.981445312 123.192382812 452.981445312 123.192382812 436.5234375 117.014648438 c 128,-1,4
 420.064453125 110.837890625 420.064453125 110.837890625 401.70703125 110.837890625 c 0,5,6
 382.715820312 110.837890625 382.715820312 110.837890625 366.57421875 117.014648438 c 128,-1,7
 350.431640625 123.192382812 350.431640625 123.192382812 338.404296875 134.620117188 c 128,-1,8
 326.377929688 146.047851562 326.377929688 146.047851562 319.4140625 162.108398438 c 128,-1,9
 312.451171875 178.169921875 312.451171875 178.169921875 312.451171875 198.5546875 c 256,10,11
 312.451171875 218.939453125 312.451171875 218.939453125 319.4140625 235 c 128,-1,12
 326.377929688 251.061523438 326.377929688 251.061523438 338.404296875 262.48828125 c 128,-1,13
 350.431640625 273.916992188 350.431640625 273.916992188 366.57421875 280.094726562 c 128,-1,14
 382.715820312 286.270507812 382.715820312 286.270507812 401.70703125 286.270507812 c 0,15,16
 420.064453125 286.270507812 420.064453125 286.270507812 436.5234375 280.094726562 c 128,-1,17
 452.981445312 273.916992188 452.981445312 273.916992188 465.008789062 262.48828125 c 128,-1,18
 477.036132812 251.061523438 477.036132812 251.061523438 484 235 c 128,-1,19
 490.962890625 218.939453125 490.962890625 218.939453125 490.962890625 198.5546875 c 256,0,1
357.395507812 198.5546875 m 256,20,21
 357.395507812 174.463867188 357.395507812 174.463867188 369.73828125 161.182617188 c 128,-1,22
 382.083007812 147.901367188 382.083007812 147.901367188 401.70703125 147.901367188 c 256,23,24
 421.330078125 147.901367188 421.330078125 147.901367188 433.674804688 161.182617188 c 128,-1,25
 446.018554688 174.463867188 446.018554688 174.463867188 446.018554688 198.5546875 c 256,26,27
 446.018554688 222.645507812 446.018554688 222.645507812 433.674804688 235.926757812 c 128,-1,28
 421.330078125 249.208007812 421.330078125 249.208007812 401.70703125 249.208007812 c 256,29,30
 382.083007812 249.208007812 382.083007812 249.208007812 369.73828125 235.926757812 c 128,-1,31
 357.395507812 222.645507812 357.395507812 222.645507812 357.395507812 198.5546875 c 256,20,21
71 88 m 2,32,-1
 451 608 l 1,33,-1
 483 608 l 1,34,35
 502 592 502 592 502 570 c 0,36,37
 502 556 502 556 496.5 545 c 128,-1,38
 491 534 491 534 481 520 c 2,39,-1
 102 0 l 1,40,-1
 69 0 l 1,41,42
 61 7 61 7 55.5 17 c 128,-1,43
 50 27 50 27 50 38 c 0,44,45
 50 52 50 52 55.5 63.5 c 128,-1,46
 61 75 61 75 71 88 c 2,32,-1
90 0 m 1,47,-1
 93 69 l 1,48,-1
 499 69 l 1,49,50
 503 64 503 64 506 55.5 c 128,-1,51
 509 47 509 47 509 36 c 0,52,53
 509 20 509 20 500.5 10 c 128,-1,54
 492 0 492 0 478 0 c 2,55,-1
 90 0 l 1,47,-1
464 608 m 1,56,-1
 462 539 l 1,57,-1
 67 539 l 1,58,59
 64 544 64 544 60.5 553 c 128,-1,60
 57 562 57 562 57 572 c 0,61,62
 57 589 57 589 65.5 598.5 c 128,-1,63
 74 608 74 608 89 608 c 2,64,-1
 464 608 l 1,56,-1
EndSplineSet
EndChar

StartChar: k
Encoding: 107 107 78
Width: 736
Flags: W
LayerCount: 2
Fore
SplineSet
631 555 m 1,0,1
 633 548 633 548 634.5 541.5 c 128,-1,2
 636 535 636 535 636 528 c 0,3,4
 636 512 636 512 625.5 502.5 c 128,-1,5
 615 493 615 493 593 493 c 2,6,-1
 223 493 l 1,7,-1
 223 295 l 1,8,-1
 151 294 l 1,9,-1
 151 500 l 2,10,11
 151 526 151 526 164 540.5 c 128,-1,12
 177 555 177 555 201 555 c 2,13,-1
 631 555 l 1,0,1
392 533 m 1,14,-1
 464 533 l 1,15,-1
 464 318 l 1,16,-1
 464 205 l 2,17,18
 464 168 464 168 454.5 137 c 128,-1,19
 445 106 445 106 428 80 c 1,20,-1
 410 59 l 2,21,22
 380 28 380 28 336 10.5 c 128,-1,23
 292 -7 292 -7 238 -7 c 0,24,25
 146 -7 146 -7 90.5 39 c 128,-1,26
 35 85 35 85 35 161 c 0,27,28
 35 222 35 222 69.5 266 c 128,-1,29
 104 310 104 310 165 325 c 0,30,31
 180 329 180 329 202.5 331.5 c 128,-1,32
 225 334 225 334 250.5 335.5 c 128,-1,33
 276 337 276 337 301 337 c 0,34,35
 324 337 324 337 361.5 337 c 128,-1,36
 399 337 399 337 430 336 c 1,37,-1
 410 275 l 1,38,39
 391 275 391 275 357.5 275 c 128,-1,40
 324 275 324 275 274 275 c 0,41,42
 236 275 236 275 207.5 270.5 c 128,-1,43
 179 266 179 266 156 253 c 0,44,45
 134 239 134 239 121 216.5 c 128,-1,46
 108 194 108 194 108 164 c 0,47,48
 108 115 108 115 144.5 86 c 128,-1,49
 181 57 181 57 240 57 c 0,50,51
 309 57 309 57 350.5 99 c 128,-1,52
 392 141 392 141 392 210 c 2,53,-1
 392 294 l 1,54,-1
 392 318 l 1,55,-1
 392 533 l 1,14,-1
433 336 m 1,56,-1
 483 336 l 2,57,58
 587 336 587 336 646.5 289 c 128,-1,59
 706 242 706 242 706 160 c 0,60,61
 706 84 706 84 659 38.5 c 128,-1,62
 612 -7 612 -7 534 -7 c 0,63,64
 482 -7 482 -7 442.5 14 c 128,-1,65
 403 35 403 35 378 63 c 1,66,-1
 424 110 l 1,67,68
 445 85 445 85 471 72 c 128,-1,69
 497 59 497 59 531 59 c 0,70,71
 576 59 576 59 604 86.5 c 128,-1,72
 632 114 632 114 632 160 c 0,73,74
 632 215 632 215 592.5 245.5 c 128,-1,75
 553 276 553 276 480 276 c 2,76,-1
 417 276 l 1,77,-1
 433 336 l 1,56,-1
EndSplineSet
EndChar

StartChar: l
Encoding: 108 108 79
Width: 1024
Flags: W
LayerCount: 2
Fore
SplineSet
264 269 m 0,0,1
 309 269 309 269 337.5 240.5 c 128,-1,2
 366 212 366 212 367 166 c 0,3,4
 368 117 368 117 339.5 86.5 c 128,-1,5
 311 56 311 56 264 56 c 0,6,7
 218 56 218 56 188 86 c 128,-1,8
 158 116 158 116 158 165 c 0,9,10
 158 210 158 210 188 239.5 c 128,-1,11
 218 269 218 269 264 269 c 0,0,1
274 332 m 0,12,13
 233 332 233 332 199 314 c 128,-1,14
 165 296 165 296 144 265.5 c 128,-1,15
 123 235 123 235 120 197 c 1,16,-1
 57 254 l 1,17,18
 57 176 57 176 82 117 c 128,-1,19
 107 58 107 58 154.5 25.5 c 128,-1,20
 202 -7 202 -7 267 -7 c 0,21,22
 319 -7 319 -7 358 15 c 128,-1,23
 397 37 397 37 419 75.5 c 128,-1,24
 441 114 441 114 441 166 c 0,25,26
 441 240 441 240 395 286 c 128,-1,27
 349 332 349 332 274 332 c 0,12,13
340 565 m 0,28,29
 255 565 255 565 191.5 526 c 128,-1,30
 128 487 128 487 92.5 417.5 c 128,-1,31
 57 348 57 348 57 254 c 1,32,-1
 144 105 l 1,33,34
 132 144 132 144 127 177 c 128,-1,35
 122 210 122 210 122 250 c 0,36,37
 123 325 123 325 149.5 381 c 128,-1,38
 176 437 176 437 225 467.5 c 128,-1,39
 274 498 274 498 340 498 c 0,40,41
 435 498 435 498 488.5 439 c 128,-1,42
 542 380 542 380 553 284 c 2,43,-1
 564 189 l 2,44,45
 575 98 575 98 624 45.5 c 128,-1,46
 673 -7 673 -7 767 -7 c 0,47,48
 865 -7 865 -7 918 56.5 c 128,-1,49
 971 120 971 120 971 234 c 0,50,51
 971 312 971 312 950.5 371.5 c 128,-1,52
 930 431 930 431 890 477 c 0,53,54
 859 515 859 515 814 540 c 128,-1,55
 769 565 769 565 722 565 c 0,56,57
 697 565 697 565 690 548 c 128,-1,58
 683 531 683 531 686 509 c 1,59,60
 784 492 784 492 838 419.5 c 128,-1,61
 892 347 892 347 892 231 c 0,62,63
 892 149 892 149 858 105 c 128,-1,64
 824 61 824 61 767 61 c 0,65,66
 708 61 708 61 678.5 96.5 c 128,-1,67
 649 132 649 132 641 199 c 2,68,-1
 630 292 l 2,69,70
 621 374 621 374 584.5 435 c 128,-1,71
 548 496 548 496 487 530.5 c 128,-1,72
 426 565 426 565 340 565 c 0,28,29
EndSplineSet
EndChar

StartChar: m
Encoding: 109 109 80
Width: 813
Flags: W
LayerCount: 2
Fore
SplineSet
127 559 m 0,0,1
 165 559 165 559 165 518 c 2,2,-1
 165 64 l 1,3,-1
 454 64 l 2,4,5
 521 64 521 64 571 90 c 128,-1,6
 621 116 621 116 649.5 172.5 c 128,-1,7
 678 229 678 229 677 319 c 0,8,9
 676 411 676 411 643 454.5 c 128,-1,10
 610 498 610 498 559 498 c 0,11,12
 517 498 517 498 489 474 c 128,-1,13
 461 450 461 450 447 403.5 c 128,-1,14
 433 357 433 357 432 287 c 0,15,16
 432 240 432 240 433.5 202 c 128,-1,17
 435 164 435 164 439 129 c 128,-1,18
 443 94 443 94 448 53 c 1,19,-1
 373 57 l 1,20,21
 366 104 366 104 361 164.5 c 128,-1,22
 356 225 356 225 356 296 c 0,23,24
 356 385 356 385 379 445 c 128,-1,25
 402 505 402 505 447 535 c 128,-1,26
 492 565 492 565 559 565 c 0,27,28
 617 565 617 565 661.5 534.5 c 128,-1,29
 706 504 706 504 731 449 c 128,-1,30
 756 394 756 394 756 320 c 0,31,32
 756 164 756 164 676.5 82 c 128,-1,33
 597 0 597 0 444 0 c 2,34,-1
 145 0 l 2,35,36
 90 0 90 0 90 50 c 2,37,-1
 90 553 l 1,38,39
 98 556 98 556 108.5 557.5 c 128,-1,40
 119 559 119 559 127 559 c 0,0,1
EndSplineSet
EndChar

StartChar: n
Encoding: 110 110 81
Width: 778
Flags: W
LayerCount: 2
Fore
SplineSet
636 555 m 1,0,1
 639 547 639 547 640 539.5 c 128,-1,2
 641 532 641 532 641 524 c 0,3,4
 641 508 641 508 631 499.5 c 128,-1,5
 621 491 621 491 599 491 c 2,6,-1
 433 491 l 1,7,-1
 393 491 l 1,8,-1
 165 491 l 1,9,-1
 165 3 l 1,10,11
 159 1 159 1 150.5 -1 c 128,-1,12
 142 -3 142 -3 131 -3 c 0,13,14
 90 -3 90 -3 90 35 c 2,15,-1
 90 500 l 2,16,17
 90 526 90 526 103.5 540.5 c 128,-1,18
 117 555 117 555 140 555 c 2,19,-1
 636 555 l 1,0,1
366 529 m 1,20,-1
 441 529 l 1,21,-1
 441 261 l 1,22,-1
 441 237 l 1,23,-1
 441 3 l 1,24,25
 434 1 434 1 426 -1 c 128,-1,26
 418 -3 418 -3 407 -3 c 0,27,28
 366 -3 366 -3 366 35 c 2,29,-1
 366 529 l 1,20,-1
567 341 m 0,30,31
 619 341 619 341 657 317.5 c 128,-1,32
 695 294 695 294 716.5 251.5 c 128,-1,33
 738 209 738 209 738 151 c 0,34,35
 737 42 737 42 686 -35.5 c 128,-1,36
 635 -113 635 -113 538.5 -153.5 c 128,-1,37
 442 -194 442 -194 306 -194 c 2,38,-1
 72 -194 l 1,39,40
 70 -186 70 -186 68.5 -178.5 c 128,-1,41
 67 -171 67 -171 67 -164 c 0,42,43
 67 -145 67 -145 78 -135 c 128,-1,44
 89 -125 89 -125 112 -125 c 0,45,46
 159 -125 159 -125 207 -126 c 128,-1,47
 255 -127 255 -127 303 -127 c 0,48,49
 475 -127 475 -127 569 -55.5 c 128,-1,50
 663 16 663 16 661 146 c 0,51,52
 661 209 661 209 632 243.5 c 128,-1,53
 603 278 603 278 550 278 c 0,54,55
 510 278 510 278 478.5 253 c 128,-1,56
 447 228 447 228 438 190 c 1,57,-1
 428 269 l 1,58,59
 438 292 438 292 459 308 c 128,-1,60
 480 324 480 324 508.5 332.5 c 128,-1,61
 537 341 537 341 567 341 c 0,30,31
EndSplineSet
EndChar

StartChar: o
Encoding: 111 111 82
Width: 553
Flags: W
LayerCount: 2
Fore
SplineSet
504 231 m 0,0,1
 504 157 504 157 476 102 c 128,-1,2
 448 47 448 47 397 17 c 128,-1,3
 346 -13 346 -13 277 -13 c 256,4,5
 208 -13 208 -13 156.5 17 c 128,-1,6
 105 47 105 47 77 102 c 128,-1,7
 49 157 49 157 49 231 c 0,8,9
 49 306 49 306 77.5 360.5 c 128,-1,10
 106 415 106 415 157.5 445 c 128,-1,11
 209 475 209 475 277 475 c 256,12,13
 345 475 345 475 396 445 c 128,-1,14
 447 415 447 415 475.5 360.5 c 128,-1,15
 504 306 504 306 504 231 c 0,0,1
277 409 m 0,16,17
 210 409 210 409 170.5 361.5 c 128,-1,18
 131 314 131 314 131 231 c 0,19,20
 131 147 131 147 169.5 100 c 128,-1,21
 208 53 208 53 277 53 c 0,22,23
 345 53 345 53 383.5 100.5 c 128,-1,24
 422 148 422 148 422 231 c 256,25,26
 422 314 422 314 383.5 361.5 c 128,-1,27
 345 409 345 409 277 409 c 0,16,17
EndSplineSet
EndChar

StartChar: p
Encoding: 112 112 83
Width: 742
Flags: W
LayerCount: 2
Fore
SplineSet
127 559 m 0,0,1
 168 559 168 559 168 518 c 2,2,-1
 168 66 l 1,3,-1
 573 66 l 1,4,-1
 573 553 l 1,5,6
 581 556 581 556 591.5 557.5 c 128,-1,7
 602 559 602 559 610 559 c 0,8,9
 651 559 651 559 651 518 c 2,10,-1
 651 41 l 2,11,12
 651 19 651 19 639 9.5 c 128,-1,13
 627 0 627 0 604 0 c 2,14,-1
 135 0 l 2,15,16
 113 0 113 0 101.5 9 c 128,-1,17
 90 18 90 18 90 40 c 2,18,-1
 90 553 l 1,19,20
 99 556 99 556 109 557.5 c 128,-1,21
 119 559 119 559 127 559 c 0,0,1
EndSplineSet
EndChar

StartChar: q
Encoding: 113 113 84
Width: 501
Flags: W
LayerCount: 2
Fore
SplineSet
471 63 m 1,0,-1
 391 64 l 1,1,-1
 391 381 l 1,2,3
 374 392 374 392 348.5 400.5 c 128,-1,4
 323 409 323 409 288 409 c 0,5,6
 245 409 245 409 209.5 391 c 128,-1,7
 174 373 174 373 152.5 333 c 128,-1,8
 131 293 131 293 131 228 c 0,9,10
 131 136 131 136 174 94.5 c 128,-1,11
 217 53 217 53 287 53 c 0,12,13
 323 53 323 53 353 65.5 c 128,-1,14
 383 78 383 78 400 95 c 1,15,-1
 400 22 l 1,16,17
 380 8 380 8 349.5 -2.5 c 128,-1,18
 319 -13 319 -13 275 -13 c 0,19,20
 210 -13 210 -13 158.5 12 c 128,-1,21
 107 37 107 37 78 90.5 c 128,-1,22
 49 144 49 144 49 228 c 256,23,24
 49 312 49 312 80.5 367 c 128,-1,25
 112 422 112 422 165.5 448.5 c 128,-1,26
 219 475 219 475 286 475 c 0,27,28
 334 475 334 475 373 463 c 128,-1,29
 412 451 412 451 438 435 c 0,30,31
 453 426 453 426 462 413 c 128,-1,32
 471 400 471 400 471 382 c 2,33,-1
 471 63 l 1,0,-1
391 78 m 1,34,-1
 471 80 l 1,35,-1
 471 -183 l 1,36,37
 466 -185 466 -185 455.5 -187.5 c 128,-1,38
 445 -190 445 -190 434 -190 c 0,39,40
 412 -190 412 -190 401.5 -181 c 128,-1,41
 391 -172 391 -172 391 -153 c 2,42,-1
 391 78 l 1,34,-1
EndSplineSet
EndChar

StartChar: r
Encoding: 114 114 85
Width: 578
Flags: W
LayerCount: 2
Fore
SplineSet
574 555 m 1,0,1
 577 547 577 547 578 539.5 c 128,-1,2
 579 532 579 532 579 524 c 0,3,4
 579 508 579 508 569 499 c 128,-1,5
 559 490 559 490 537 490 c 2,6,-1
 432 490 l 1,7,-1
 404 490 l 1,8,-1
 166 490 l 1,9,-1
 166 3 l 1,10,11
 159 1 159 1 150.5 -1 c 128,-1,12
 142 -3 142 -3 131 -3 c 0,13,14
 90 -3 90 -3 90 35 c 2,15,-1
 90 500 l 2,16,17
 90 526 90 526 103.5 540.5 c 128,-1,18
 117 555 117 555 140 555 c 2,19,-1
 574 555 l 1,0,1
380 528 m 1,20,-1
 455 528 l 1,21,-1
 455 8 l 1,22,-1
 254 -164 l 1,23,24
 235 -161 235 -161 222 -149 c 128,-1,25
 209 -137 209 -137 209 -121 c 0,26,27
 209 -107 209 -107 215 -98 c 128,-1,28
 221 -89 221 -89 231 -81 c 2,29,-1
 380 42 l 1,30,-1
 380 528 l 1,20,-1
EndSplineSet
EndChar

StartChar: s
Encoding: 115 115 86
Width: 1323
Flags: W
LayerCount: 2
Fore
SplineSet
263 269 m 0,0,1
 308 269 308 269 336.5 240.5 c 128,-1,2
 365 212 365 212 366 166 c 0,3,4
 367 117 367 117 338.5 86.5 c 128,-1,5
 310 56 310 56 263 56 c 0,6,7
 217 56 217 56 187 86 c 128,-1,8
 157 116 157 116 157 165 c 0,9,10
 157 210 157 210 187 239.5 c 128,-1,11
 217 269 217 269 263 269 c 0,0,1
273 332 m 0,12,13
 232 332 232 332 198 314 c 128,-1,14
 164 296 164 296 143 265.5 c 128,-1,15
 122 235 122 235 119 197 c 1,16,-1
 56 254 l 1,17,18
 56 176 56 176 81 117 c 128,-1,19
 106 58 106 58 153.5 25.5 c 128,-1,20
 201 -7 201 -7 266 -7 c 0,21,22
 318 -7 318 -7 357 15 c 128,-1,23
 396 37 396 37 418 75.5 c 128,-1,24
 440 114 440 114 440 166 c 0,25,26
 440 240 440 240 394 286 c 128,-1,27
 348 332 348 332 273 332 c 0,12,13
348 565 m 0,28,29
 261 565 261 565 195 526 c 128,-1,30
 129 487 129 487 92.5 417.5 c 128,-1,31
 56 348 56 348 56 254 c 1,32,-1
 143 106 l 1,33,34
 132 145 132 145 126.5 177.5 c 128,-1,35
 121 210 121 210 121 250 c 0,36,37
 122 325 122 325 150 381 c 128,-1,38
 178 437 178 437 229 467.5 c 128,-1,39
 280 498 280 498 349 498 c 0,40,41
 416 498 416 498 465.5 466 c 128,-1,42
 515 434 515 434 542.5 376.5 c 128,-1,43
 570 319 570 319 570 241 c 1,44,-1
 605 352 l 1,45,46
 604 389 604 389 585.5 426.5 c 128,-1,47
 567 464 567 464 533 495.5 c 128,-1,48
 499 527 499 527 452 546 c 128,-1,49
 405 565 405 565 348 565 c 0,28,29
757 565 m 0,50,51
 674 565 674 565 631.5 514.5 c 128,-1,52
 589 464 589 464 588 384 c 1,53,-1
 570 336 l 1,54,-1
 570 33 l 2,55,56
 570 15 570 15 581 4.5 c 128,-1,57
 592 -6 592 -6 611 -6 c 0,58,59
 617 -6 617 -6 627 -4.5 c 128,-1,60
 637 -3 637 -3 645 0 c 1,61,-1
 645 378 l 2,62,63
 645 434 645 434 673 466 c 128,-1,64
 701 498 701 498 750 498 c 256,65,66
 799 498 799 498 826.5 466 c 128,-1,67
 854 434 854 434 854 378 c 2,68,-1
 854 202 l 2,69,70
 854 105 854 105 908.5 49 c 128,-1,71
 963 -7 963 -7 1058 -7 c 0,72,73
 1161 -7 1161 -7 1215 59 c 128,-1,74
 1269 125 1269 125 1269 244 c 0,75,76
 1269 331 1269 331 1237 404.5 c 128,-1,77
 1205 478 1205 478 1146 519 c 0,78,79
 1121 537 1121 537 1092.5 551 c 128,-1,80
 1064 565 1064 565 1033 565 c 0,81,82
 1011 565 1011 565 1002 550 c 128,-1,83
 993 535 993 535 996 507 c 1,84,85
 1081 491 1081 491 1135.5 425 c 128,-1,86
 1190 359 1190 359 1190 240 c 0,87,88
 1190 155 1190 155 1155 108 c 128,-1,89
 1120 61 1120 61 1058 61 c 0,90,91
 997 61 997 61 963.5 98 c 128,-1,92
 930 135 930 135 930 208 c 2,93,-1
 930 383 l 2,94,95
 930 466 930 466 883 515.5 c 128,-1,96
 836 565 836 565 757 565 c 0,50,51
EndSplineSet
EndChar

StartChar: t
Encoding: 116 116 87
Width: 672
Flags: W
LayerCount: 2
Fore
SplineSet
127 559 m 0,0,1
 168 559 168 559 168 518 c 2,2,-1
 168 67 l 1,3,-1
 662 67 l 1,4,5
 667 52 667 52 667 36 c 0,6,7
 667 0 667 0 625 0 c 2,8,-1
 135 0 l 2,9,10
 113 0 113 0 101.5 9 c 128,-1,11
 90 18 90 18 90 40 c 2,12,-1
 90 553 l 1,13,14
 99 556 99 556 109 557.5 c 128,-1,15
 119 559 119 559 127 559 c 0,0,1
EndSplineSet
EndChar

StartChar: u
Encoding: 117 117 88
Width: 550
Flags: W
LayerCount: 2
Fore
SplineSet
75 169 m 2,0,-1
 75 260 l 1,1,-1
 155 260 l 1,2,-1
 155 173 l 2,3,4
 155 109 155 109 189 81 c 128,-1,5
 223 53 223 53 283 53 c 0,6,7
 323 53 323 53 351 61.5 c 128,-1,8
 379 70 379 70 395 79 c 1,9,-1
 395 260 l 1,10,-1
 475 260 l 1,11,-1
 475 82 l 2,12,13
 475 61 475 61 469.5 48.5 c 128,-1,14
 464 36 464 36 443 24 c 0,15,16
 421 11 421 11 380 -1 c 128,-1,17
 339 -13 339 -13 282 -13 c 0,18,19
 216 -13 216 -13 169.5 6.5 c 128,-1,20
 123 26 123 26 99 66.5 c 128,-1,21
 75 107 75 107 75 169 c 2,0,-1
475 208 m 1,22,-1
 395 208 l 1,23,-1
 395 460 l 1,24,25
 400 462 400 462 410.5 464.5 c 128,-1,26
 421 467 421 467 432 467 c 0,27,28
 454 467 454 467 464.5 458.5 c 128,-1,29
 475 450 475 450 475 430 c 2,30,-1
 475 208 l 1,22,-1
155 208 m 1,31,-1
 75 208 l 1,32,-1
 75 460 l 1,33,34
 80 462 80 462 90.5 464.5 c 128,-1,35
 101 467 101 467 113 467 c 0,36,37
 134 467 134 467 144.5 458.5 c 128,-1,38
 155 450 155 450 155 430 c 2,39,-1
 155 208 l 1,31,-1
EndSplineSet
EndChar

StartChar: v
Encoding: 118 118 89
Width: 1011
Flags: W
LayerCount: 2
Fore
SplineSet
264 269 m 0,0,1
 309 269 309 269 337.5 240.5 c 128,-1,2
 366 212 366 212 367 166 c 0,3,4
 368 117 368 117 339.5 86.5 c 128,-1,5
 311 56 311 56 264 56 c 0,6,7
 218 56 218 56 188 86 c 128,-1,8
 158 116 158 116 158 165 c 0,9,10
 158 210 158 210 188 239.5 c 128,-1,11
 218 269 218 269 264 269 c 0,0,1
274 332 m 0,12,13
 233 332 233 332 199 314 c 128,-1,14
 165 296 165 296 144 265.5 c 128,-1,15
 123 235 123 235 120 197 c 1,16,-1
 57 254 l 1,17,18
 57 176 57 176 82 117 c 128,-1,19
 107 58 107 58 154.5 25.5 c 128,-1,20
 202 -7 202 -7 267 -7 c 0,21,22
 319 -7 319 -7 358 15 c 128,-1,23
 397 37 397 37 419 75.5 c 128,-1,24
 441 114 441 114 441 166 c 0,25,26
 441 240 441 240 395 286 c 128,-1,27
 349 332 349 332 274 332 c 0,12,13
376 565 m 0,28,29
 280 565 280 565 208.5 526 c 128,-1,30
 137 487 137 487 97 417.5 c 128,-1,31
 57 348 57 348 57 254 c 1,32,-1
 144 105 l 1,33,34
 132 144 132 144 127 176.5 c 128,-1,35
 122 209 122 209 122 249 c 0,36,37
 122 324 122 324 153.5 380 c 128,-1,38
 185 436 185 436 242 467 c 128,-1,39
 299 498 299 498 376 498 c 0,40,41
 445 498 445 498 495.5 469 c 128,-1,42
 546 440 546 440 574 387 c 128,-1,43
 602 334 602 334 602 263 c 0,44,45
 602 201 602 201 583.5 151 c 128,-1,46
 565 101 565 101 535 64 c 1,47,48
 536 37 536 37 552.5 18.5 c 128,-1,49
 569 0 569 0 601 0 c 2,50,-1
 862 0 l 1,51,-1
 862 64 l 1,52,-1
 618 64 l 1,53,54
 644 97 644 97 663 151.5 c 128,-1,55
 682 206 682 206 681 271 c 0,56,57
 680 360 680 360 641.5 426 c 128,-1,58
 603 492 603 492 535 528.5 c 128,-1,59
 467 565 467 565 376 565 c 0,28,29
882 559 m 0,60,61
 874 559 874 559 863.5 557 c 128,-1,62
 853 555 853 555 845 552 c 1,63,-1
 845 0 l 1,64,-1
 875 0 l 2,65,66
 898 0 898 0 909.5 9 c 128,-1,67
 921 18 921 18 921 40 c 2,68,-1
 921 529 l 2,69,70
 921 559 921 559 882 559 c 0,60,61
EndSplineSet
EndChar

StartChar: w
Encoding: 119 119 90
Width: 583
Flags: W
LayerCount: 2
Fore
SplineSet
383.469726562 519.385742188 m 260,0,1
 383.469726562 498.559570312 383.469726562 498.559570312 376.334960938 482.151367188 c 132,-1,2
 369.198242188 465.743164062 369.198242188 465.743164062 356.873046875 454.068359375 c 132,-1,3
 344.545898438 442.392578125 344.545898438 442.392578125 327.6796875 436.08203125 c 132,-1,4
 310.813476562 429.771484375 310.813476562 429.771484375 292 429.771484375 c 4,5,6
 272.538085938 429.771484375 272.538085938 429.771484375 255.99609375 436.08203125 c 132,-1,7
 239.453125 442.392578125 239.453125 442.392578125 227.127929688 454.068359375 c 132,-1,8
 214.80078125 465.743164062 214.80078125 465.743164062 207.666015625 482.151367188 c 132,-1,9
 200.530273438 498.559570312 200.530273438 498.559570312 200.530273438 519.385742188 c 260,10,11
 200.530273438 540.2109375 200.530273438 540.2109375 207.666015625 556.619140625 c 132,-1,12
 214.80078125 573.02734375 214.80078125 573.02734375 227.127929688 584.703125 c 132,-1,13
 239.453125 596.377929688 239.453125 596.377929688 255.99609375 602.689453125 c 132,-1,14
 272.538085938 609 272.538085938 609 292 609 c 4,15,16
 310.813476562 609 310.813476562 609 327.6796875 602.689453125 c 132,-1,17
 344.545898438 596.377929688 344.545898438 596.377929688 356.873046875 584.703125 c 132,-1,18
 369.198242188 573.02734375 369.198242188 573.02734375 376.334960938 556.619140625 c 132,-1,19
 383.469726562 540.2109375 383.469726562 540.2109375 383.469726562 519.385742188 c 260,0,1
246.58984375 519.385742188 m 260,20,21
 246.58984375 494.7734375 246.58984375 494.7734375 259.239257812 481.205078125 c 132,-1,22
 271.889648438 467.63671875 271.889648438 467.63671875 292 467.63671875 c 260,23,24
 312.110351562 467.63671875 312.110351562 467.63671875 324.759765625 481.205078125 c 132,-1,25
 337.411132812 494.7734375 337.411132812 494.7734375 337.411132812 519.385742188 c 260,26,27
 337.411132812 543.998046875 337.411132812 543.998046875 324.759765625 557.56640625 c 132,-1,28
 312.110351562 571.134765625 312.110351562 571.134765625 292 571.134765625 c 260,29,30
 271.889648438 571.134765625 271.889648438 571.134765625 259.239257812 557.56640625 c 132,-1,31
 246.58984375 543.998046875 246.58984375 543.998046875 246.58984375 519.385742188 c 260,20,21
347 8 m 1,32,-1
 347 8 l 1,33,34
 342 4 342 4 328 -0.5 c 128,-1,35
 314 -5 314 -5 297 -5 c 0,36,37
 278 -5 278 -5 263 0.5 c 128,-1,38
 248 6 248 6 243 17 c 0,39,40
 227 48 227 48 205.5 100 c 128,-1,41
 184 152 184 152 159.5 216.5 c 128,-1,42
 135 281 135 281 111 348.5 c 128,-1,43
 87 416 87 416 66.5 479.5 c 128,-1,44
 46 543 46 543 31 592 c 1,45,46
 37 600 37 600 49 607 c 128,-1,47
 61 614 61 614 76 614 c 0,48,49
 95 614 95 614 104 605 c 128,-1,50
 113 596 113 596 119 578 c 0,51,52
 163 448 163 448 204.5 325 c 128,-1,53
 246 202 246 202 295 77 c 1,54,-1
 299 77 l 1,55,56
 328 153 328 153 359.5 241.5 c 128,-1,57
 391 330 391 330 420.5 424 c 128,-1,58
 450 518 450 518 473 607 c 1,59,60
 480 611 480 611 488.5 612.5 c 128,-1,61
 497 614 497 614 507 614 c 0,62,63
 525 614 525 614 536 605 c 128,-1,64
 547 596 547 596 547 578 c 0,65,66
 547 563 547 563 536 522 c 128,-1,67
 525 481 525 481 506.5 425 c 128,-1,68
 488 369 488 369 466 307 c 128,-1,69
 444 245 444 245 421 185.5 c 128,-1,70
 398 126 398 126 379 79.5 c 128,-1,71
 360 33 360 33 347 8 c 1,32,-1
EndSplineSet
EndChar

StartChar: x
Encoding: 120 120 91
Width: 482
Flags: W
LayerCount: 2
Fore
SplineSet
214 261 m 1,0,-1
 229 268 l 1,1,2
 270 321 270 321 306 367 c 128,-1,3
 342 413 342 413 380 468 c 0,4,5
 384 469 384 469 386 469 c 128,-1,6
 388 469 388 469 391 469 c 0,7,8
 412 469 412 469 424 459.5 c 128,-1,9
 436 450 436 450 436 434 c 0,10,11
 436 423 436 423 431.5 413 c 128,-1,12
 427 403 427 403 417 390 c 0,13,14
 383 348 383 348 347.5 305 c 128,-1,15
 312 262 312 262 278 221 c 1,16,-1
 252 199 l 1,17,18
 215 150 215 150 176 97.5 c 128,-1,19
 137 45 137 45 101 -5 c 0,20,21
 97 -5 97 -5 94 -5 c 128,-1,22
 91 -5 91 -5 87 -5 c 0,23,24
 64 -5 64 -5 52.5 5 c 128,-1,25
 41 15 41 15 41 30 c 0,26,27
 41 38 41 38 44.5 47 c 128,-1,28
 48 56 48 56 61 72 c 0,29,30
 97 120 97 120 137 166.5 c 128,-1,31
 177 213 177 213 214 261 c 1,0,-1
263 259 m 1,32,-1
 281 247 l 1,33,34
 322 193 322 193 363.5 140.5 c 128,-1,35
 405 88 405 88 446 35 c 1,36,37
 444 16 444 16 433 5 c 128,-1,38
 422 -6 422 -6 404 -6 c 0,39,40
 388 -6 388 -6 377 2.5 c 128,-1,41
 366 11 366 11 352 29 c 0,42,43
 322 71 322 71 288.5 118 c 128,-1,44
 255 165 255 165 225 206 c 1,45,-1
 202 227 l 1,46,47
 158 280 158 280 120 328 c 128,-1,48
 82 376 82 376 42 427 c 1,49,50
 46 447 46 447 57 458 c 128,-1,51
 68 469 68 469 84 469 c 0,52,53
 101 469 101 469 111 460.5 c 128,-1,54
 121 452 121 452 131 438 c 0,55,56
 161 398 161 398 194 350.5 c 128,-1,57
 227 303 227 303 263 259 c 1,32,-1
EndSplineSet
EndChar

StartChar: y
Encoding: 121 121 92
Width: 918
Flags: W
LayerCount: 2
Fore
SplineSet
122 559 m 0,0,1
 160 559 160 559 160 518 c 2,2,-1
 160 160 l 2,3,4
 160 112 160 112 186 85 c 128,-1,5
 212 58 212 58 256 58 c 0,6,7
 297 58 297 58 325.5 86.5 c 128,-1,8
 354 115 354 115 361 169 c 1,9,-1
 381 80 l 1,10,11
 371 43 371 43 333.5 18 c 128,-1,12
 296 -7 296 -7 248 -7 c 0,13,14
 172 -7 172 -7 128.5 35.5 c 128,-1,15
 85 78 85 78 85 151 c 2,16,-1
 85 553 l 1,17,18
 94 556 94 556 104 557.5 c 128,-1,19
 114 559 114 559 122 559 c 0,0,1
389 559 m 0,20,21
 429 559 429 559 429 518 c 2,22,-1
 429 66 l 1,23,-1
 751 66 l 1,24,-1
 751 553 l 1,25,26
 759 556 759 556 770 557.5 c 128,-1,27
 781 559 781 559 788 559 c 0,28,29
 828 559 828 559 828 518 c 2,30,-1
 828 40 l 2,31,32
 828 18 828 18 817 9 c 128,-1,33
 806 0 806 0 783 0 c 2,34,-1
 442 0 l 2,35,36
 399 0 399 0 384 25 c 128,-1,37
 369 50 369 50 365 88 c 1,38,-1
 353 88 l 1,39,-1
 353 553 l 1,40,41
 361 556 361 556 371.5 557.5 c 128,-1,42
 382 559 382 559 389 559 c 0,20,21
EndSplineSet
EndChar

StartChar: z
Encoding: 122 122 93
Width: 887
Flags: W
LayerCount: 2
Fore
SplineSet
205 365 m 256,0,1
 242 365 242 365 263.5 342 c 128,-1,2
 285 319 285 319 285 284 c 256,3,4
 285 249 285 249 263.5 226 c 128,-1,5
 242 203 242 203 205 203 c 256,6,7
 168 203 168 203 146 226 c 128,-1,8
 124 249 124 249 124 285 c 0,9,10
 124 320 124 320 146 342.5 c 128,-1,11
 168 365 168 365 205 365 c 256,0,1
271 565 m 0,12,13
 204 565 204 565 153 537 c 128,-1,14
 102 509 102 509 73.5 457.5 c 128,-1,15
 45 406 45 406 45 337 c 0,16,17
 45 277 45 277 66 233.5 c 128,-1,18
 87 190 87 190 123.5 166.5 c 128,-1,19
 160 143 160 143 205 143 c 0,20,21
 249 143 249 143 282.5 161 c 128,-1,22
 316 179 316 179 335 211.5 c 128,-1,23
 354 244 354 244 354 287 c 0,24,25
 354 328 354 328 337 358.5 c 128,-1,26
 320 389 320 389 289.5 406.5 c 128,-1,27
 259 424 259 424 218 424 c 0,28,29
 180 424 180 424 147 404.5 c 128,-1,30
 114 385 114 385 100 348 c 1,31,32
 107 421 107 421 154.5 462.5 c 128,-1,33
 202 504 202 504 268 504 c 0,34,35
 348 504 348 504 393 455 c 128,-1,36
 438 406 438 406 438 322 c 2,37,-1
 438 231 l 1,38,39
 443 225 443 225 453.5 222 c 128,-1,40
 464 219 464 219 474 219 c 0,41,42
 485 219 485 219 495 222 c 128,-1,43
 505 225 505 225 511 231 c 1,44,-1
 511 345 l 2,45,46
 511 415 511 415 547.5 457.5 c 128,-1,47
 584 500 584 500 642 500 c 0,48,49
 702 500 702 500 736 464.5 c 128,-1,50
 770 429 770 429 770 363 c 0,51,52
 770 284 770 284 709 232.5 c 128,-1,53
 648 181 648 181 532 155 c 2,54,-1
 301 103 l 2,55,56
 189 78 189 78 128 24 c 128,-1,57
 67 -30 67 -30 67 -116 c 0,58,59
 67 -173 67 -173 93 -214.5 c 128,-1,60
 119 -256 119 -256 164 -278.5 c 128,-1,61
 209 -301 209 -301 266 -301 c 0,62,63
 337 -301 337 -301 388.5 -269.5 c 128,-1,64
 440 -238 440 -238 489 -174 c 2,65,-1
 505 -154 l 1,66,-1
 545 -110 l 1,67,68
 564 -73 564 -73 596.5 -49.5 c 128,-1,69
 629 -26 629 -26 667 -26 c 0,70,71
 714 -26 714 -26 742 -55.5 c 128,-1,72
 770 -85 770 -85 770 -132 c 256,73,74
 770 -179 770 -179 742.5 -208.5 c 128,-1,75
 715 -238 715 -238 671 -238 c 0,76,77
 618 -238 618 -238 585 -201.5 c 128,-1,78
 552 -165 552 -165 552 -104 c 0,79,80
 552 -99 552 -99 553 -90.5 c 128,-1,81
 554 -82 554 -82 556 -77 c 2,82,-1
 495 -138 l 1,83,84
 498 -183 498 -183 520.5 -220 c 128,-1,85
 543 -257 543 -257 581.5 -279 c 128,-1,86
 620 -301 620 -301 671 -301 c 0,87,88
 724 -301 724 -301 763 -280 c 128,-1,89
 802 -259 802 -259 823.5 -220.5 c 128,-1,90
 845 -182 845 -182 845 -132 c 0,91,92
 845 -81 845 -81 823 -42.5 c 128,-1,93
 801 -4 801 -4 762 17.5 c 128,-1,94
 723 39 723 39 671 39 c 256,95,96
 619 39 619 39 574 11 c 128,-1,97
 529 -17 529 -17 482 -78 c 2,98,-1
 426 -148 l 2,99,100
 391 -193 391 -193 351.5 -215 c 128,-1,101
 312 -237 312 -237 270 -237 c 0,102,103
 212 -237 212 -237 177.5 -203.5 c 128,-1,104
 143 -170 143 -170 143 -117 c 0,105,106
 143 -49 143 -49 190.5 -12.5 c 128,-1,107
 238 24 238 24 323 43 c 2,108,-1
 568 95 l 2,109,110
 646 112 646 112 708.5 144.5 c 128,-1,111
 771 177 771 177 808 230 c 128,-1,112
 845 283 845 283 845 360 c 0,113,114
 845 424 845 424 820 470 c 128,-1,115
 795 516 795 516 752 540.5 c 128,-1,116
 709 565 709 565 653 565 c 0,117,118
 581 565 581 565 535.5 527 c 128,-1,119
 490 489 490 489 474 437 c 1,120,121
 449 491 449 491 398.5 528 c 128,-1,122
 348 565 348 565 271 565 c 0,12,13
EndSplineSet
EndChar

StartChar: braceleft
Encoding: 123 123 94
Width: 281
Flags: W
LayerCount: 2
Fore
SplineSet
122 275 m 1,0,1
 155 258 155 258 173.5 223.5 c 128,-1,2
 192 189 192 189 192 136 c 2,3,-1
 192 5 l 2,4,5
 192 -30 192 -30 205.5 -44.5 c 128,-1,6
 219 -59 219 -59 248 -60 c 1,7,8
 250 -66 250 -66 250.5 -71.5 c 128,-1,9
 251 -77 251 -77 251 -83 c 0,10,11
 251 -97 251 -97 242 -106 c 128,-1,12
 233 -115 233 -115 215 -115 c 0,13,14
 173 -115 173 -115 146.5 -85 c 128,-1,15
 120 -55 120 -55 120 5 c 2,16,-1
 120 128 l 2,17,18
 120 181 120 181 101 209.5 c 128,-1,19
 82 238 82 238 44 244 c 1,20,21
 40 249 40 249 38.5 258.5 c 128,-1,22
 37 268 37 268 37 275 c 256,23,24
 37 282 37 282 39 291 c 128,-1,25
 41 300 41 300 44 306 c 1,26,27
 82 312 82 312 101 340.5 c 128,-1,28
 120 369 120 369 120 421 c 2,29,-1
 120 537 l 2,30,31
 120 597 120 597 146.5 626.5 c 128,-1,32
 173 656 173 656 215 656 c 0,33,34
 233 656 233 656 242 647.5 c 128,-1,35
 251 639 251 639 251 624 c 0,36,37
 251 618 251 618 250.5 612.5 c 128,-1,38
 250 607 250 607 248 601 c 1,39,40
 219 601 219 601 205.5 586.5 c 128,-1,41
 192 572 192 572 192 536 c 2,42,-1
 192 414 l 2,43,44
 192 361 192 361 173.5 326.5 c 128,-1,45
 155 292 155 292 122 275 c 1,0,1
EndSplineSet
Substitution2: "'rtla' Right to Left Alternates lookup 0 subtable" braceright
EndChar

StartChar: bar
Encoding: 124 124 95
Width: 251
Flags: W
LayerCount: 2
Fore
SplineSet
162 641 m 2,0,-1
 162 -180 l 1,1,2
 155 -183 155 -183 146.5 -185 c 128,-1,3
 138 -187 138 -187 127 -187 c 0,4,5
 108 -187 108 -187 98.5 -178 c 128,-1,6
 89 -169 89 -169 89 -147 c 2,7,-1
 89 674 l 1,8,9
 97 677 97 677 105 679 c 128,-1,10
 113 681 113 681 124 681 c 0,11,12
 144 681 144 681 153 672 c 128,-1,13
 162 663 162 663 162 641 c 2,0,-1
EndSplineSet
EndChar

StartChar: braceright
Encoding: 125 125 96
Width: 281
Flags: W
LayerCount: 2
Fore
SplineSet
159 275 m 1,0,1
 126 292 126 292 107.5 326.5 c 128,-1,2
 89 361 89 361 89 414 c 2,3,-1
 89 536 l 2,4,5
 89 572 89 572 75.5 586.5 c 128,-1,6
 62 601 62 601 33 601 c 1,7,8
 32 607 32 607 31 612.5 c 128,-1,9
 30 618 30 618 30 624 c 0,10,11
 30 639 30 639 39 647.5 c 128,-1,12
 48 656 48 656 66 656 c 0,13,14
 108 656 108 656 134.5 626.5 c 128,-1,15
 161 597 161 597 161 537 c 2,16,-1
 161 421 l 2,17,18
 161 369 161 369 180 340.5 c 128,-1,19
 199 312 199 312 237 306 c 1,20,21
 240 300 240 300 242 291 c 128,-1,22
 244 282 244 282 244 275 c 256,23,24
 244 268 244 268 242.5 258.5 c 128,-1,25
 241 249 241 249 237 244 c 1,26,27
 199 238 199 238 180 209.5 c 128,-1,28
 161 181 161 181 161 128 c 2,29,-1
 161 5 l 2,30,31
 161 -55 161 -55 134.5 -85 c 128,-1,32
 108 -115 108 -115 66 -115 c 0,33,34
 48 -115 48 -115 39 -106 c 128,-1,35
 30 -97 30 -97 30 -83 c 0,36,37
 30 -77 30 -77 31 -71.5 c 128,-1,38
 32 -66 32 -66 33 -60 c 1,39,40
 62 -59 62 -59 75.5 -44.5 c 128,-1,41
 89 -30 89 -30 89 5 c 2,42,-1
 89 136 l 2,43,44
 89 189 89 189 107.5 223.5 c 128,-1,45
 126 258 126 258 159 275 c 1,0,1
EndSplineSet
Substitution2: "'rtla' Right to Left Alternates lookup 0 subtable" braceleft
EndChar

StartChar: asciitilde
Encoding: 126 126 97
Width: 448
Flags: W
LayerCount: 2
Fore
SplineSet
312 282 m 0,0,1
 339 282 339 282 350.5 296.5 c 128,-1,2
 362 311 362 311 370 327 c 1,3,4
 392 327 392 327 407.5 315 c 128,-1,5
 423 303 423 303 423 283 c 0,6,7
 423 252 423 252 397 232.5 c 128,-1,8
 371 213 371 213 329 213 c 0,9,10
 289 213 289 213 255 223.5 c 128,-1,11
 221 234 221 234 192 244 c 128,-1,12
 163 254 163 254 136 254 c 256,13,14
 109 254 109 254 97.5 239.5 c 128,-1,15
 86 225 86 225 78 209 c 1,16,17
 56 209 56 209 40.5 221 c 128,-1,18
 25 233 25 233 25 253 c 0,19,20
 25 274 25 274 37 290 c 128,-1,21
 49 306 49 306 70.5 314.5 c 128,-1,22
 92 323 92 323 119 323 c 0,23,24
 160 323 160 323 194 313 c 128,-1,25
 228 303 228 303 257 292.5 c 128,-1,26
 286 282 286 282 312 282 c 0,0,1
EndSplineSet
EndChar

StartChar: uni0080
Encoding: 128 128 99
Width: 1209
Flags: W
LayerCount: 2
Fore
SplineSet
343 45 m 256,0,1
 343 62 343 62 365 77 c 128,-1,2
 387 92 387 92 424.5 103.5 c 128,-1,3
 462 115 462 115 513.5 121.5 c 128,-1,4
 565 128 565 128 624 128 c 0,5,6
 684 128 684 128 735 121.5 c 128,-1,7
 786 115 786 115 824 103.5 c 128,-1,8
 862 92 862 92 883.5 77 c 128,-1,9
 905 62 905 62 905 45 c 256,10,11
 905 28 905 28 883.5 13 c 128,-1,12
 862 -2 862 -2 824 -13 c 128,-1,13
 786 -24 786 -24 735 -30.5 c 128,-1,14
 684 -37 684 -37 624 -37 c 0,15,16
 565 -37 565 -37 513.5 -30.5 c 128,-1,17
 462 -24 462 -24 424.5 -13 c 128,-1,18
 387 -2 387 -2 365 13 c 128,-1,19
 343 28 343 28 343 45 c 256,0,1
453 45 m 256,20,21
 453 34 453 34 466 24.5 c 128,-1,22
 479 15 479 15 502 8 c 128,-1,23
 525 1 525 1 556.5 -3 c 128,-1,24
 588 -7 588 -7 624 -7 c 0,25,26
 661 -7 661 -7 692 -3 c 128,-1,27
 723 1 723 1 746 8 c 128,-1,28
 769 15 769 15 782 24.5 c 128,-1,29
 795 34 795 34 795 45 c 256,30,31
 795 56 795 56 782 65.5 c 128,-1,32
 769 75 769 75 746 82 c 128,-1,33
 723 89 723 89 692 93 c 128,-1,34
 661 97 661 97 624 97 c 0,35,36
 588 97 588 97 556.5 93 c 128,-1,37
 525 89 525 89 502 82 c 128,-1,38
 479 75 479 75 466 65.5 c 128,-1,39
 453 56 453 56 453 45 c 256,20,21
343 231 m 256,40,41
 343 248 343 248 365 263 c 128,-1,42
 387 278 387 278 424.5 289.5 c 128,-1,43
 462 301 462 301 513.5 307 c 128,-1,44
 565 313 565 313 624 313 c 0,45,46
 684 313 684 313 735 307 c 128,-1,47
 786 301 786 301 824 289.5 c 128,-1,48
 862 278 862 278 883.5 263 c 128,-1,49
 905 248 905 248 905 231 c 256,50,51
 905 214 905 214 883.5 199 c 128,-1,52
 862 184 862 184 824 173 c 128,-1,53
 786 162 786 162 735 155 c 128,-1,54
 684 148 684 148 624 148 c 0,55,56
 565 148 565 148 513.5 155 c 128,-1,57
 462 162 462 162 424.5 173 c 128,-1,58
 387 184 387 184 365 199 c 128,-1,59
 343 214 343 214 343 231 c 256,40,41
453 230 m 0,60,61
 453 220 453 220 466 210.5 c 128,-1,62
 479 201 479 201 502 194 c 128,-1,63
 525 187 525 187 556.5 183 c 128,-1,64
 588 179 588 179 624 179 c 0,65,66
 661 179 661 179 692 183 c 128,-1,67
 723 187 723 187 746 194 c 128,-1,68
 769 201 769 201 782 210.5 c 128,-1,69
 795 220 795 220 795 230 c 0,70,71
 795 241 795 241 782 250.5 c 128,-1,72
 769 260 769 260 746 267 c 128,-1,73
 723 274 723 274 692 278 c 128,-1,74
 661 282 661 282 624 282 c 0,75,76
 588 282 588 282 556.5 278 c 128,-1,77
 525 274 525 274 502 267 c 128,-1,78
 479 260 479 260 466 250.5 c 128,-1,79
 453 241 453 241 453 230 c 0,60,61
343 418 m 256,80,81
 343 435 343 435 365 450.5 c 128,-1,82
 387 466 387 466 424.5 477 c 128,-1,83
 462 488 462 488 513.5 494.5 c 128,-1,84
 565 501 565 501 624 501 c 0,85,86
 684 501 684 501 735 494.5 c 128,-1,87
 786 488 786 488 824 477 c 128,-1,88
 862 466 862 466 883.5 450.5 c 128,-1,89
 905 435 905 435 905 418 c 256,90,91
 905 401 905 401 883.5 386 c 128,-1,92
 862 371 862 371 824 360 c 128,-1,93
 786 349 786 349 735 342.5 c 128,-1,94
 684 336 684 336 624 336 c 0,95,96
 565 336 565 336 513.5 342.5 c 128,-1,97
 462 349 462 349 424.5 360 c 128,-1,98
 387 371 387 371 365 386 c 128,-1,99
 343 401 343 401 343 418 c 256,80,81
453 418 m 256,100,101
 453 407 453 407 466 397.5 c 128,-1,102
 479 388 479 388 502 381.5 c 128,-1,103
 525 375 525 375 556.5 371 c 128,-1,104
 588 367 588 367 624 367 c 0,105,106
 661 367 661 367 692 371 c 128,-1,107
 723 375 723 375 746 381.5 c 128,-1,108
 769 388 769 388 782 397.5 c 128,-1,109
 795 407 795 407 795 418 c 256,110,111
 795 429 795 429 782 438.5 c 128,-1,112
 769 448 769 448 746 455 c 128,-1,113
 723 462 723 462 692 466 c 128,-1,114
 661 470 661 470 624 470 c 0,115,116
 588 470 588 470 556.5 466 c 128,-1,117
 525 462 525 462 502 455 c 128,-1,118
 479 448 479 448 466 438.5 c 128,-1,119
 453 429 453 429 453 418 c 256,100,101
343 604 m 256,120,121
 343 621 343 621 365 636 c 128,-1,122
 387 651 387 651 424.5 662.5 c 128,-1,123
 462 674 462 674 513.5 680 c 128,-1,124
 565 686 565 686 624 686 c 0,125,126
 684 686 684 686 735 680 c 128,-1,127
 786 674 786 674 824 662.5 c 128,-1,128
 862 651 862 651 883.5 636 c 128,-1,129
 905 621 905 621 905 604 c 256,130,131
 905 587 905 587 883.5 572 c 128,-1,132
 862 557 862 557 824 546 c 128,-1,133
 786 535 786 535 735 528.5 c 128,-1,134
 684 522 684 522 624 522 c 0,135,136
 565 522 565 522 513.5 528.5 c 128,-1,137
 462 535 462 535 424.5 546 c 128,-1,138
 387 557 387 557 365 572 c 128,-1,139
 343 587 343 587 343 604 c 256,120,121
453 604 m 0,140,141
 453 593 453 593 466 583.5 c 128,-1,142
 479 574 479 574 502 567 c 128,-1,143
 525 560 525 560 556.5 556 c 128,-1,144
 588 552 588 552 624 552 c 0,145,146
 661 552 661 552 692 556 c 128,-1,147
 723 560 723 560 746 567 c 128,-1,148
 769 574 769 574 782 583.5 c 128,-1,149
 795 593 795 593 795 604 c 0,150,151
 795 614 795 614 782 623.5 c 128,-1,152
 769 633 769 633 746 640.5 c 128,-1,153
 723 648 723 648 692 651.5 c 128,-1,154
 661 655 661 655 624 655 c 0,155,156
 588 655 588 655 556.5 651.5 c 128,-1,157
 525 648 525 648 502 640.5 c 128,-1,158
 479 633 479 633 466 623.5 c 128,-1,159
 453 614 453 614 453 604 c 0,140,141
EndSplineSet
EndChar

StartChar: uni0081
Encoding: 129 129 100
Width: 1209
Flags: W
LayerCount: 2
Fore
SplineSet
343 45 m 256,0,1
 343 62 343 62 365 77 c 128,-1,2
 387 92 387 92 424.5 103.5 c 128,-1,3
 462 115 462 115 513.5 121.5 c 128,-1,4
 565 128 565 128 624 128 c 0,5,6
 684 128 684 128 735 121.5 c 128,-1,7
 786 115 786 115 824 103.5 c 128,-1,8
 862 92 862 92 883.5 77 c 128,-1,9
 905 62 905 62 905 45 c 256,10,11
 905 28 905 28 883.5 13 c 128,-1,12
 862 -2 862 -2 824 -13 c 128,-1,13
 786 -24 786 -24 735 -30.5 c 128,-1,14
 684 -37 684 -37 624 -37 c 0,15,16
 565 -37 565 -37 513.5 -30.5 c 128,-1,17
 462 -24 462 -24 424.5 -13 c 128,-1,18
 387 -2 387 -2 365 13 c 128,-1,19
 343 28 343 28 343 45 c 256,0,1
343 231 m 256,20,21
 343 248 343 248 365 263 c 128,-1,22
 387 278 387 278 424.5 289.5 c 128,-1,23
 462 301 462 301 513.5 307 c 128,-1,24
 565 313 565 313 624 313 c 0,25,26
 684 313 684 313 735 307 c 128,-1,27
 786 301 786 301 824 289.5 c 128,-1,28
 862 278 862 278 883.5 263 c 128,-1,29
 905 248 905 248 905 231 c 256,30,31
 905 214 905 214 883.5 199 c 128,-1,32
 862 184 862 184 824 173 c 128,-1,33
 786 162 786 162 735 155 c 128,-1,34
 684 148 684 148 624 148 c 0,35,36
 565 148 565 148 513.5 155 c 128,-1,37
 462 162 462 162 424.5 173 c 128,-1,38
 387 184 387 184 365 199 c 128,-1,39
 343 214 343 214 343 231 c 256,20,21
453 230 m 0,40,41
 453 220 453 220 466 210.5 c 128,-1,42
 479 201 479 201 502 194 c 128,-1,43
 525 187 525 187 556.5 183 c 128,-1,44
 588 179 588 179 624 179 c 0,45,46
 661 179 661 179 692 183 c 128,-1,47
 723 187 723 187 746 194 c 128,-1,48
 769 201 769 201 782 210.5 c 128,-1,49
 795 220 795 220 795 230 c 0,50,51
 795 241 795 241 782 250.5 c 128,-1,52
 769 260 769 260 746 267 c 128,-1,53
 723 274 723 274 692 278 c 128,-1,54
 661 282 661 282 624 282 c 0,55,56
 588 282 588 282 556.5 278 c 128,-1,57
 525 274 525 274 502 267 c 128,-1,58
 479 260 479 260 466 250.5 c 128,-1,59
 453 241 453 241 453 230 c 0,40,41
343 418 m 256,60,61
 343 435 343 435 365 450.5 c 128,-1,62
 387 466 387 466 424.5 477 c 128,-1,63
 462 488 462 488 513.5 494.5 c 128,-1,64
 565 501 565 501 624 501 c 0,65,66
 684 501 684 501 735 494.5 c 128,-1,67
 786 488 786 488 824 477 c 128,-1,68
 862 466 862 466 883.5 450.5 c 128,-1,69
 905 435 905 435 905 418 c 256,70,71
 905 401 905 401 883.5 386 c 128,-1,72
 862 371 862 371 824 360 c 128,-1,73
 786 349 786 349 735 342.5 c 128,-1,74
 684 336 684 336 624 336 c 0,75,76
 565 336 565 336 513.5 342.5 c 128,-1,77
 462 349 462 349 424.5 360 c 128,-1,78
 387 371 387 371 365 386 c 128,-1,79
 343 401 343 401 343 418 c 256,60,61
453 418 m 256,80,81
 453 407 453 407 466 397.5 c 128,-1,82
 479 388 479 388 502 381.5 c 128,-1,83
 525 375 525 375 556.5 371 c 128,-1,84
 588 367 588 367 624 367 c 0,85,86
 661 367 661 367 692 371 c 128,-1,87
 723 375 723 375 746 381.5 c 128,-1,88
 769 388 769 388 782 397.5 c 128,-1,89
 795 407 795 407 795 418 c 256,90,91
 795 429 795 429 782 438.5 c 128,-1,92
 769 448 769 448 746 455 c 128,-1,93
 723 462 723 462 692 466 c 128,-1,94
 661 470 661 470 624 470 c 0,95,96
 588 470 588 470 556.5 466 c 128,-1,97
 525 462 525 462 502 455 c 128,-1,98
 479 448 479 448 466 438.5 c 128,-1,99
 453 429 453 429 453 418 c 256,80,81
343 604 m 256,100,101
 343 621 343 621 365 636 c 128,-1,102
 387 651 387 651 424.5 662.5 c 128,-1,103
 462 674 462 674 513.5 680 c 128,-1,104
 565 686 565 686 624 686 c 0,105,106
 684 686 684 686 735 680 c 128,-1,107
 786 674 786 674 824 662.5 c 128,-1,108
 862 651 862 651 883.5 636 c 128,-1,109
 905 621 905 621 905 604 c 256,110,111
 905 587 905 587 883.5 572 c 128,-1,112
 862 557 862 557 824 546 c 128,-1,113
 786 535 786 535 735 528.5 c 128,-1,114
 684 522 684 522 624 522 c 0,115,116
 565 522 565 522 513.5 528.5 c 128,-1,117
 462 535 462 535 424.5 546 c 128,-1,118
 387 557 387 557 365 572 c 128,-1,119
 343 587 343 587 343 604 c 256,100,101
453 604 m 0,120,121
 453 593 453 593 466 583.5 c 128,-1,122
 479 574 479 574 502 567 c 128,-1,123
 525 560 525 560 556.5 556 c 128,-1,124
 588 552 588 552 624 552 c 0,125,126
 661 552 661 552 692 556 c 128,-1,127
 723 560 723 560 746 567 c 128,-1,128
 769 574 769 574 782 583.5 c 128,-1,129
 795 593 795 593 795 604 c 0,130,131
 795 614 795 614 782 623.5 c 128,-1,132
 769 633 769 633 746 640.5 c 128,-1,133
 723 648 723 648 692 651.5 c 128,-1,134
 661 655 661 655 624 655 c 0,135,136
 588 655 588 655 556.5 651.5 c 128,-1,137
 525 648 525 648 502 640.5 c 128,-1,138
 479 633 479 633 466 623.5 c 128,-1,139
 453 614 453 614 453 604 c 0,120,121
EndSplineSet
EndChar

StartChar: uni0082
Encoding: 130 130 101
Width: 1209
Flags: W
LayerCount: 2
Fore
SplineSet
343 45 m 256,0,1
 343 62 343 62 365 77 c 128,-1,2
 387 92 387 92 424.5 103.5 c 128,-1,3
 462 115 462 115 513.5 121.5 c 128,-1,4
 565 128 565 128 624 128 c 0,5,6
 684 128 684 128 735 121.5 c 128,-1,7
 786 115 786 115 824 103.5 c 128,-1,8
 862 92 862 92 883.5 77 c 128,-1,9
 905 62 905 62 905 45 c 256,10,11
 905 28 905 28 883.5 13 c 128,-1,12
 862 -2 862 -2 824 -13 c 128,-1,13
 786 -24 786 -24 735 -30.5 c 128,-1,14
 684 -37 684 -37 624 -37 c 0,15,16
 565 -37 565 -37 513.5 -30.5 c 128,-1,17
 462 -24 462 -24 424.5 -13 c 128,-1,18
 387 -2 387 -2 365 13 c 128,-1,19
 343 28 343 28 343 45 c 256,0,1
453 45 m 256,20,21
 453 34 453 34 466 24.5 c 128,-1,22
 479 15 479 15 502 8 c 128,-1,23
 525 1 525 1 556.5 -3 c 128,-1,24
 588 -7 588 -7 624 -7 c 0,25,26
 661 -7 661 -7 692 -3 c 128,-1,27
 723 1 723 1 746 8 c 128,-1,28
 769 15 769 15 782 24.5 c 128,-1,29
 795 34 795 34 795 45 c 256,30,31
 795 56 795 56 782 65.5 c 128,-1,32
 769 75 769 75 746 82 c 128,-1,33
 723 89 723 89 692 93 c 128,-1,34
 661 97 661 97 624 97 c 0,35,36
 588 97 588 97 556.5 93 c 128,-1,37
 525 89 525 89 502 82 c 128,-1,38
 479 75 479 75 466 65.5 c 128,-1,39
 453 56 453 56 453 45 c 256,20,21
343 231 m 256,40,41
 343 248 343 248 365 263 c 128,-1,42
 387 278 387 278 424.5 289.5 c 128,-1,43
 462 301 462 301 513.5 307 c 128,-1,44
 565 313 565 313 624 313 c 0,45,46
 684 313 684 313 735 307 c 128,-1,47
 786 301 786 301 824 289.5 c 128,-1,48
 862 278 862 278 883.5 263 c 128,-1,49
 905 248 905 248 905 231 c 256,50,51
 905 214 905 214 883.5 199 c 128,-1,52
 862 184 862 184 824 173 c 128,-1,53
 786 162 786 162 735 155 c 128,-1,54
 684 148 684 148 624 148 c 0,55,56
 565 148 565 148 513.5 155 c 128,-1,57
 462 162 462 162 424.5 173 c 128,-1,58
 387 184 387 184 365 199 c 128,-1,59
 343 214 343 214 343 231 c 256,40,41
343 418 m 256,60,61
 343 435 343 435 365 450.5 c 128,-1,62
 387 466 387 466 424.5 477 c 128,-1,63
 462 488 462 488 513.5 494.5 c 128,-1,64
 565 501 565 501 624 501 c 0,65,66
 684 501 684 501 735 494.5 c 128,-1,67
 786 488 786 488 824 477 c 128,-1,68
 862 466 862 466 883.5 450.5 c 128,-1,69
 905 435 905 435 905 418 c 256,70,71
 905 401 905 401 883.5 386 c 128,-1,72
 862 371 862 371 824 360 c 128,-1,73
 786 349 786 349 735 342.5 c 128,-1,74
 684 336 684 336 624 336 c 0,75,76
 565 336 565 336 513.5 342.5 c 128,-1,77
 462 349 462 349 424.5 360 c 128,-1,78
 387 371 387 371 365 386 c 128,-1,79
 343 401 343 401 343 418 c 256,60,61
453 418 m 256,80,81
 453 407 453 407 466 397.5 c 128,-1,82
 479 388 479 388 502 381.5 c 128,-1,83
 525 375 525 375 556.5 371 c 128,-1,84
 588 367 588 367 624 367 c 0,85,86
 661 367 661 367 692 371 c 128,-1,87
 723 375 723 375 746 381.5 c 128,-1,88
 769 388 769 388 782 397.5 c 128,-1,89
 795 407 795 407 795 418 c 256,90,91
 795 429 795 429 782 438.5 c 128,-1,92
 769 448 769 448 746 455 c 128,-1,93
 723 462 723 462 692 466 c 128,-1,94
 661 470 661 470 624 470 c 0,95,96
 588 470 588 470 556.5 466 c 128,-1,97
 525 462 525 462 502 455 c 128,-1,98
 479 448 479 448 466 438.5 c 128,-1,99
 453 429 453 429 453 418 c 256,80,81
343 604 m 256,100,101
 343 621 343 621 365 636 c 128,-1,102
 387 651 387 651 424.5 662.5 c 128,-1,103
 462 674 462 674 513.5 680 c 128,-1,104
 565 686 565 686 624 686 c 0,105,106
 684 686 684 686 735 680 c 128,-1,107
 786 674 786 674 824 662.5 c 128,-1,108
 862 651 862 651 883.5 636 c 128,-1,109
 905 621 905 621 905 604 c 256,110,111
 905 587 905 587 883.5 572 c 128,-1,112
 862 557 862 557 824 546 c 128,-1,113
 786 535 786 535 735 528.5 c 128,-1,114
 684 522 684 522 624 522 c 0,115,116
 565 522 565 522 513.5 528.5 c 128,-1,117
 462 535 462 535 424.5 546 c 128,-1,118
 387 557 387 557 365 572 c 128,-1,119
 343 587 343 587 343 604 c 256,100,101
453 604 m 0,120,121
 453 593 453 593 466 583.5 c 128,-1,122
 479 574 479 574 502 567 c 128,-1,123
 525 560 525 560 556.5 556 c 128,-1,124
 588 552 588 552 624 552 c 0,125,126
 661 552 661 552 692 556 c 128,-1,127
 723 560 723 560 746 567 c 128,-1,128
 769 574 769 574 782 583.5 c 128,-1,129
 795 593 795 593 795 604 c 0,130,131
 795 614 795 614 782 623.5 c 128,-1,132
 769 633 769 633 746 640.5 c 128,-1,133
 723 648 723 648 692 651.5 c 128,-1,134
 661 655 661 655 624 655 c 0,135,136
 588 655 588 655 556.5 651.5 c 128,-1,137
 525 648 525 648 502 640.5 c 128,-1,138
 479 633 479 633 466 623.5 c 128,-1,139
 453 614 453 614 453 604 c 0,120,121
EndSplineSet
EndChar

StartChar: uni0083
Encoding: 131 131 102
Width: 1209
Flags: W
LayerCount: 2
Fore
SplineSet
343 45 m 256,0,1
 343 62 343 62 365 77 c 128,-1,2
 387 92 387 92 424.5 103.5 c 128,-1,3
 462 115 462 115 513.5 121.5 c 128,-1,4
 565 128 565 128 624 128 c 0,5,6
 684 128 684 128 735 121.5 c 128,-1,7
 786 115 786 115 824 103.5 c 128,-1,8
 862 92 862 92 883.5 77 c 128,-1,9
 905 62 905 62 905 45 c 256,10,11
 905 28 905 28 883.5 13 c 128,-1,12
 862 -2 862 -2 824 -13 c 128,-1,13
 786 -24 786 -24 735 -30.5 c 128,-1,14
 684 -37 684 -37 624 -37 c 0,15,16
 565 -37 565 -37 513.5 -30.5 c 128,-1,17
 462 -24 462 -24 424.5 -13 c 128,-1,18
 387 -2 387 -2 365 13 c 128,-1,19
 343 28 343 28 343 45 c 256,0,1
343 231 m 256,20,21
 343 248 343 248 365 263 c 128,-1,22
 387 278 387 278 424.5 289.5 c 128,-1,23
 462 301 462 301 513.5 307 c 128,-1,24
 565 313 565 313 624 313 c 0,25,26
 684 313 684 313 735 307 c 128,-1,27
 786 301 786 301 824 289.5 c 128,-1,28
 862 278 862 278 883.5 263 c 128,-1,29
 905 248 905 248 905 231 c 256,30,31
 905 214 905 214 883.5 199 c 128,-1,32
 862 184 862 184 824 173 c 128,-1,33
 786 162 786 162 735 155 c 128,-1,34
 684 148 684 148 624 148 c 0,35,36
 565 148 565 148 513.5 155 c 128,-1,37
 462 162 462 162 424.5 173 c 128,-1,38
 387 184 387 184 365 199 c 128,-1,39
 343 214 343 214 343 231 c 256,20,21
343 418 m 256,40,41
 343 435 343 435 365 450.5 c 128,-1,42
 387 466 387 466 424.5 477 c 128,-1,43
 462 488 462 488 513.5 494.5 c 128,-1,44
 565 501 565 501 624 501 c 0,45,46
 684 501 684 501 735 494.5 c 128,-1,47
 786 488 786 488 824 477 c 128,-1,48
 862 466 862 466 883.5 450.5 c 128,-1,49
 905 435 905 435 905 418 c 256,50,51
 905 401 905 401 883.5 386 c 128,-1,52
 862 371 862 371 824 360 c 128,-1,53
 786 349 786 349 735 342.5 c 128,-1,54
 684 336 684 336 624 336 c 0,55,56
 565 336 565 336 513.5 342.5 c 128,-1,57
 462 349 462 349 424.5 360 c 128,-1,58
 387 371 387 371 365 386 c 128,-1,59
 343 401 343 401 343 418 c 256,40,41
453 418 m 256,60,61
 453 407 453 407 466 397.5 c 128,-1,62
 479 388 479 388 502 381.5 c 128,-1,63
 525 375 525 375 556.5 371 c 128,-1,64
 588 367 588 367 624 367 c 0,65,66
 661 367 661 367 692 371 c 128,-1,67
 723 375 723 375 746 381.5 c 128,-1,68
 769 388 769 388 782 397.5 c 128,-1,69
 795 407 795 407 795 418 c 256,70,71
 795 429 795 429 782 438.5 c 128,-1,72
 769 448 769 448 746 455 c 128,-1,73
 723 462 723 462 692 466 c 128,-1,74
 661 470 661 470 624 470 c 0,75,76
 588 470 588 470 556.5 466 c 128,-1,77
 525 462 525 462 502 455 c 128,-1,78
 479 448 479 448 466 438.5 c 128,-1,79
 453 429 453 429 453 418 c 256,60,61
343 604 m 256,80,81
 343 621 343 621 365 636 c 128,-1,82
 387 651 387 651 424.5 662.5 c 128,-1,83
 462 674 462 674 513.5 680 c 128,-1,84
 565 686 565 686 624 686 c 0,85,86
 684 686 684 686 735 680 c 128,-1,87
 786 674 786 674 824 662.5 c 128,-1,88
 862 651 862 651 883.5 636 c 128,-1,89
 905 621 905 621 905 604 c 256,90,91
 905 587 905 587 883.5 572 c 128,-1,92
 862 557 862 557 824 546 c 128,-1,93
 786 535 786 535 735 528.5 c 128,-1,94
 684 522 684 522 624 522 c 0,95,96
 565 522 565 522 513.5 528.5 c 128,-1,97
 462 535 462 535 424.5 546 c 128,-1,98
 387 557 387 557 365 572 c 128,-1,99
 343 587 343 587 343 604 c 256,80,81
453 604 m 0,100,101
 453 593 453 593 466 583.5 c 128,-1,102
 479 574 479 574 502 567 c 128,-1,103
 525 560 525 560 556.5 556 c 128,-1,104
 588 552 588 552 624 552 c 0,105,106
 661 552 661 552 692 556 c 128,-1,107
 723 560 723 560 746 567 c 128,-1,108
 769 574 769 574 782 583.5 c 128,-1,109
 795 593 795 593 795 604 c 0,110,111
 795 614 795 614 782 623.5 c 128,-1,112
 769 633 769 633 746 640.5 c 128,-1,113
 723 648 723 648 692 651.5 c 128,-1,114
 661 655 661 655 624 655 c 0,115,116
 588 655 588 655 556.5 651.5 c 128,-1,117
 525 648 525 648 502 640.5 c 128,-1,118
 479 633 479 633 466 623.5 c 128,-1,119
 453 614 453 614 453 604 c 0,100,101
EndSplineSet
EndChar

StartChar: uni0084
Encoding: 132 132 103
Width: 1209
Flags: W
LayerCount: 2
Fore
SplineSet
343 45 m 256,0,1
 343 62 343 62 365 77 c 128,-1,2
 387 92 387 92 424.5 103.5 c 128,-1,3
 462 115 462 115 513.5 121.5 c 128,-1,4
 565 128 565 128 624 128 c 0,5,6
 684 128 684 128 735 121.5 c 128,-1,7
 786 115 786 115 824 103.5 c 128,-1,8
 862 92 862 92 883.5 77 c 128,-1,9
 905 62 905 62 905 45 c 256,10,11
 905 28 905 28 883.5 13 c 128,-1,12
 862 -2 862 -2 824 -13 c 128,-1,13
 786 -24 786 -24 735 -30.5 c 128,-1,14
 684 -37 684 -37 624 -37 c 0,15,16
 565 -37 565 -37 513.5 -30.5 c 128,-1,17
 462 -24 462 -24 424.5 -13 c 128,-1,18
 387 -2 387 -2 365 13 c 128,-1,19
 343 28 343 28 343 45 c 256,0,1
453 45 m 256,20,21
 453 34 453 34 466 24.5 c 128,-1,22
 479 15 479 15 502 8 c 128,-1,23
 525 1 525 1 556.5 -3 c 128,-1,24
 588 -7 588 -7 624 -7 c 0,25,26
 661 -7 661 -7 692 -3 c 128,-1,27
 723 1 723 1 746 8 c 128,-1,28
 769 15 769 15 782 24.5 c 128,-1,29
 795 34 795 34 795 45 c 256,30,31
 795 56 795 56 782 65.5 c 128,-1,32
 769 75 769 75 746 82 c 128,-1,33
 723 89 723 89 692 93 c 128,-1,34
 661 97 661 97 624 97 c 0,35,36
 588 97 588 97 556.5 93 c 128,-1,37
 525 89 525 89 502 82 c 128,-1,38
 479 75 479 75 466 65.5 c 128,-1,39
 453 56 453 56 453 45 c 256,20,21
343 231 m 256,40,41
 343 248 343 248 365 263 c 128,-1,42
 387 278 387 278 424.5 289.5 c 128,-1,43
 462 301 462 301 513.5 307 c 128,-1,44
 565 313 565 313 624 313 c 0,45,46
 684 313 684 313 735 307 c 128,-1,47
 786 301 786 301 824 289.5 c 128,-1,48
 862 278 862 278 883.5 263 c 128,-1,49
 905 248 905 248 905 231 c 256,50,51
 905 214 905 214 883.5 199 c 128,-1,52
 862 184 862 184 824 173 c 128,-1,53
 786 162 786 162 735 155 c 128,-1,54
 684 148 684 148 624 148 c 0,55,56
 565 148 565 148 513.5 155 c 128,-1,57
 462 162 462 162 424.5 173 c 128,-1,58
 387 184 387 184 365 199 c 128,-1,59
 343 214 343 214 343 231 c 256,40,41
453 230 m 0,60,61
 453 220 453 220 466 210.5 c 128,-1,62
 479 201 479 201 502 194 c 128,-1,63
 525 187 525 187 556.5 183 c 128,-1,64
 588 179 588 179 624 179 c 0,65,66
 661 179 661 179 692 183 c 128,-1,67
 723 187 723 187 746 194 c 128,-1,68
 769 201 769 201 782 210.5 c 128,-1,69
 795 220 795 220 795 230 c 0,70,71
 795 241 795 241 782 250.5 c 128,-1,72
 769 260 769 260 746 267 c 128,-1,73
 723 274 723 274 692 278 c 128,-1,74
 661 282 661 282 624 282 c 0,75,76
 588 282 588 282 556.5 278 c 128,-1,77
 525 274 525 274 502 267 c 128,-1,78
 479 260 479 260 466 250.5 c 128,-1,79
 453 241 453 241 453 230 c 0,60,61
343 418 m 256,80,81
 343 435 343 435 365 450.5 c 128,-1,82
 387 466 387 466 424.5 477 c 128,-1,83
 462 488 462 488 513.5 494.5 c 128,-1,84
 565 501 565 501 624 501 c 0,85,86
 684 501 684 501 735 494.5 c 128,-1,87
 786 488 786 488 824 477 c 128,-1,88
 862 466 862 466 883.5 450.5 c 128,-1,89
 905 435 905 435 905 418 c 256,90,91
 905 401 905 401 883.5 386 c 128,-1,92
 862 371 862 371 824 360 c 128,-1,93
 786 349 786 349 735 342.5 c 128,-1,94
 684 336 684 336 624 336 c 0,95,96
 565 336 565 336 513.5 342.5 c 128,-1,97
 462 349 462 349 424.5 360 c 128,-1,98
 387 371 387 371 365 386 c 128,-1,99
 343 401 343 401 343 418 c 256,80,81
343 604 m 256,100,101
 343 621 343 621 365 636 c 128,-1,102
 387 651 387 651 424.5 662.5 c 128,-1,103
 462 674 462 674 513.5 680 c 128,-1,104
 565 686 565 686 624 686 c 0,105,106
 684 686 684 686 735 680 c 128,-1,107
 786 674 786 674 824 662.5 c 128,-1,108
 862 651 862 651 883.5 636 c 128,-1,109
 905 621 905 621 905 604 c 256,110,111
 905 587 905 587 883.5 572 c 128,-1,112
 862 557 862 557 824 546 c 128,-1,113
 786 535 786 535 735 528.5 c 128,-1,114
 684 522 684 522 624 522 c 0,115,116
 565 522 565 522 513.5 528.5 c 128,-1,117
 462 535 462 535 424.5 546 c 128,-1,118
 387 557 387 557 365 572 c 128,-1,119
 343 587 343 587 343 604 c 256,100,101
453 604 m 0,120,121
 453 593 453 593 466 583.5 c 128,-1,122
 479 574 479 574 502 567 c 128,-1,123
 525 560 525 560 556.5 556 c 128,-1,124
 588 552 588 552 624 552 c 0,125,126
 661 552 661 552 692 556 c 128,-1,127
 723 560 723 560 746 567 c 128,-1,128
 769 574 769 574 782 583.5 c 128,-1,129
 795 593 795 593 795 604 c 0,130,131
 795 614 795 614 782 623.5 c 128,-1,132
 769 633 769 633 746 640.5 c 128,-1,133
 723 648 723 648 692 651.5 c 128,-1,134
 661 655 661 655 624 655 c 0,135,136
 588 655 588 655 556.5 651.5 c 128,-1,137
 525 648 525 648 502 640.5 c 128,-1,138
 479 633 479 633 466 623.5 c 128,-1,139
 453 614 453 614 453 604 c 0,120,121
EndSplineSet
EndChar

StartChar: uni0085
Encoding: 133 133 104
Width: 1209
Flags: W
LayerCount: 2
Fore
SplineSet
343 45 m 256,0,1
 343 62 343 62 365 77 c 128,-1,2
 387 92 387 92 424.5 103.5 c 128,-1,3
 462 115 462 115 513.5 121.5 c 128,-1,4
 565 128 565 128 624 128 c 0,5,6
 684 128 684 128 735 121.5 c 128,-1,7
 786 115 786 115 824 103.5 c 128,-1,8
 862 92 862 92 883.5 77 c 128,-1,9
 905 62 905 62 905 45 c 256,10,11
 905 28 905 28 883.5 13 c 128,-1,12
 862 -2 862 -2 824 -13 c 128,-1,13
 786 -24 786 -24 735 -30.5 c 128,-1,14
 684 -37 684 -37 624 -37 c 0,15,16
 565 -37 565 -37 513.5 -30.5 c 128,-1,17
 462 -24 462 -24 424.5 -13 c 128,-1,18
 387 -2 387 -2 365 13 c 128,-1,19
 343 28 343 28 343 45 c 256,0,1
343 231 m 256,20,21
 343 248 343 248 365 263 c 128,-1,22
 387 278 387 278 424.5 289.5 c 128,-1,23
 462 301 462 301 513.5 307 c 128,-1,24
 565 313 565 313 624 313 c 0,25,26
 684 313 684 313 735 307 c 128,-1,27
 786 301 786 301 824 289.5 c 128,-1,28
 862 278 862 278 883.5 263 c 128,-1,29
 905 248 905 248 905 231 c 256,30,31
 905 214 905 214 883.5 199 c 128,-1,32
 862 184 862 184 824 173 c 128,-1,33
 786 162 786 162 735 155 c 128,-1,34
 684 148 684 148 624 148 c 0,35,36
 565 148 565 148 513.5 155 c 128,-1,37
 462 162 462 162 424.5 173 c 128,-1,38
 387 184 387 184 365 199 c 128,-1,39
 343 214 343 214 343 231 c 256,20,21
453 230 m 0,40,41
 453 220 453 220 466 210.5 c 128,-1,42
 479 201 479 201 502 194 c 128,-1,43
 525 187 525 187 556.5 183 c 128,-1,44
 588 179 588 179 624 179 c 0,45,46
 661 179 661 179 692 183 c 128,-1,47
 723 187 723 187 746 194 c 128,-1,48
 769 201 769 201 782 210.5 c 128,-1,49
 795 220 795 220 795 230 c 0,50,51
 795 241 795 241 782 250.5 c 128,-1,52
 769 260 769 260 746 267 c 128,-1,53
 723 274 723 274 692 278 c 128,-1,54
 661 282 661 282 624 282 c 0,55,56
 588 282 588 282 556.5 278 c 128,-1,57
 525 274 525 274 502 267 c 128,-1,58
 479 260 479 260 466 250.5 c 128,-1,59
 453 241 453 241 453 230 c 0,40,41
343 418 m 256,60,61
 343 435 343 435 365 450.5 c 128,-1,62
 387 466 387 466 424.5 477 c 128,-1,63
 462 488 462 488 513.5 494.5 c 128,-1,64
 565 501 565 501 624 501 c 0,65,66
 684 501 684 501 735 494.5 c 128,-1,67
 786 488 786 488 824 477 c 128,-1,68
 862 466 862 466 883.5 450.5 c 128,-1,69
 905 435 905 435 905 418 c 256,70,71
 905 401 905 401 883.5 386 c 128,-1,72
 862 371 862 371 824 360 c 128,-1,73
 786 349 786 349 735 342.5 c 128,-1,74
 684 336 684 336 624 336 c 0,75,76
 565 336 565 336 513.5 342.5 c 128,-1,77
 462 349 462 349 424.5 360 c 128,-1,78
 387 371 387 371 365 386 c 128,-1,79
 343 401 343 401 343 418 c 256,60,61
343 604 m 256,80,81
 343 621 343 621 365 636 c 128,-1,82
 387 651 387 651 424.5 662.5 c 128,-1,83
 462 674 462 674 513.5 680 c 128,-1,84
 565 686 565 686 624 686 c 0,85,86
 684 686 684 686 735 680 c 128,-1,87
 786 674 786 674 824 662.5 c 128,-1,88
 862 651 862 651 883.5 636 c 128,-1,89
 905 621 905 621 905 604 c 256,90,91
 905 587 905 587 883.5 572 c 128,-1,92
 862 557 862 557 824 546 c 128,-1,93
 786 535 786 535 735 528.5 c 128,-1,94
 684 522 684 522 624 522 c 0,95,96
 565 522 565 522 513.5 528.5 c 128,-1,97
 462 535 462 535 424.5 546 c 128,-1,98
 387 557 387 557 365 572 c 128,-1,99
 343 587 343 587 343 604 c 256,80,81
453 604 m 0,100,101
 453 593 453 593 466 583.5 c 128,-1,102
 479 574 479 574 502 567 c 128,-1,103
 525 560 525 560 556.5 556 c 128,-1,104
 588 552 588 552 624 552 c 0,105,106
 661 552 661 552 692 556 c 128,-1,107
 723 560 723 560 746 567 c 128,-1,108
 769 574 769 574 782 583.5 c 128,-1,109
 795 593 795 593 795 604 c 0,110,111
 795 614 795 614 782 623.5 c 128,-1,112
 769 633 769 633 746 640.5 c 128,-1,113
 723 648 723 648 692 651.5 c 128,-1,114
 661 655 661 655 624 655 c 0,115,116
 588 655 588 655 556.5 651.5 c 128,-1,117
 525 648 525 648 502 640.5 c 128,-1,118
 479 633 479 633 466 623.5 c 128,-1,119
 453 614 453 614 453 604 c 0,100,101
EndSplineSet
EndChar

StartChar: uni0086
Encoding: 134 134 105
Width: 1209
Flags: W
LayerCount: 2
Fore
SplineSet
343 45 m 256,0,1
 343 62 343 62 365 77 c 128,-1,2
 387 92 387 92 424.5 103.5 c 128,-1,3
 462 115 462 115 513.5 121.5 c 128,-1,4
 565 128 565 128 624 128 c 0,5,6
 684 128 684 128 735 121.5 c 128,-1,7
 786 115 786 115 824 103.5 c 128,-1,8
 862 92 862 92 883.5 77 c 128,-1,9
 905 62 905 62 905 45 c 256,10,11
 905 28 905 28 883.5 13 c 128,-1,12
 862 -2 862 -2 824 -13 c 128,-1,13
 786 -24 786 -24 735 -30.5 c 128,-1,14
 684 -37 684 -37 624 -37 c 0,15,16
 565 -37 565 -37 513.5 -30.5 c 128,-1,17
 462 -24 462 -24 424.5 -13 c 128,-1,18
 387 -2 387 -2 365 13 c 128,-1,19
 343 28 343 28 343 45 c 256,0,1
453 45 m 256,20,21
 453 34 453 34 466 24.5 c 128,-1,22
 479 15 479 15 502 8 c 128,-1,23
 525 1 525 1 556.5 -3 c 128,-1,24
 588 -7 588 -7 624 -7 c 0,25,26
 661 -7 661 -7 692 -3 c 128,-1,27
 723 1 723 1 746 8 c 128,-1,28
 769 15 769 15 782 24.5 c 128,-1,29
 795 34 795 34 795 45 c 256,30,31
 795 56 795 56 782 65.5 c 128,-1,32
 769 75 769 75 746 82 c 128,-1,33
 723 89 723 89 692 93 c 128,-1,34
 661 97 661 97 624 97 c 0,35,36
 588 97 588 97 556.5 93 c 128,-1,37
 525 89 525 89 502 82 c 128,-1,38
 479 75 479 75 466 65.5 c 128,-1,39
 453 56 453 56 453 45 c 256,20,21
343 231 m 256,40,41
 343 248 343 248 365 263 c 128,-1,42
 387 278 387 278 424.5 289.5 c 128,-1,43
 462 301 462 301 513.5 307 c 128,-1,44
 565 313 565 313 624 313 c 0,45,46
 684 313 684 313 735 307 c 128,-1,47
 786 301 786 301 824 289.5 c 128,-1,48
 862 278 862 278 883.5 263 c 128,-1,49
 905 248 905 248 905 231 c 256,50,51
 905 214 905 214 883.5 199 c 128,-1,52
 862 184 862 184 824 173 c 128,-1,53
 786 162 786 162 735 155 c 128,-1,54
 684 148 684 148 624 148 c 0,55,56
 565 148 565 148 513.5 155 c 128,-1,57
 462 162 462 162 424.5 173 c 128,-1,58
 387 184 387 184 365 199 c 128,-1,59
 343 214 343 214 343 231 c 256,40,41
343 418 m 256,60,61
 343 435 343 435 365 450.5 c 128,-1,62
 387 466 387 466 424.5 477 c 128,-1,63
 462 488 462 488 513.5 494.5 c 128,-1,64
 565 501 565 501 624 501 c 0,65,66
 684 501 684 501 735 494.5 c 128,-1,67
 786 488 786 488 824 477 c 128,-1,68
 862 466 862 466 883.5 450.5 c 128,-1,69
 905 435 905 435 905 418 c 256,70,71
 905 401 905 401 883.5 386 c 128,-1,72
 862 371 862 371 824 360 c 128,-1,73
 786 349 786 349 735 342.5 c 128,-1,74
 684 336 684 336 624 336 c 0,75,76
 565 336 565 336 513.5 342.5 c 128,-1,77
 462 349 462 349 424.5 360 c 128,-1,78
 387 371 387 371 365 386 c 128,-1,79
 343 401 343 401 343 418 c 256,60,61
343 604 m 256,80,81
 343 621 343 621 365 636 c 128,-1,82
 387 651 387 651 424.5 662.5 c 128,-1,83
 462 674 462 674 513.5 680 c 128,-1,84
 565 686 565 686 624 686 c 0,85,86
 684 686 684 686 735 680 c 128,-1,87
 786 674 786 674 824 662.5 c 128,-1,88
 862 651 862 651 883.5 636 c 128,-1,89
 905 621 905 621 905 604 c 256,90,91
 905 587 905 587 883.5 572 c 128,-1,92
 862 557 862 557 824 546 c 128,-1,93
 786 535 786 535 735 528.5 c 128,-1,94
 684 522 684 522 624 522 c 0,95,96
 565 522 565 522 513.5 528.5 c 128,-1,97
 462 535 462 535 424.5 546 c 128,-1,98
 387 557 387 557 365 572 c 128,-1,99
 343 587 343 587 343 604 c 256,80,81
453 604 m 0,100,101
 453 593 453 593 466 583.5 c 128,-1,102
 479 574 479 574 502 567 c 128,-1,103
 525 560 525 560 556.5 556 c 128,-1,104
 588 552 588 552 624 552 c 0,105,106
 661 552 661 552 692 556 c 128,-1,107
 723 560 723 560 746 567 c 128,-1,108
 769 574 769 574 782 583.5 c 128,-1,109
 795 593 795 593 795 604 c 0,110,111
 795 614 795 614 782 623.5 c 128,-1,112
 769 633 769 633 746 640.5 c 128,-1,113
 723 648 723 648 692 651.5 c 128,-1,114
 661 655 661 655 624 655 c 0,115,116
 588 655 588 655 556.5 651.5 c 128,-1,117
 525 648 525 648 502 640.5 c 128,-1,118
 479 633 479 633 466 623.5 c 128,-1,119
 453 614 453 614 453 604 c 0,100,101
EndSplineSet
EndChar

StartChar: uni0087
Encoding: 135 135 106
Width: 1209
Flags: W
LayerCount: 2
Fore
SplineSet
343 45 m 256,0,1
 343 62 343 62 365 77 c 128,-1,2
 387 92 387 92 424.5 103.5 c 128,-1,3
 462 115 462 115 513.5 121.5 c 128,-1,4
 565 128 565 128 624 128 c 0,5,6
 684 128 684 128 735 121.5 c 128,-1,7
 786 115 786 115 824 103.5 c 128,-1,8
 862 92 862 92 883.5 77 c 128,-1,9
 905 62 905 62 905 45 c 256,10,11
 905 28 905 28 883.5 13 c 128,-1,12
 862 -2 862 -2 824 -13 c 128,-1,13
 786 -24 786 -24 735 -30.5 c 128,-1,14
 684 -37 684 -37 624 -37 c 0,15,16
 565 -37 565 -37 513.5 -30.5 c 128,-1,17
 462 -24 462 -24 424.5 -13 c 128,-1,18
 387 -2 387 -2 365 13 c 128,-1,19
 343 28 343 28 343 45 c 256,0,1
343 231 m 256,20,21
 343 248 343 248 365 263 c 128,-1,22
 387 278 387 278 424.5 289.5 c 128,-1,23
 462 301 462 301 513.5 307 c 128,-1,24
 565 313 565 313 624 313 c 0,25,26
 684 313 684 313 735 307 c 128,-1,27
 786 301 786 301 824 289.5 c 128,-1,28
 862 278 862 278 883.5 263 c 128,-1,29
 905 248 905 248 905 231 c 256,30,31
 905 214 905 214 883.5 199 c 128,-1,32
 862 184 862 184 824 173 c 128,-1,33
 786 162 786 162 735 155 c 128,-1,34
 684 148 684 148 624 148 c 0,35,36
 565 148 565 148 513.5 155 c 128,-1,37
 462 162 462 162 424.5 173 c 128,-1,38
 387 184 387 184 365 199 c 128,-1,39
 343 214 343 214 343 231 c 256,20,21
343 418 m 256,40,41
 343 435 343 435 365 450.5 c 128,-1,42
 387 466 387 466 424.5 477 c 128,-1,43
 462 488 462 488 513.5 494.5 c 128,-1,44
 565 501 565 501 624 501 c 0,45,46
 684 501 684 501 735 494.5 c 128,-1,47
 786 488 786 488 824 477 c 128,-1,48
 862 466 862 466 883.5 450.5 c 128,-1,49
 905 435 905 435 905 418 c 256,50,51
 905 401 905 401 883.5 386 c 128,-1,52
 862 371 862 371 824 360 c 128,-1,53
 786 349 786 349 735 342.5 c 128,-1,54
 684 336 684 336 624 336 c 0,55,56
 565 336 565 336 513.5 342.5 c 128,-1,57
 462 349 462 349 424.5 360 c 128,-1,58
 387 371 387 371 365 386 c 128,-1,59
 343 401 343 401 343 418 c 256,40,41
343 604 m 256,60,61
 343 621 343 621 365 636 c 128,-1,62
 387 651 387 651 424.5 662.5 c 128,-1,63
 462 674 462 674 513.5 680 c 128,-1,64
 565 686 565 686 624 686 c 0,65,66
 684 686 684 686 735 680 c 128,-1,67
 786 674 786 674 824 662.5 c 128,-1,68
 862 651 862 651 883.5 636 c 128,-1,69
 905 621 905 621 905 604 c 256,70,71
 905 587 905 587 883.5 572 c 128,-1,72
 862 557 862 557 824 546 c 128,-1,73
 786 535 786 535 735 528.5 c 128,-1,74
 684 522 684 522 624 522 c 0,75,76
 565 522 565 522 513.5 528.5 c 128,-1,77
 462 535 462 535 424.5 546 c 128,-1,78
 387 557 387 557 365 572 c 128,-1,79
 343 587 343 587 343 604 c 256,60,61
453 604 m 0,80,81
 453 593 453 593 466 583.5 c 128,-1,82
 479 574 479 574 502 567 c 128,-1,83
 525 560 525 560 556.5 556 c 128,-1,84
 588 552 588 552 624 552 c 0,85,86
 661 552 661 552 692 556 c 128,-1,87
 723 560 723 560 746 567 c 128,-1,88
 769 574 769 574 782 583.5 c 128,-1,89
 795 593 795 593 795 604 c 0,90,91
 795 614 795 614 782 623.5 c 128,-1,92
 769 633 769 633 746 640.5 c 128,-1,93
 723 648 723 648 692 651.5 c 128,-1,94
 661 655 661 655 624 655 c 0,95,96
 588 655 588 655 556.5 651.5 c 128,-1,97
 525 648 525 648 502 640.5 c 128,-1,98
 479 633 479 633 466 623.5 c 128,-1,99
 453 614 453 614 453 604 c 0,80,81
EndSplineSet
EndChar

StartChar: uni0088
Encoding: 136 136 107
Width: 1209
Flags: W
LayerCount: 2
Fore
SplineSet
343 45 m 256,0,1
 343 62 343 62 365 77 c 128,-1,2
 387 92 387 92 424.5 103.5 c 128,-1,3
 462 115 462 115 513.5 121.5 c 128,-1,4
 565 128 565 128 624 128 c 0,5,6
 684 128 684 128 735 121.5 c 128,-1,7
 786 115 786 115 824 103.5 c 128,-1,8
 862 92 862 92 883.5 77 c 128,-1,9
 905 62 905 62 905 45 c 256,10,11
 905 28 905 28 883.5 13 c 128,-1,12
 862 -2 862 -2 824 -13 c 128,-1,13
 786 -24 786 -24 735 -30.5 c 128,-1,14
 684 -37 684 -37 624 -37 c 0,15,16
 565 -37 565 -37 513.5 -30.5 c 128,-1,17
 462 -24 462 -24 424.5 -13 c 128,-1,18
 387 -2 387 -2 365 13 c 128,-1,19
 343 28 343 28 343 45 c 256,0,1
453 45 m 256,20,21
 453 34 453 34 466 24.5 c 128,-1,22
 479 15 479 15 502 8 c 128,-1,23
 525 1 525 1 556.5 -3 c 128,-1,24
 588 -7 588 -7 624 -7 c 0,25,26
 661 -7 661 -7 692 -3 c 128,-1,27
 723 1 723 1 746 8 c 128,-1,28
 769 15 769 15 782 24.5 c 128,-1,29
 795 34 795 34 795 45 c 256,30,31
 795 56 795 56 782 65.5 c 128,-1,32
 769 75 769 75 746 82 c 128,-1,33
 723 89 723 89 692 93 c 128,-1,34
 661 97 661 97 624 97 c 0,35,36
 588 97 588 97 556.5 93 c 128,-1,37
 525 89 525 89 502 82 c 128,-1,38
 479 75 479 75 466 65.5 c 128,-1,39
 453 56 453 56 453 45 c 256,20,21
343 231 m 256,40,41
 343 248 343 248 365 263 c 128,-1,42
 387 278 387 278 424.5 289.5 c 128,-1,43
 462 301 462 301 513.5 307 c 128,-1,44
 565 313 565 313 624 313 c 0,45,46
 684 313 684 313 735 307 c 128,-1,47
 786 301 786 301 824 289.5 c 128,-1,48
 862 278 862 278 883.5 263 c 128,-1,49
 905 248 905 248 905 231 c 256,50,51
 905 214 905 214 883.5 199 c 128,-1,52
 862 184 862 184 824 173 c 128,-1,53
 786 162 786 162 735 155 c 128,-1,54
 684 148 684 148 624 148 c 0,55,56
 565 148 565 148 513.5 155 c 128,-1,57
 462 162 462 162 424.5 173 c 128,-1,58
 387 184 387 184 365 199 c 128,-1,59
 343 214 343 214 343 231 c 256,40,41
453 230 m 0,60,61
 453 220 453 220 466 210.5 c 128,-1,62
 479 201 479 201 502 194 c 128,-1,63
 525 187 525 187 556.5 183 c 128,-1,64
 588 179 588 179 624 179 c 0,65,66
 661 179 661 179 692 183 c 128,-1,67
 723 187 723 187 746 194 c 128,-1,68
 769 201 769 201 782 210.5 c 128,-1,69
 795 220 795 220 795 230 c 0,70,71
 795 241 795 241 782 250.5 c 128,-1,72
 769 260 769 260 746 267 c 128,-1,73
 723 274 723 274 692 278 c 128,-1,74
 661 282 661 282 624 282 c 0,75,76
 588 282 588 282 556.5 278 c 128,-1,77
 525 274 525 274 502 267 c 128,-1,78
 479 260 479 260 466 250.5 c 128,-1,79
 453 241 453 241 453 230 c 0,60,61
343 418 m 256,80,81
 343 435 343 435 365 450.5 c 128,-1,82
 387 466 387 466 424.5 477 c 128,-1,83
 462 488 462 488 513.5 494.5 c 128,-1,84
 565 501 565 501 624 501 c 0,85,86
 684 501 684 501 735 494.5 c 128,-1,87
 786 488 786 488 824 477 c 128,-1,88
 862 466 862 466 883.5 450.5 c 128,-1,89
 905 435 905 435 905 418 c 256,90,91
 905 401 905 401 883.5 386 c 128,-1,92
 862 371 862 371 824 360 c 128,-1,93
 786 349 786 349 735 342.5 c 128,-1,94
 684 336 684 336 624 336 c 0,95,96
 565 336 565 336 513.5 342.5 c 128,-1,97
 462 349 462 349 424.5 360 c 128,-1,98
 387 371 387 371 365 386 c 128,-1,99
 343 401 343 401 343 418 c 256,80,81
453 418 m 256,100,101
 453 407 453 407 466 397.5 c 128,-1,102
 479 388 479 388 502 381.5 c 128,-1,103
 525 375 525 375 556.5 371 c 128,-1,104
 588 367 588 367 624 367 c 0,105,106
 661 367 661 367 692 371 c 128,-1,107
 723 375 723 375 746 381.5 c 128,-1,108
 769 388 769 388 782 397.5 c 128,-1,109
 795 407 795 407 795 418 c 256,110,111
 795 429 795 429 782 438.5 c 128,-1,112
 769 448 769 448 746 455 c 128,-1,113
 723 462 723 462 692 466 c 128,-1,114
 661 470 661 470 624 470 c 0,115,116
 588 470 588 470 556.5 466 c 128,-1,117
 525 462 525 462 502 455 c 128,-1,118
 479 448 479 448 466 438.5 c 128,-1,119
 453 429 453 429 453 418 c 256,100,101
343 604 m 256,120,121
 343 621 343 621 365 636 c 128,-1,122
 387 651 387 651 424.5 662.5 c 128,-1,123
 462 674 462 674 513.5 680 c 128,-1,124
 565 686 565 686 624 686 c 0,125,126
 684 686 684 686 735 680 c 128,-1,127
 786 674 786 674 824 662.5 c 128,-1,128
 862 651 862 651 883.5 636 c 128,-1,129
 905 621 905 621 905 604 c 256,130,131
 905 587 905 587 883.5 572 c 128,-1,132
 862 557 862 557 824 546 c 128,-1,133
 786 535 786 535 735 528.5 c 128,-1,134
 684 522 684 522 624 522 c 0,135,136
 565 522 565 522 513.5 528.5 c 128,-1,137
 462 535 462 535 424.5 546 c 128,-1,138
 387 557 387 557 365 572 c 128,-1,139
 343 587 343 587 343 604 c 256,120,121
EndSplineSet
EndChar

StartChar: uni0089
Encoding: 137 137 108
Width: 1209
Flags: W
LayerCount: 2
Fore
SplineSet
343 45 m 256,0,1
 343 62 343 62 365 77 c 128,-1,2
 387 92 387 92 424.5 103.5 c 128,-1,3
 462 115 462 115 513.5 121.5 c 128,-1,4
 565 128 565 128 624 128 c 0,5,6
 684 128 684 128 735 121.5 c 128,-1,7
 786 115 786 115 824 103.5 c 128,-1,8
 862 92 862 92 883.5 77 c 128,-1,9
 905 62 905 62 905 45 c 256,10,11
 905 28 905 28 883.5 13 c 128,-1,12
 862 -2 862 -2 824 -13 c 128,-1,13
 786 -24 786 -24 735 -30.5 c 128,-1,14
 684 -37 684 -37 624 -37 c 0,15,16
 565 -37 565 -37 513.5 -30.5 c 128,-1,17
 462 -24 462 -24 424.5 -13 c 128,-1,18
 387 -2 387 -2 365 13 c 128,-1,19
 343 28 343 28 343 45 c 256,0,1
343 231 m 256,20,21
 343 248 343 248 365 263 c 128,-1,22
 387 278 387 278 424.5 289.5 c 128,-1,23
 462 301 462 301 513.5 307 c 128,-1,24
 565 313 565 313 624 313 c 0,25,26
 684 313 684 313 735 307 c 128,-1,27
 786 301 786 301 824 289.5 c 128,-1,28
 862 278 862 278 883.5 263 c 128,-1,29
 905 248 905 248 905 231 c 256,30,31
 905 214 905 214 883.5 199 c 128,-1,32
 862 184 862 184 824 173 c 128,-1,33
 786 162 786 162 735 155 c 128,-1,34
 684 148 684 148 624 148 c 0,35,36
 565 148 565 148 513.5 155 c 128,-1,37
 462 162 462 162 424.5 173 c 128,-1,38
 387 184 387 184 365 199 c 128,-1,39
 343 214 343 214 343 231 c 256,20,21
453 230 m 0,40,41
 453 220 453 220 466 210.5 c 128,-1,42
 479 201 479 201 502 194 c 128,-1,43
 525 187 525 187 556.5 183 c 128,-1,44
 588 179 588 179 624 179 c 0,45,46
 661 179 661 179 692 183 c 128,-1,47
 723 187 723 187 746 194 c 128,-1,48
 769 201 769 201 782 210.5 c 128,-1,49
 795 220 795 220 795 230 c 0,50,51
 795 241 795 241 782 250.5 c 128,-1,52
 769 260 769 260 746 267 c 128,-1,53
 723 274 723 274 692 278 c 128,-1,54
 661 282 661 282 624 282 c 0,55,56
 588 282 588 282 556.5 278 c 128,-1,57
 525 274 525 274 502 267 c 128,-1,58
 479 260 479 260 466 250.5 c 128,-1,59
 453 241 453 241 453 230 c 0,40,41
343 418 m 256,60,61
 343 435 343 435 365 450.5 c 128,-1,62
 387 466 387 466 424.5 477 c 128,-1,63
 462 488 462 488 513.5 494.5 c 128,-1,64
 565 501 565 501 624 501 c 0,65,66
 684 501 684 501 735 494.5 c 128,-1,67
 786 488 786 488 824 477 c 128,-1,68
 862 466 862 466 883.5 450.5 c 128,-1,69
 905 435 905 435 905 418 c 256,70,71
 905 401 905 401 883.5 386 c 128,-1,72
 862 371 862 371 824 360 c 128,-1,73
 786 349 786 349 735 342.5 c 128,-1,74
 684 336 684 336 624 336 c 0,75,76
 565 336 565 336 513.5 342.5 c 128,-1,77
 462 349 462 349 424.5 360 c 128,-1,78
 387 371 387 371 365 386 c 128,-1,79
 343 401 343 401 343 418 c 256,60,61
453 418 m 256,80,81
 453 407 453 407 466 397.5 c 128,-1,82
 479 388 479 388 502 381.5 c 128,-1,83
 525 375 525 375 556.5 371 c 128,-1,84
 588 367 588 367 624 367 c 0,85,86
 661 367 661 367 692 371 c 128,-1,87
 723 375 723 375 746 381.5 c 128,-1,88
 769 388 769 388 782 397.5 c 128,-1,89
 795 407 795 407 795 418 c 256,90,91
 795 429 795 429 782 438.5 c 128,-1,92
 769 448 769 448 746 455 c 128,-1,93
 723 462 723 462 692 466 c 128,-1,94
 661 470 661 470 624 470 c 0,95,96
 588 470 588 470 556.5 466 c 128,-1,97
 525 462 525 462 502 455 c 128,-1,98
 479 448 479 448 466 438.5 c 128,-1,99
 453 429 453 429 453 418 c 256,80,81
343 604 m 256,100,101
 343 621 343 621 365 636 c 128,-1,102
 387 651 387 651 424.5 662.5 c 128,-1,103
 462 674 462 674 513.5 680 c 128,-1,104
 565 686 565 686 624 686 c 0,105,106
 684 686 684 686 735 680 c 128,-1,107
 786 674 786 674 824 662.5 c 128,-1,108
 862 651 862 651 883.5 636 c 128,-1,109
 905 621 905 621 905 604 c 256,110,111
 905 587 905 587 883.5 572 c 128,-1,112
 862 557 862 557 824 546 c 128,-1,113
 786 535 786 535 735 528.5 c 128,-1,114
 684 522 684 522 624 522 c 0,115,116
 565 522 565 522 513.5 528.5 c 128,-1,117
 462 535 462 535 424.5 546 c 128,-1,118
 387 557 387 557 365 572 c 128,-1,119
 343 587 343 587 343 604 c 256,100,101
EndSplineSet
EndChar

StartChar: uni008A
Encoding: 138 138 109
Width: 1209
Flags: W
LayerCount: 2
Fore
SplineSet
343 45 m 256,0,1
 343 62 343 62 365 77 c 128,-1,2
 387 92 387 92 424.5 103.5 c 128,-1,3
 462 115 462 115 513.5 121.5 c 128,-1,4
 565 128 565 128 624 128 c 0,5,6
 684 128 684 128 735 121.5 c 128,-1,7
 786 115 786 115 824 103.5 c 128,-1,8
 862 92 862 92 883.5 77 c 128,-1,9
 905 62 905 62 905 45 c 256,10,11
 905 28 905 28 883.5 13 c 128,-1,12
 862 -2 862 -2 824 -13 c 128,-1,13
 786 -24 786 -24 735 -30.5 c 128,-1,14
 684 -37 684 -37 624 -37 c 0,15,16
 565 -37 565 -37 513.5 -30.5 c 128,-1,17
 462 -24 462 -24 424.5 -13 c 128,-1,18
 387 -2 387 -2 365 13 c 128,-1,19
 343 28 343 28 343 45 c 256,0,1
453 45 m 256,20,21
 453 34 453 34 466 24.5 c 128,-1,22
 479 15 479 15 502 8 c 128,-1,23
 525 1 525 1 556.5 -3 c 128,-1,24
 588 -7 588 -7 624 -7 c 0,25,26
 661 -7 661 -7 692 -3 c 128,-1,27
 723 1 723 1 746 8 c 128,-1,28
 769 15 769 15 782 24.5 c 128,-1,29
 795 34 795 34 795 45 c 256,30,31
 795 56 795 56 782 65.5 c 128,-1,32
 769 75 769 75 746 82 c 128,-1,33
 723 89 723 89 692 93 c 128,-1,34
 661 97 661 97 624 97 c 0,35,36
 588 97 588 97 556.5 93 c 128,-1,37
 525 89 525 89 502 82 c 128,-1,38
 479 75 479 75 466 65.5 c 128,-1,39
 453 56 453 56 453 45 c 256,20,21
343 231 m 256,40,41
 343 248 343 248 365 263 c 128,-1,42
 387 278 387 278 424.5 289.5 c 128,-1,43
 462 301 462 301 513.5 307 c 128,-1,44
 565 313 565 313 624 313 c 0,45,46
 684 313 684 313 735 307 c 128,-1,47
 786 301 786 301 824 289.5 c 128,-1,48
 862 278 862 278 883.5 263 c 128,-1,49
 905 248 905 248 905 231 c 256,50,51
 905 214 905 214 883.5 199 c 128,-1,52
 862 184 862 184 824 173 c 128,-1,53
 786 162 786 162 735 155 c 128,-1,54
 684 148 684 148 624 148 c 0,55,56
 565 148 565 148 513.5 155 c 128,-1,57
 462 162 462 162 424.5 173 c 128,-1,58
 387 184 387 184 365 199 c 128,-1,59
 343 214 343 214 343 231 c 256,40,41
343 418 m 256,60,61
 343 435 343 435 365 450.5 c 128,-1,62
 387 466 387 466 424.5 477 c 128,-1,63
 462 488 462 488 513.5 494.5 c 128,-1,64
 565 501 565 501 624 501 c 0,65,66
 684 501 684 501 735 494.5 c 128,-1,67
 786 488 786 488 824 477 c 128,-1,68
 862 466 862 466 883.5 450.5 c 128,-1,69
 905 435 905 435 905 418 c 256,70,71
 905 401 905 401 883.5 386 c 128,-1,72
 862 371 862 371 824 360 c 128,-1,73
 786 349 786 349 735 342.5 c 128,-1,74
 684 336 684 336 624 336 c 0,75,76
 565 336 565 336 513.5 342.5 c 128,-1,77
 462 349 462 349 424.5 360 c 128,-1,78
 387 371 387 371 365 386 c 128,-1,79
 343 401 343 401 343 418 c 256,60,61
453 418 m 256,80,81
 453 407 453 407 466 397.5 c 128,-1,82
 479 388 479 388 502 381.5 c 128,-1,83
 525 375 525 375 556.5 371 c 128,-1,84
 588 367 588 367 624 367 c 0,85,86
 661 367 661 367 692 371 c 128,-1,87
 723 375 723 375 746 381.5 c 128,-1,88
 769 388 769 388 782 397.5 c 128,-1,89
 795 407 795 407 795 418 c 256,90,91
 795 429 795 429 782 438.5 c 128,-1,92
 769 448 769 448 746 455 c 128,-1,93
 723 462 723 462 692 466 c 128,-1,94
 661 470 661 470 624 470 c 0,95,96
 588 470 588 470 556.5 466 c 128,-1,97
 525 462 525 462 502 455 c 128,-1,98
 479 448 479 448 466 438.5 c 128,-1,99
 453 429 453 429 453 418 c 256,80,81
343 604 m 256,100,101
 343 621 343 621 365 636 c 128,-1,102
 387 651 387 651 424.5 662.5 c 128,-1,103
 462 674 462 674 513.5 680 c 128,-1,104
 565 686 565 686 624 686 c 0,105,106
 684 686 684 686 735 680 c 128,-1,107
 786 674 786 674 824 662.5 c 128,-1,108
 862 651 862 651 883.5 636 c 128,-1,109
 905 621 905 621 905 604 c 256,110,111
 905 587 905 587 883.5 572 c 128,-1,112
 862 557 862 557 824 546 c 128,-1,113
 786 535 786 535 735 528.5 c 128,-1,114
 684 522 684 522 624 522 c 0,115,116
 565 522 565 522 513.5 528.5 c 128,-1,117
 462 535 462 535 424.5 546 c 128,-1,118
 387 557 387 557 365 572 c 128,-1,119
 343 587 343 587 343 604 c 256,100,101
EndSplineSet
EndChar

StartChar: uni008B
Encoding: 139 139 110
Width: 1209
Flags: W
LayerCount: 2
Fore
SplineSet
343 45 m 256,0,1
 343 62 343 62 365 77 c 128,-1,2
 387 92 387 92 424.5 103.5 c 128,-1,3
 462 115 462 115 513.5 121.5 c 128,-1,4
 565 128 565 128 624 128 c 0,5,6
 684 128 684 128 735 121.5 c 128,-1,7
 786 115 786 115 824 103.5 c 128,-1,8
 862 92 862 92 883.5 77 c 128,-1,9
 905 62 905 62 905 45 c 256,10,11
 905 28 905 28 883.5 13 c 128,-1,12
 862 -2 862 -2 824 -13 c 128,-1,13
 786 -24 786 -24 735 -30.5 c 128,-1,14
 684 -37 684 -37 624 -37 c 0,15,16
 565 -37 565 -37 513.5 -30.5 c 128,-1,17
 462 -24 462 -24 424.5 -13 c 128,-1,18
 387 -2 387 -2 365 13 c 128,-1,19
 343 28 343 28 343 45 c 256,0,1
343 231 m 256,20,21
 343 248 343 248 365 263 c 128,-1,22
 387 278 387 278 424.5 289.5 c 128,-1,23
 462 301 462 301 513.5 307 c 128,-1,24
 565 313 565 313 624 313 c 0,25,26
 684 313 684 313 735 307 c 128,-1,27
 786 301 786 301 824 289.5 c 128,-1,28
 862 278 862 278 883.5 263 c 128,-1,29
 905 248 905 248 905 231 c 256,30,31
 905 214 905 214 883.5 199 c 128,-1,32
 862 184 862 184 824 173 c 128,-1,33
 786 162 786 162 735 155 c 128,-1,34
 684 148 684 148 624 148 c 0,35,36
 565 148 565 148 513.5 155 c 128,-1,37
 462 162 462 162 424.5 173 c 128,-1,38
 387 184 387 184 365 199 c 128,-1,39
 343 214 343 214 343 231 c 256,20,21
343 418 m 256,40,41
 343 435 343 435 365 450.5 c 128,-1,42
 387 466 387 466 424.5 477 c 128,-1,43
 462 488 462 488 513.5 494.5 c 128,-1,44
 565 501 565 501 624 501 c 0,45,46
 684 501 684 501 735 494.5 c 128,-1,47
 786 488 786 488 824 477 c 128,-1,48
 862 466 862 466 883.5 450.5 c 128,-1,49
 905 435 905 435 905 418 c 256,50,51
 905 401 905 401 883.5 386 c 128,-1,52
 862 371 862 371 824 360 c 128,-1,53
 786 349 786 349 735 342.5 c 128,-1,54
 684 336 684 336 624 336 c 0,55,56
 565 336 565 336 513.5 342.5 c 128,-1,57
 462 349 462 349 424.5 360 c 128,-1,58
 387 371 387 371 365 386 c 128,-1,59
 343 401 343 401 343 418 c 256,40,41
453 418 m 256,60,61
 453 407 453 407 466 397.5 c 128,-1,62
 479 388 479 388 502 381.5 c 128,-1,63
 525 375 525 375 556.5 371 c 128,-1,64
 588 367 588 367 624 367 c 0,65,66
 661 367 661 367 692 371 c 128,-1,67
 723 375 723 375 746 381.5 c 128,-1,68
 769 388 769 388 782 397.5 c 128,-1,69
 795 407 795 407 795 418 c 256,70,71
 795 429 795 429 782 438.5 c 128,-1,72
 769 448 769 448 746 455 c 128,-1,73
 723 462 723 462 692 466 c 128,-1,74
 661 470 661 470 624 470 c 0,75,76
 588 470 588 470 556.5 466 c 128,-1,77
 525 462 525 462 502 455 c 128,-1,78
 479 448 479 448 466 438.5 c 128,-1,79
 453 429 453 429 453 418 c 256,60,61
343 604 m 256,80,81
 343 621 343 621 365 636 c 128,-1,82
 387 651 387 651 424.5 662.5 c 128,-1,83
 462 674 462 674 513.5 680 c 128,-1,84
 565 686 565 686 624 686 c 0,85,86
 684 686 684 686 735 680 c 128,-1,87
 786 674 786 674 824 662.5 c 128,-1,88
 862 651 862 651 883.5 636 c 128,-1,89
 905 621 905 621 905 604 c 256,90,91
 905 587 905 587 883.5 572 c 128,-1,92
 862 557 862 557 824 546 c 128,-1,93
 786 535 786 535 735 528.5 c 128,-1,94
 684 522 684 522 624 522 c 0,95,96
 565 522 565 522 513.5 528.5 c 128,-1,97
 462 535 462 535 424.5 546 c 128,-1,98
 387 557 387 557 365 572 c 128,-1,99
 343 587 343 587 343 604 c 256,80,81
EndSplineSet
EndChar

StartChar: uni008C
Encoding: 140 140 111
Width: 1209
Flags: W
LayerCount: 2
Fore
SplineSet
343 45 m 256,0,1
 343 62 343 62 365 77 c 128,-1,2
 387 92 387 92 424.5 103.5 c 128,-1,3
 462 115 462 115 513.5 121.5 c 128,-1,4
 565 128 565 128 624 128 c 0,5,6
 684 128 684 128 735 121.5 c 128,-1,7
 786 115 786 115 824 103.5 c 128,-1,8
 862 92 862 92 883.5 77 c 128,-1,9
 905 62 905 62 905 45 c 256,10,11
 905 28 905 28 883.5 13 c 128,-1,12
 862 -2 862 -2 824 -13 c 128,-1,13
 786 -24 786 -24 735 -30.5 c 128,-1,14
 684 -37 684 -37 624 -37 c 0,15,16
 565 -37 565 -37 513.5 -30.5 c 128,-1,17
 462 -24 462 -24 424.5 -13 c 128,-1,18
 387 -2 387 -2 365 13 c 128,-1,19
 343 28 343 28 343 45 c 256,0,1
453 45 m 256,20,21
 453 34 453 34 466 24.5 c 128,-1,22
 479 15 479 15 502 8 c 128,-1,23
 525 1 525 1 556.5 -3 c 128,-1,24
 588 -7 588 -7 624 -7 c 0,25,26
 661 -7 661 -7 692 -3 c 128,-1,27
 723 1 723 1 746 8 c 128,-1,28
 769 15 769 15 782 24.5 c 128,-1,29
 795 34 795 34 795 45 c 256,30,31
 795 56 795 56 782 65.5 c 128,-1,32
 769 75 769 75 746 82 c 128,-1,33
 723 89 723 89 692 93 c 128,-1,34
 661 97 661 97 624 97 c 0,35,36
 588 97 588 97 556.5 93 c 128,-1,37
 525 89 525 89 502 82 c 128,-1,38
 479 75 479 75 466 65.5 c 128,-1,39
 453 56 453 56 453 45 c 256,20,21
343 231 m 256,40,41
 343 248 343 248 365 263 c 128,-1,42
 387 278 387 278 424.5 289.5 c 128,-1,43
 462 301 462 301 513.5 307 c 128,-1,44
 565 313 565 313 624 313 c 0,45,46
 684 313 684 313 735 307 c 128,-1,47
 786 301 786 301 824 289.5 c 128,-1,48
 862 278 862 278 883.5 263 c 128,-1,49
 905 248 905 248 905 231 c 256,50,51
 905 214 905 214 883.5 199 c 128,-1,52
 862 184 862 184 824 173 c 128,-1,53
 786 162 786 162 735 155 c 128,-1,54
 684 148 684 148 624 148 c 0,55,56
 565 148 565 148 513.5 155 c 128,-1,57
 462 162 462 162 424.5 173 c 128,-1,58
 387 184 387 184 365 199 c 128,-1,59
 343 214 343 214 343 231 c 256,40,41
453 230 m 0,60,61
 453 220 453 220 466 210.5 c 128,-1,62
 479 201 479 201 502 194 c 128,-1,63
 525 187 525 187 556.5 183 c 128,-1,64
 588 179 588 179 624 179 c 0,65,66
 661 179 661 179 692 183 c 128,-1,67
 723 187 723 187 746 194 c 128,-1,68
 769 201 769 201 782 210.5 c 128,-1,69
 795 220 795 220 795 230 c 0,70,71
 795 241 795 241 782 250.5 c 128,-1,72
 769 260 769 260 746 267 c 128,-1,73
 723 274 723 274 692 278 c 128,-1,74
 661 282 661 282 624 282 c 0,75,76
 588 282 588 282 556.5 278 c 128,-1,77
 525 274 525 274 502 267 c 128,-1,78
 479 260 479 260 466 250.5 c 128,-1,79
 453 241 453 241 453 230 c 0,60,61
343 418 m 256,80,81
 343 435 343 435 365 450.5 c 128,-1,82
 387 466 387 466 424.5 477 c 128,-1,83
 462 488 462 488 513.5 494.5 c 128,-1,84
 565 501 565 501 624 501 c 0,85,86
 684 501 684 501 735 494.5 c 128,-1,87
 786 488 786 488 824 477 c 128,-1,88
 862 466 862 466 883.5 450.5 c 128,-1,89
 905 435 905 435 905 418 c 256,90,91
 905 401 905 401 883.5 386 c 128,-1,92
 862 371 862 371 824 360 c 128,-1,93
 786 349 786 349 735 342.5 c 128,-1,94
 684 336 684 336 624 336 c 0,95,96
 565 336 565 336 513.5 342.5 c 128,-1,97
 462 349 462 349 424.5 360 c 128,-1,98
 387 371 387 371 365 386 c 128,-1,99
 343 401 343 401 343 418 c 256,80,81
343 604 m 256,100,101
 343 621 343 621 365 636 c 128,-1,102
 387 651 387 651 424.5 662.5 c 128,-1,103
 462 674 462 674 513.5 680 c 128,-1,104
 565 686 565 686 624 686 c 0,105,106
 684 686 684 686 735 680 c 128,-1,107
 786 674 786 674 824 662.5 c 128,-1,108
 862 651 862 651 883.5 636 c 128,-1,109
 905 621 905 621 905 604 c 256,110,111
 905 587 905 587 883.5 572 c 128,-1,112
 862 557 862 557 824 546 c 128,-1,113
 786 535 786 535 735 528.5 c 128,-1,114
 684 522 684 522 624 522 c 0,115,116
 565 522 565 522 513.5 528.5 c 128,-1,117
 462 535 462 535 424.5 546 c 128,-1,118
 387 557 387 557 365 572 c 128,-1,119
 343 587 343 587 343 604 c 256,100,101
EndSplineSet
EndChar

StartChar: uni008D
Encoding: 141 141 112
Width: 1209
Flags: W
LayerCount: 2
Fore
SplineSet
343 45 m 256,0,1
 343 62 343 62 365 77 c 128,-1,2
 387 92 387 92 424.5 103.5 c 128,-1,3
 462 115 462 115 513.5 121.5 c 128,-1,4
 565 128 565 128 624 128 c 0,5,6
 684 128 684 128 735 121.5 c 128,-1,7
 786 115 786 115 824 103.5 c 128,-1,8
 862 92 862 92 883.5 77 c 128,-1,9
 905 62 905 62 905 45 c 256,10,11
 905 28 905 28 883.5 13 c 128,-1,12
 862 -2 862 -2 824 -13 c 128,-1,13
 786 -24 786 -24 735 -30.5 c 128,-1,14
 684 -37 684 -37 624 -37 c 0,15,16
 565 -37 565 -37 513.5 -30.5 c 128,-1,17
 462 -24 462 -24 424.5 -13 c 128,-1,18
 387 -2 387 -2 365 13 c 128,-1,19
 343 28 343 28 343 45 c 256,0,1
343 231 m 256,20,21
 343 248 343 248 365 263 c 128,-1,22
 387 278 387 278 424.5 289.5 c 128,-1,23
 462 301 462 301 513.5 307 c 128,-1,24
 565 313 565 313 624 313 c 0,25,26
 684 313 684 313 735 307 c 128,-1,27
 786 301 786 301 824 289.5 c 128,-1,28
 862 278 862 278 883.5 263 c 128,-1,29
 905 248 905 248 905 231 c 256,30,31
 905 214 905 214 883.5 199 c 128,-1,32
 862 184 862 184 824 173 c 128,-1,33
 786 162 786 162 735 155 c 128,-1,34
 684 148 684 148 624 148 c 0,35,36
 565 148 565 148 513.5 155 c 128,-1,37
 462 162 462 162 424.5 173 c 128,-1,38
 387 184 387 184 365 199 c 128,-1,39
 343 214 343 214 343 231 c 256,20,21
453 230 m 0,40,41
 453 220 453 220 466 210.5 c 128,-1,42
 479 201 479 201 502 194 c 128,-1,43
 525 187 525 187 556.5 183 c 128,-1,44
 588 179 588 179 624 179 c 0,45,46
 661 179 661 179 692 183 c 128,-1,47
 723 187 723 187 746 194 c 128,-1,48
 769 201 769 201 782 210.5 c 128,-1,49
 795 220 795 220 795 230 c 0,50,51
 795 241 795 241 782 250.5 c 128,-1,52
 769 260 769 260 746 267 c 128,-1,53
 723 274 723 274 692 278 c 128,-1,54
 661 282 661 282 624 282 c 0,55,56
 588 282 588 282 556.5 278 c 128,-1,57
 525 274 525 274 502 267 c 128,-1,58
 479 260 479 260 466 250.5 c 128,-1,59
 453 241 453 241 453 230 c 0,40,41
343 418 m 256,60,61
 343 435 343 435 365 450.5 c 128,-1,62
 387 466 387 466 424.5 477 c 128,-1,63
 462 488 462 488 513.5 494.5 c 128,-1,64
 565 501 565 501 624 501 c 0,65,66
 684 501 684 501 735 494.5 c 128,-1,67
 786 488 786 488 824 477 c 128,-1,68
 862 466 862 466 883.5 450.5 c 128,-1,69
 905 435 905 435 905 418 c 256,70,71
 905 401 905 401 883.5 386 c 128,-1,72
 862 371 862 371 824 360 c 128,-1,73
 786 349 786 349 735 342.5 c 128,-1,74
 684 336 684 336 624 336 c 0,75,76
 565 336 565 336 513.5 342.5 c 128,-1,77
 462 349 462 349 424.5 360 c 128,-1,78
 387 371 387 371 365 386 c 128,-1,79
 343 401 343 401 343 418 c 256,60,61
343 604 m 256,80,81
 343 621 343 621 365 636 c 128,-1,82
 387 651 387 651 424.5 662.5 c 128,-1,83
 462 674 462 674 513.5 680 c 128,-1,84
 565 686 565 686 624 686 c 0,85,86
 684 686 684 686 735 680 c 128,-1,87
 786 674 786 674 824 662.5 c 128,-1,88
 862 651 862 651 883.5 636 c 128,-1,89
 905 621 905 621 905 604 c 256,90,91
 905 587 905 587 883.5 572 c 128,-1,92
 862 557 862 557 824 546 c 128,-1,93
 786 535 786 535 735 528.5 c 128,-1,94
 684 522 684 522 624 522 c 0,95,96
 565 522 565 522 513.5 528.5 c 128,-1,97
 462 535 462 535 424.5 546 c 128,-1,98
 387 557 387 557 365 572 c 128,-1,99
 343 587 343 587 343 604 c 256,80,81
EndSplineSet
EndChar

StartChar: uni008E
Encoding: 142 142 113
Width: 1209
Flags: W
LayerCount: 2
Fore
SplineSet
343 45 m 256,0,1
 343 62 343 62 365 77 c 128,-1,2
 387 92 387 92 424.5 103.5 c 128,-1,3
 462 115 462 115 513.5 121.5 c 128,-1,4
 565 128 565 128 624 128 c 0,5,6
 684 128 684 128 735 121.5 c 128,-1,7
 786 115 786 115 824 103.5 c 128,-1,8
 862 92 862 92 883.5 77 c 128,-1,9
 905 62 905 62 905 45 c 256,10,11
 905 28 905 28 883.5 13 c 128,-1,12
 862 -2 862 -2 824 -13 c 128,-1,13
 786 -24 786 -24 735 -30.5 c 128,-1,14
 684 -37 684 -37 624 -37 c 0,15,16
 565 -37 565 -37 513.5 -30.5 c 128,-1,17
 462 -24 462 -24 424.5 -13 c 128,-1,18
 387 -2 387 -2 365 13 c 128,-1,19
 343 28 343 28 343 45 c 256,0,1
453 45 m 256,20,21
 453 34 453 34 466 24.5 c 128,-1,22
 479 15 479 15 502 8 c 128,-1,23
 525 1 525 1 556.5 -3 c 128,-1,24
 588 -7 588 -7 624 -7 c 0,25,26
 661 -7 661 -7 692 -3 c 128,-1,27
 723 1 723 1 746 8 c 128,-1,28
 769 15 769 15 782 24.5 c 128,-1,29
 795 34 795 34 795 45 c 256,30,31
 795 56 795 56 782 65.5 c 128,-1,32
 769 75 769 75 746 82 c 128,-1,33
 723 89 723 89 692 93 c 128,-1,34
 661 97 661 97 624 97 c 0,35,36
 588 97 588 97 556.5 93 c 128,-1,37
 525 89 525 89 502 82 c 128,-1,38
 479 75 479 75 466 65.5 c 128,-1,39
 453 56 453 56 453 45 c 256,20,21
343 231 m 256,40,41
 343 248 343 248 365 263 c 128,-1,42
 387 278 387 278 424.5 289.5 c 128,-1,43
 462 301 462 301 513.5 307 c 128,-1,44
 565 313 565 313 624 313 c 0,45,46
 684 313 684 313 735 307 c 128,-1,47
 786 301 786 301 824 289.5 c 128,-1,48
 862 278 862 278 883.5 263 c 128,-1,49
 905 248 905 248 905 231 c 256,50,51
 905 214 905 214 883.5 199 c 128,-1,52
 862 184 862 184 824 173 c 128,-1,53
 786 162 786 162 735 155 c 128,-1,54
 684 148 684 148 624 148 c 0,55,56
 565 148 565 148 513.5 155 c 128,-1,57
 462 162 462 162 424.5 173 c 128,-1,58
 387 184 387 184 365 199 c 128,-1,59
 343 214 343 214 343 231 c 256,40,41
343 418 m 256,60,61
 343 435 343 435 365 450.5 c 128,-1,62
 387 466 387 466 424.5 477 c 128,-1,63
 462 488 462 488 513.5 494.5 c 128,-1,64
 565 501 565 501 624 501 c 0,65,66
 684 501 684 501 735 494.5 c 128,-1,67
 786 488 786 488 824 477 c 128,-1,68
 862 466 862 466 883.5 450.5 c 128,-1,69
 905 435 905 435 905 418 c 256,70,71
 905 401 905 401 883.5 386 c 128,-1,72
 862 371 862 371 824 360 c 128,-1,73
 786 349 786 349 735 342.5 c 128,-1,74
 684 336 684 336 624 336 c 0,75,76
 565 336 565 336 513.5 342.5 c 128,-1,77
 462 349 462 349 424.5 360 c 128,-1,78
 387 371 387 371 365 386 c 128,-1,79
 343 401 343 401 343 418 c 256,60,61
343 604 m 256,80,81
 343 621 343 621 365 636 c 128,-1,82
 387 651 387 651 424.5 662.5 c 128,-1,83
 462 674 462 674 513.5 680 c 128,-1,84
 565 686 565 686 624 686 c 0,85,86
 684 686 684 686 735 680 c 128,-1,87
 786 674 786 674 824 662.5 c 128,-1,88
 862 651 862 651 883.5 636 c 128,-1,89
 905 621 905 621 905 604 c 256,90,91
 905 587 905 587 883.5 572 c 128,-1,92
 862 557 862 557 824 546 c 128,-1,93
 786 535 786 535 735 528.5 c 128,-1,94
 684 522 684 522 624 522 c 0,95,96
 565 522 565 522 513.5 528.5 c 128,-1,97
 462 535 462 535 424.5 546 c 128,-1,98
 387 557 387 557 365 572 c 128,-1,99
 343 587 343 587 343 604 c 256,80,81
EndSplineSet
EndChar

StartChar: uni008F
Encoding: 143 143 114
Width: 1209
Flags: W
LayerCount: 2
Fore
SplineSet
343 45 m 256,0,1
 343 62 343 62 365 77 c 128,-1,2
 387 92 387 92 424.5 103.5 c 128,-1,3
 462 115 462 115 513.5 121.5 c 128,-1,4
 565 128 565 128 624 128 c 0,5,6
 684 128 684 128 735 121.5 c 128,-1,7
 786 115 786 115 824 103.5 c 128,-1,8
 862 92 862 92 883.5 77 c 128,-1,9
 905 62 905 62 905 45 c 256,10,11
 905 28 905 28 883.5 13 c 128,-1,12
 862 -2 862 -2 824 -13 c 128,-1,13
 786 -24 786 -24 735 -30.5 c 128,-1,14
 684 -37 684 -37 624 -37 c 0,15,16
 565 -37 565 -37 513.5 -30.5 c 128,-1,17
 462 -24 462 -24 424.5 -13 c 128,-1,18
 387 -2 387 -2 365 13 c 128,-1,19
 343 28 343 28 343 45 c 256,0,1
343 231 m 256,20,21
 343 248 343 248 365 263 c 128,-1,22
 387 278 387 278 424.5 289.5 c 128,-1,23
 462 301 462 301 513.5 307 c 128,-1,24
 565 313 565 313 624 313 c 0,25,26
 684 313 684 313 735 307 c 128,-1,27
 786 301 786 301 824 289.5 c 128,-1,28
 862 278 862 278 883.5 263 c 128,-1,29
 905 248 905 248 905 231 c 256,30,31
 905 214 905 214 883.5 199 c 128,-1,32
 862 184 862 184 824 173 c 128,-1,33
 786 162 786 162 735 155 c 128,-1,34
 684 148 684 148 624 148 c 0,35,36
 565 148 565 148 513.5 155 c 128,-1,37
 462 162 462 162 424.5 173 c 128,-1,38
 387 184 387 184 365 199 c 128,-1,39
 343 214 343 214 343 231 c 256,20,21
343 418 m 256,40,41
 343 435 343 435 365 450.5 c 128,-1,42
 387 466 387 466 424.5 477 c 128,-1,43
 462 488 462 488 513.5 494.5 c 128,-1,44
 565 501 565 501 624 501 c 0,45,46
 684 501 684 501 735 494.5 c 128,-1,47
 786 488 786 488 824 477 c 128,-1,48
 862 466 862 466 883.5 450.5 c 128,-1,49
 905 435 905 435 905 418 c 256,50,51
 905 401 905 401 883.5 386 c 128,-1,52
 862 371 862 371 824 360 c 128,-1,53
 786 349 786 349 735 342.5 c 128,-1,54
 684 336 684 336 624 336 c 0,55,56
 565 336 565 336 513.5 342.5 c 128,-1,57
 462 349 462 349 424.5 360 c 128,-1,58
 387 371 387 371 365 386 c 128,-1,59
 343 401 343 401 343 418 c 256,40,41
343 604 m 256,60,61
 343 621 343 621 365 636 c 128,-1,62
 387 651 387 651 424.5 662.5 c 128,-1,63
 462 674 462 674 513.5 680 c 128,-1,64
 565 686 565 686 624 686 c 0,65,66
 684 686 684 686 735 680 c 128,-1,67
 786 674 786 674 824 662.5 c 128,-1,68
 862 651 862 651 883.5 636 c 128,-1,69
 905 621 905 621 905 604 c 256,70,71
 905 587 905 587 883.5 572 c 128,-1,72
 862 557 862 557 824 546 c 128,-1,73
 786 535 786 535 735 528.5 c 128,-1,74
 684 522 684 522 624 522 c 0,75,76
 565 522 565 522 513.5 528.5 c 128,-1,77
 462 535 462 535 424.5 546 c 128,-1,78
 387 557 387 557 365 572 c 128,-1,79
 343 587 343 587 343 604 c 256,60,61
EndSplineSet
EndChar

StartChar: uni0090
Encoding: 144 144 115
Width: 535
Flags: W
LayerCount: 2
Fore
SplineSet
268 594 m 0,0,1
 317 594 317 594 358.5 577 c 128,-1,2
 400 560 400 560 430.5 523.5 c 128,-1,3
 461 487 461 487 478.5 430 c 128,-1,4
 496 373 496 373 496 293 c 256,5,6
 496 213 496 213 477.5 156 c 128,-1,7
 459 99 459 99 427.5 62.5 c 128,-1,8
 396 26 396 26 354.5 9 c 128,-1,9
 313 -8 313 -8 268 -8 c 0,10,11
 219 -8 219 -8 177.5 9 c 128,-1,12
 136 26 136 26 105.5 62.5 c 128,-1,13
 75 99 75 99 57.5 156 c 128,-1,14
 40 213 40 213 40 293 c 0,15,16
 40 370 40 370 58.5 426.5 c 128,-1,17
 77 483 77 483 108.5 520.5 c 128,-1,18
 140 558 140 558 181.5 576 c 128,-1,19
 223 594 223 594 268 594 c 0,0,1
126 293 m 0,20,21
 126 220 126 220 138 174 c 128,-1,22
 150 128 150 128 169.5 101.5 c 128,-1,23
 189 75 189 75 215 65.5 c 128,-1,24
 241 56 241 56 269 56 c 256,25,26
 297 56 297 56 322.5 67 c 128,-1,27
 348 78 348 78 367.5 105 c 128,-1,28
 387 132 387 132 398.5 177.5 c 128,-1,29
 410 223 410 223 410 293 c 0,30,31
 410 366 410 366 398 412 c 128,-1,32
 386 458 386 458 366 484 c 128,-1,33
 346 510 346 510 320.5 520 c 128,-1,34
 295 530 295 530 267 530 c 256,35,36
 239 530 239 530 213.5 519 c 128,-1,37
 188 508 188 508 168.5 481 c 128,-1,38
 149 454 149 454 137.5 408.5 c 128,-1,39
 126 363 126 363 126 293 c 0,20,21
EndSplineSet
EndChar

StartChar: uni0091
Encoding: 145 145 116
Width: 339
Flags: W
LayerCount: 2
Fore
SplineSet
195 586 m 1,0,-1
 255 586 l 1,1,-1
 255 0 l 1,2,-1
 175 0 l 1,3,-1
 175 500 l 1,4,-1
 70 452 l 1,5,-1
 51 520 l 1,6,-1
 195 586 l 1,0,-1
EndSplineSet
EndChar

StartChar: uni0092
Encoding: 146 146 117
Width: 449
Flags: W
LayerCount: 2
Fore
SplineSet
208 527 m 0,0,1
 178 527 178 527 151 517 c 128,-1,2
 124 507 124 507 92 482 c 1,3,-1
 56 537 l 1,4,5
 98 572 98 572 135.5 583 c 128,-1,6
 173 594 173 594 208 594 c 0,7,8
 256 594 256 594 291.5 580.5 c 128,-1,9
 327 567 327 567 350 544 c 128,-1,10
 373 521 373 521 384 489 c 128,-1,11
 395 457 395 457 395 420 c 0,12,13
 395 386 395 386 381 351.5 c 128,-1,14
 367 317 367 317 341.5 280.5 c 128,-1,15
 316 244 316 244 279.5 204.5 c 128,-1,16
 243 165 243 165 198 121 c 2,17,-1
 143 68 l 1,18,-1
 409 68 l 1,19,-1
 409 0 l 1,20,-1
 57 0 l 1,21,-1
 42 59 l 1,22,-1
 119 136 l 2,23,24
 170 187 170 187 207 227 c 128,-1,25
 244 267 244 267 267 300 c 128,-1,26
 290 333 290 333 301 361.5 c 128,-1,27
 312 390 312 390 312 418 c 0,28,29
 312 466 312 466 286 496.5 c 128,-1,30
 260 527 260 527 208 527 c 0,0,1
EndSplineSet
EndChar

StartChar: uni0093
Encoding: 147 147 118
Width: 456
Flags: W
LayerCount: 2
Fore
SplineSet
49 551 m 1,0,1
 86 574 86 574 125 584 c 128,-1,2
 164 594 164 594 199 594 c 0,3,4
 238 594 238 594 271 583 c 128,-1,5
 304 572 304 572 327.5 552 c 128,-1,6
 351 532 351 532 364 504.5 c 128,-1,7
 377 477 377 477 377 445 c 0,8,9
 377 390 377 390 348.5 353.5 c 128,-1,10
 320 317 320 317 279 302 c 1,11,12
 304 296 304 296 326 283.5 c 128,-1,13
 348 271 348 271 363.5 253 c 128,-1,14
 379 235 379 235 388 212 c 128,-1,15
 397 189 397 189 397 163 c 0,16,17
 397 116 397 116 378.5 83 c 128,-1,18
 360 50 360 50 330 30 c 128,-1,19
 300 10 300 10 262.5 1 c 128,-1,20
 225 -8 225 -8 186 -8 c 0,21,22
 148 -8 148 -8 108 -1 c 128,-1,23
 68 6 68 6 39 20 c 1,24,-1
 58 84 l 1,25,26
 89 72 89 72 116 65 c 128,-1,27
 143 58 143 58 185 58 c 0,28,29
 208 58 208 58 231 63.5 c 128,-1,30
 254 69 254 69 272 82 c 128,-1,31
 290 95 290 95 301 115 c 128,-1,32
 312 135 312 135 312 165 c 0,33,34
 312 218 312 218 275.5 242 c 128,-1,35
 239 266 239 266 183 266 c 2,36,-1
 113 266 l 1,37,-1
 113 329 l 1,38,-1
 167 329 l 2,39,40
 221 329 221 329 257 355 c 128,-1,41
 293 381 293 381 293 435 c 0,42,43
 293 454 293 454 285 471.5 c 128,-1,44
 277 489 277 489 263.5 501.5 c 128,-1,45
 250 514 250 514 232 521.5 c 128,-1,46
 214 529 214 529 193 529 c 0,47,48
 163 529 163 529 137 521.5 c 128,-1,49
 111 514 111 514 75 494 c 1,50,-1
 49 551 l 1,0,1
EndSplineSet
EndChar

StartChar: uni0094
Encoding: 148 148 119
Width: 498
Flags: W
LayerCount: 2
Fore
SplineSet
300 586 m 1,0,-1
 374 586 l 1,1,-1
 374 217 l 1,2,-1
 466 217 l 1,3,-1
 466 149 l 1,4,-1
 374 149 l 1,5,-1
 374 0 l 1,6,-1
 298 0 l 1,7,-1
 298 149 l 1,8,-1
 19 149 l 1,9,-1
 19 200 l 1,10,-1
 300 586 l 1,0,-1
111 217 m 1,11,-1
 298 217 l 1,12,-1
 298 379 l 1,13,-1
 302 496 l 1,14,-1
 300 496 l 1,15,-1
 255 417 l 1,16,-1
 111 217 l 1,11,-1
EndSplineSet
EndChar

StartChar: uni0095
Encoding: 149 149 120
Width: 481
Flags: W
LayerCount: 2
Fore
SplineSet
397 588 m 1,0,-1
 397 520 l 1,1,-1
 180 520 l 1,2,-1
 163 364 l 1,3,4
 174 366 174 366 187.5 367 c 128,-1,5
 201 368 201 368 218 368 c 0,6,7
 252 368 252 368 288 359 c 128,-1,8
 324 350 324 350 352.5 329 c 128,-1,9
 381 308 381 308 399.5 274 c 128,-1,10
 418 240 418 240 418 191 c 0,11,12
 418 149 418 149 403.5 113 c 128,-1,13
 389 77 389 77 359.5 50 c 128,-1,14
 330 23 330 23 287 7.5 c 128,-1,15
 244 -8 244 -8 187 -8 c 0,16,17
 154 -8 154 -8 119.5 -1 c 128,-1,18
 85 6 85 6 59 20 c 1,19,-1
 77 86 l 1,20,21
 100 75 100 75 127.5 67.5 c 128,-1,22
 155 60 155 60 185 60 c 0,23,24
 256 60 256 60 294.5 92 c 128,-1,25
 333 124 333 124 333 188 c 0,26,27
 333 249 333 249 292.5 279 c 128,-1,28
 252 309 252 309 191 309 c 0,29,30
 165 309 165 309 139 305.5 c 128,-1,31
 113 302 113 302 86 297 c 1,32,-1
 115 586 l 1,33,-1
 397 588 l 1,0,-1
EndSplineSet
EndChar

StartChar: uni0096
Encoding: 150 150 121
Width: 487
Flags: W
LayerCount: 2
Fore
SplineSet
293 594 m 0,0,1
 325 594 325 594 352 590 c 128,-1,2
 379 586 379 586 405 576 c 1,3,-1
 386 510 l 1,4,5
 366 518 366 518 344 523 c 128,-1,6
 322 528 322 528 296 528 c 0,7,8
 255 528 255 528 224 513 c 128,-1,9
 193 498 193 498 172 471 c 128,-1,10
 151 444 151 444 139.5 406 c 128,-1,11
 128 368 128 368 127 322 c 1,12,13
 153 354 153 354 190 369.5 c 128,-1,14
 227 385 227 385 266 385 c 256,15,16
 305 385 305 385 339.5 372.5 c 128,-1,17
 374 360 374 360 399.5 335.5 c 128,-1,18
 425 311 425 311 440 275.5 c 128,-1,19
 455 240 455 240 455 194 c 256,20,21
 455 148 455 148 439.5 111 c 128,-1,22
 424 74 424 74 396.5 47.5 c 128,-1,23
 369 21 369 21 331.5 6.5 c 128,-1,24
 294 -8 294 -8 250 -8 c 0,25,26
 210 -8 210 -8 172.5 7.5 c 128,-1,27
 135 23 135 23 106 56 c 128,-1,28
 77 89 77 89 59.5 141.5 c 128,-1,29
 42 194 42 194 42 269 c 0,30,31
 42 359 42 359 63 421 c 128,-1,32
 84 483 84 483 118.5 521.5 c 128,-1,33
 153 560 153 560 198.5 577 c 128,-1,34
 244 594 244 594 293 594 c 0,0,1
127 214 m 0,35,36
 127 181 127 181 136 152 c 128,-1,37
 145 123 145 123 161.5 101.5 c 128,-1,38
 178 80 178 80 201.5 67.5 c 128,-1,39
 225 55 225 55 253 55 c 0,40,41
 307 55 307 55 340 94 c 128,-1,42
 373 133 373 133 373 193 c 0,43,44
 373 259 373 259 339.5 289.5 c 128,-1,45
 306 320 306 320 250 320 c 0,46,47
 208 320 208 320 179.5 300.5 c 128,-1,48
 151 281 151 281 137 255 c 0,49,50
 131 244 131 244 129 234 c 128,-1,51
 127 224 127 224 127 214 c 0,35,36
EndSplineSet
EndChar

StartChar: uni0097
Encoding: 151 151 122
Width: 460
Flags: W
LayerCount: 2
Fore
SplineSet
418 586 m 1,0,-1
 418 528 l 1,1,-1
 165 -17 l 1,2,-1
 95 14 l 1,3,-1
 336 518 l 1,4,-1
 53 518 l 1,5,-1
 53 586 l 1,6,-1
 418 586 l 1,0,-1
EndSplineSet
EndChar

StartChar: uni0098
Encoding: 152 152 123
Width: 470
Flags: W
LayerCount: 2
Fore
SplineSet
236 594 m 0,0,1
 281 594 281 594 315.5 582 c 128,-1,2
 350 570 350 570 373 550 c 128,-1,3
 396 530 396 530 407.5 503.5 c 128,-1,4
 419 477 419 477 419 448 c 0,5,6
 419 406 419 406 392 369 c 128,-1,7
 365 332 365 332 308 310 c 1,8,9
 372 283 372 283 403 248 c 128,-1,10
 434 213 434 213 434 158 c 0,11,12
 434 117 434 117 419 86 c 128,-1,13
 404 55 404 55 377.5 34 c 128,-1,14
 351 13 351 13 315 2.5 c 128,-1,15
 279 -8 279 -8 236 -8 c 0,16,17
 194 -8 194 -8 157.5 3 c 128,-1,18
 121 14 121 14 94 34.5 c 128,-1,19
 67 55 67 55 51 84.5 c 128,-1,20
 35 114 35 114 35 151 c 0,21,22
 35 208 35 208 64 242 c 128,-1,23
 93 276 93 276 156 303 c 1,24,25
 108 325 108 325 81.5 359.5 c 128,-1,26
 55 394 55 394 55 440 c 0,27,28
 55 471 55 471 66 499 c 128,-1,29
 77 527 77 527 99.5 548 c 128,-1,30
 122 569 122 569 156 581.5 c 128,-1,31
 190 594 190 594 236 594 c 0,0,1
132 445 m 0,32,33
 132 423 132 423 140.5 406.5 c 128,-1,34
 149 390 149 390 164 377 c 128,-1,35
 179 364 179 364 198.5 354.5 c 128,-1,36
 218 345 218 345 239 338 c 1,37,38
 282 355 282 355 311.5 380 c 128,-1,39
 341 405 341 405 341 446 c 0,40,41
 341 485 341 485 310.5 509 c 128,-1,42
 280 533 280 533 236 533 c 0,43,44
 184 533 184 533 158 506 c 128,-1,45
 132 479 132 479 132 445 c 0,32,33
229 273 m 1,46,47
 180 257 180 257 149 230 c 128,-1,48
 118 203 118 203 118 153 c 0,49,50
 118 114 118 114 147 84.5 c 128,-1,51
 176 55 176 55 236 55 c 0,52,53
 291 55 291 55 321.5 84.5 c 128,-1,54
 352 114 352 114 352 153 c 0,55,56
 352 201 352 201 317 229.5 c 128,-1,57
 282 258 282 258 229 273 c 1,46,47
EndSplineSet
EndChar

StartChar: uni0099
Encoding: 153 153 124
Width: 481
Flags: W
LayerCount: 2
Fore
SplineSet
192 -8 m 0,0,1
 150 -8 150 -8 120.5 -2 c 128,-1,2
 91 4 91 4 70 14 c 1,3,-1
 89 80 l 1,4,5
 109 72 109 72 130.5 65 c 128,-1,6
 152 58 152 58 189 58 c 0,7,8
 271 58 271 58 311 109 c 128,-1,9
 351 160 351 160 353 259 c 1,10,11
 330 232 330 232 294.5 216.5 c 128,-1,12
 259 201 259 201 219 201 c 0,13,14
 180 201 180 201 146 213.5 c 128,-1,15
 112 226 112 226 87.5 250.5 c 128,-1,16
 63 275 63 275 49 310.5 c 128,-1,17
 35 346 35 346 35 392 c 256,18,19
 35 438 35 438 50 475 c 128,-1,20
 65 512 65 512 92 538.5 c 128,-1,21
 119 565 119 565 156 579.5 c 128,-1,22
 193 594 193 594 237 594 c 0,23,24
 277 594 277 594 313.5 578.5 c 128,-1,25
 350 563 350 563 378 530 c 128,-1,26
 406 497 406 497 422.5 444.5 c 128,-1,27
 439 392 439 392 439 317 c 0,28,29
 439 227 439 227 420 165 c 128,-1,30
 401 103 401 103 368 64.5 c 128,-1,31
 335 26 335 26 289.5 9 c 128,-1,32
 244 -8 244 -8 192 -8 c 0,0,1
353 365 m 0,33,34
 353 398 353 398 344.5 428 c 128,-1,35
 336 458 336 458 320 481 c 128,-1,36
 304 504 304 504 281 517.5 c 128,-1,37
 258 531 258 531 230 531 c 0,38,39
 176 531 176 531 146.5 494.5 c 128,-1,40
 117 458 117 458 117 398 c 0,41,42
 117 332 117 332 149 299 c 128,-1,43
 181 266 181 266 236 266 c 0,44,45
 274 266 274 266 302 283 c 128,-1,46
 330 300 330 300 344 326 c 0,47,48
 350 337 350 337 351.5 346 c 128,-1,49
 353 355 353 355 353 365 c 0,33,34
EndSplineSet
EndChar

StartChar: uni009A
Encoding: 154 154 125
Width: 504
Flags: W
LayerCount: 2
Fore
SplineSet
85 263 m 2,0,1
 74 263 74 263 65.5 270.5 c 128,-1,2
 57 278 57 278 57 296 c 0,3,4
 57 306 57 306 60 313.5 c 128,-1,5
 63 321 63 321 65 328 c 1,6,-1
 405 328 l 1,7,8
 408 321 408 321 410.5 313.5 c 128,-1,9
 413 306 413 306 413 296 c 0,10,11
 413 278 413 278 405 270.5 c 128,-1,12
 397 263 397 263 384 263 c 2,13,-1
 85 263 l 2,0,1
145 219 m 0,14,15
 145 242 145 242 141.5 278 c 128,-1,16
 138 314 138 314 134 352.5 c 128,-1,17
 130 391 130 391 130 418 c 0,18,19
 130 490 130 490 157.5 534.5 c 128,-1,20
 185 579 185 579 231 600 c 128,-1,21
 277 621 277 621 332 621 c 0,22,23
 397 621 397 621 428 600.5 c 128,-1,24
 459 580 459 580 459 560 c 0,25,26
 459 552 459 552 453.5 540.5 c 128,-1,27
 448 529 448 529 436 522 c 1,28,29
 414 537 414 537 391.5 545 c 128,-1,30
 369 553 369 553 337 553 c 0,31,32
 273 553 273 553 241.5 517 c 128,-1,33
 210 481 210 481 210 407 c 0,34,35
 210 381 210 381 213.5 344 c 128,-1,36
 217 307 217 307 220 272.5 c 128,-1,37
 223 238 223 238 223 217 c 0,38,39
 223 164 223 164 209 127 c 128,-1,40
 195 90 195 90 168 66 c 1,41,-1
 461 66 l 1,42,43
 465 59 465 59 467 51.5 c 128,-1,44
 469 44 469 44 469 33 c 0,45,46
 469 17 469 17 461 8.5 c 128,-1,47
 453 0 453 0 440 0 c 2,48,-1
 100 0 l 2,49,50
 81 0 81 0 67.5 11.5 c 128,-1,51
 54 23 54 23 54 45 c 0,52,53
 54 54 54 54 55 60 c 1,54,55
 100 83 100 83 122.5 116 c 128,-1,56
 145 149 145 149 145 219 c 0,14,15
EndSplineSet
EndChar

StartChar: uni009B
Encoding: 155 155 126
Width: 504
Flags: W
LayerCount: 2
Fore
SplineSet
404 341 m 2,0,1
 415 341 415 341 423.5 333.5 c 128,-1,2
 432 326 432 326 432 308 c 0,3,4
 432 298 432 298 429 290.5 c 128,-1,5
 426 283 426 283 424 276 c 1,6,-1
 84 276 l 1,7,8
 81 283 81 283 78.5 290.5 c 128,-1,9
 76 298 76 298 76 308 c 0,10,11
 76 326 76 326 84 333.5 c 128,-1,12
 92 341 92 341 105 341 c 2,13,-1
 404 341 l 2,0,1
344 385 m 0,14,15
 344 362 344 362 347.5 326 c 128,-1,16
 351 290 351 290 355 251.5 c 128,-1,17
 359 213 359 213 359 186 c 0,18,19
 359 114 359 114 331.5 69.5 c 128,-1,20
 304 25 304 25 258 4 c 128,-1,21
 212 -17 212 -17 157 -17 c 0,22,23
 92 -17 92 -17 61 3.5 c 128,-1,24
 30 24 30 24 30 44 c 0,25,26
 30 52 30 52 35.5 63.5 c 128,-1,27
 41 75 41 75 53 82 c 1,28,29
 75 67 75 67 97.5 59 c 128,-1,30
 120 51 120 51 152 51 c 0,31,32
 216 51 216 51 247.5 87 c 128,-1,33
 279 123 279 123 279 197 c 0,34,35
 279 223 279 223 275.5 260 c 128,-1,36
 272 297 272 297 269 331.5 c 128,-1,37
 266 366 266 366 266 387 c 0,38,39
 266 440 266 440 280 477 c 128,-1,40
 294 514 294 514 321 538 c 1,41,-1
 28 538 l 1,42,43
 24 545 24 545 22 552.5 c 128,-1,44
 20 560 20 560 20 571 c 0,45,46
 20 587 20 587 28 595.5 c 128,-1,47
 36 604 36 604 49 604 c 2,48,-1
 389 604 l 2,49,50
 408 604 408 604 421.5 592.5 c 128,-1,51
 435 581 435 581 435 559 c 0,52,53
 435 550 435 550 434 544 c 1,54,55
 389 521 389 521 366.5 488 c 128,-1,56
 344 455 344 455 344 385 c 0,14,15
EndSplineSet
EndChar

StartChar: uni009C
Encoding: 156 156 127
Width: 680
Flags: W
LayerCount: 2
Fore
SplineSet
558 -7 m 1,0,1
 538 -7 538 -7 519 0 c 128,-1,2
 500 7 500 7 486 24 c 1,3,-1
 486 197 l 1,4,5
 458 172 458 172 421 156.5 c 128,-1,6
 384 141 384 141 334 141 c 0,7,8
 292 141 292 141 243 164 c 128,-1,9
 194 187 194 187 152 224 c 128,-1,10
 110 261 110 261 82 307 c 128,-1,11
 54 353 54 353 54 399 c 0,12,13
 54 447 54 447 71.5 484 c 128,-1,14
 89 521 89 521 119 546.5 c 128,-1,15
 149 572 149 572 189.5 585 c 128,-1,16
 230 598 230 598 276 598 c 0,17,18
 310 598 310 598 340 590 c 0,19,20
 389 577 389 577 396 568.5 c 0,21,22
 431 528 431 528 444.5 537.5 c 0,23,24
 448 540 448 540 486 624 c 1,25,-1
 484 623 l 1,26,-1
 560 623 l 2,27,-1
 558 -7 l 1,0,1
277 198 m 0,28,29
 315 198 315 198 351 210.5 c 128,-1,30
 387 223 387 223 417 246 c 1,31,-1
 184 486 l 1,32,33
 157 462 157 462 142 427.5 c 128,-1,34
 127 393 127 393 127 348 c 0,35,36
 127 312 127 312 138.5 284 c 128,-1,37
 150 256 150 256 170 237 c 128,-1,38
 190 218 190 218 217.5 208 c 128,-1,39
 245 198 245 198 277 198 c 0,28,29
486 477 m 1,40,41
 451 504 451 504 413.5 519.5 c 128,-1,42
 376 535 376 535 327 535 c 0,43,44
 255 535 255 535 204 502 c 1,45,-1
 435 262 l 1,46,47
 451 277 451 277 464 295 c 128,-1,48
 477 313 477 313 486 333 c 1,49,-1
 486 477 l 1,40,41
EndSplineSet
EndChar

StartChar: uni009D
Encoding: 157 157 128
Width: 803
Flags: W
LayerCount: 2
Fore
SplineSet
359 457 m 1,0,1
 367 461 367 461 379 464 c 128,-1,2
 391 467 391 467 404 467 c 0,3,4
 424 467 424 467 437.5 460.5 c 128,-1,5
 451 454 451 454 455 441 c 0,6,7
 480 369 480 369 500.5 307.5 c 128,-1,8
 521 246 521 246 539.5 188.5 c 128,-1,9
 558 131 558 131 577 70 c 1,10,-1
 581 70 l 1,11,12
 600 160 600 160 618 245.5 c 128,-1,13
 636 331 636 331 653 419 c 128,-1,14
 670 507 670 507 684 607 c 1,15,16
 698 614 698 614 718 614 c 0,17,18
 737 614 737 614 748 605.5 c 128,-1,19
 759 597 759 597 759 580 c 0,20,21
 759 561 759 561 753.5 522.5 c 128,-1,22
 748 484 748 484 738.5 432.5 c 128,-1,23
 729 381 729 381 716.5 323.5 c 128,-1,24
 704 266 704 266 690 208.5 c 128,-1,25
 676 151 676 151 662 100 c 128,-1,26
 648 49 648 49 635 11 c 1,27,28
 626 6 626 6 612 1.5 c 128,-1,29
 598 -3 598 -3 580 -3 c 0,30,31
 558 -3 558 -3 543 4 c 128,-1,32
 528 11 528 11 523 23 c 0,33,34
 509 58 509 58 489 115.5 c 128,-1,35
 469 173 469 173 447.5 241.5 c 128,-1,36
 426 310 426 310 406 377 c 1,37,38
 387 311 387 311 365 240 c 128,-1,39
 343 169 343 169 322.5 108 c 128,-1,40
 302 47 302 47 286 10 c 1,41,42
 279 6 279 6 264.5 1.5 c 128,-1,43
 250 -3 250 -3 232 -3 c 0,44,45
 210 -3 210 -3 195.5 4.5 c 128,-1,46
 181 12 181 12 176 23 c 0,47,48
 166 48 166 48 151.5 98 c 128,-1,49
 137 148 137 148 121 212.5 c 128,-1,50
 105 277 105 277 89.5 346.5 c 128,-1,51
 74 416 74 416 60.5 480.5 c 128,-1,52
 47 545 47 545 39 595 c 1,53,54
 46 602 46 602 58 608 c 128,-1,55
 70 614 70 614 84 614 c 0,56,57
 102 614 102 614 112 605.5 c 128,-1,58
 122 597 122 597 126 577 c 0,59,60
 139 514 139 514 151 455 c 128,-1,61
 163 396 163 396 175.5 336 c 128,-1,62
 188 276 188 276 202 210.5 c 128,-1,63
 216 145 216 145 233 70 c 1,64,-1
 237 70 l 1,65,66
 251 115 251 115 264 156 c 128,-1,67
 277 197 277 197 291 240.5 c 128,-1,68
 305 284 305 284 321.5 336 c 128,-1,69
 338 388 338 388 359 457 c 1,0,1
EndSplineSet
EndChar

StartChar: uni009E
Encoding: 158 158 129
Width: 591
Flags: W
LayerCount: 2
Fore
SplineSet
268 289 m 1,0,-1
 254 295 l 1,1,-1
 49 574 l 1,2,3
 54 591 54 591 66 602.5 c 128,-1,4
 78 614 78 614 97 614 c 0,5,6
 113 614 113 614 124 604.5 c 128,-1,7
 135 595 135 595 147 578 c 2,8,-1
 311 343 l 1,9,-1
 334 323 l 1,10,-1
 544 32 l 1,11,12
 540 15 540 15 528.5 4 c 128,-1,13
 517 -7 517 -7 498 -7 c 0,14,15
 482 -7 482 -7 471.5 1 c 128,-1,16
 461 9 461 9 449 27 c 2,17,-1
 268 289 l 1,0,-1
336 301 m 1,18,-1
 314 281 l 1,19,-1
 109 -5 l 2,20,21
 105 -6 105 -6 99.5 -6.5 c 128,-1,22
 94 -7 94 -7 89 -7 c 0,23,24
 69 -7 69 -7 57 3 c 128,-1,25
 45 13 45 13 45 29 c 0,26,27
 45 42 45 42 51.5 53.5 c 128,-1,28
 58 65 58 65 68 78 c 2,29,-1
 255 323 l 1,30,-1
 282 348 l 1,31,-1
 472 611 l 2,32,33
 477 612 477 612 482 612.5 c 128,-1,34
 487 613 487 613 493 613 c 0,35,36
 514 613 514 613 524.5 603 c 128,-1,37
 535 593 535 593 535 578 c 0,38,39
 535 568 535 568 529.5 557 c 128,-1,40
 524 546 524 546 516 535 c 0,41,42
 473 477 473 477 428 418.5 c 128,-1,43
 383 360 383 360 336 301 c 1,18,-1
EndSplineSet
EndChar

StartChar: uni009F
Encoding: 159 159 130
Width: 517
Flags: W
LayerCount: 2
Fore
SplineSet
170 246 m 1,0,-1
 89 247 l 1,1,-1
 89 564 l 2,2,3
 89 584 89 584 101 596 c 128,-1,4
 113 608 113 608 133 608 c 0,5,6
 144 608 144 608 155 605 c 128,-1,7
 166 602 166 602 170 600 c 1,8,-1
 170 246 l 1,0,-1
133 262 m 1,9,-1
 133 331 l 1,10,-1
 430 331 l 1,11,12
 433 326 433 326 436 317.5 c 128,-1,13
 439 309 439 309 439 299 c 0,14,15
 439 283 439 283 431 272.5 c 128,-1,16
 423 262 423 262 408 262 c 2,17,-1
 133 262 l 1,9,-1
133 539 m 1,18,-1
 133 608 l 1,19,-1
 465 608 l 1,20,21
 468 604 468 604 471 595 c 128,-1,22
 474 586 474 586 474 576 c 0,23,24
 474 560 474 560 466 549.5 c 128,-1,25
 458 539 458 539 443 539 c 2,26,-1
 133 539 l 1,18,-1
89 356 m 1,27,-1
 171 356 l 1,28,-1
 171 1 l 1,29,30
 166 0 166 0 155.5 -2.5 c 128,-1,31
 145 -5 145 -5 134 -5 c 0,32,33
 112 -5 112 -5 100.5 4 c 128,-1,34
 89 13 89 13 89 31 c 2,35,-1
 89 356 l 1,27,-1
EndSplineSet
EndChar

StartChar: exclamdown
Encoding: 161 161 132
Width: 250
Flags: W
LayerCount: 2
Fore
SplineSet
86 -126 m 0,0,1
 86 -96 86 -96 86.5 -47.5 c 128,-1,2
 87 1 87 1 88.5 57.5 c 128,-1,3
 90 114 90 114 92 169.5 c 128,-1,4
 94 225 94 225 96 269 c 1,5,6
 102 274 102 274 110.5 276.5 c 128,-1,7
 119 279 119 279 129 279 c 0,8,9
 143 279 143 279 152 273 c 128,-1,10
 161 267 161 267 162 254 c 0,11,12
 164 225 164 225 166 174 c 128,-1,13
 168 123 168 123 169 62.5 c 128,-1,14
 170 2 170 2 170.5 -56 c 128,-1,15
 171 -114 171 -114 171 -156 c 1,16,17
 150 -169 150 -169 126 -169 c 0,18,19
 107 -169 107 -169 96.5 -158.5 c 128,-1,20
 86 -148 86 -148 86 -126 c 0,0,1
184 411 m 256,21,22
 184 387 184 387 169 371 c 128,-1,23
 154 355 154 355 128 355 c 256,24,25
 102 355 102 355 87 371 c 128,-1,26
 72 387 72 387 72 411 c 256,27,28
 72 435 72 435 87 451 c 128,-1,29
 102 467 102 467 128 467 c 256,30,31
 154 467 154 467 169 451 c 128,-1,32
 184 435 184 435 184 411 c 256,21,22
EndSplineSet
EndChar

